gubi5-110.ufo
<glyph name="exclam" format="1">
  <unicode hex="0021"/>
  <advance width="343"/>
  <outline>
    <contour>
      <point x="152" y="171" type="line"/>
      <point x="159" y="191"/>
      <point x="171" y="223"/>
      <point x="178" y="241" type="curve" smooth="yes"/>
      <point x="220" y="356"/>
      <point x="242" y="416"/>
      <point x="283" y="499" type="curve"/>
      <point x="309" y="558"/>
      <point x="321" y="592"/>
      <point x="321" y="621" type="curve" smooth="yes"/>
      <point x="321" y="670"/>
      <point x="300" y="692"/>
      <point x="263" y="692" type="curve" smooth="yes"/>
      <point x="193" y="692"/>
      <point x="168" y="552"/>
      <point x="138" y="385" type="curve"/>
      <point x="128" y="324"/>
      <point x="112" y="247"/>
      <point x="99" y="185" type="curve"/>
    </contour>
    <contour>
      <point x="92" y="124" type="curve" smooth="yes"/>
      <point x="54" y="124"/>
      <point x="22" y="93"/>
      <point x="22" y="58" type="curve" smooth="yes"/>
      <point x="22" y="19"/>
      <point x="51" y="-12"/>
      <point x="91" y="-12" type="curve" smooth="yes"/>
      <point x="134" y="-12"/>
      <point x="166" y="19"/>
      <point x="166" y="56" type="curve" smooth="yes"/>
      <point x="166" y="92"/>
      <point x="134" y="124"/>
    </contour>
  </outline>
</glyph>
<glyph name="quotedbl" format="1">
  <unicode hex="0022"/>
  <advance width="376"/>
  <outline>
    <contour>
      <point x="81" y="419" type="line"/>
      <point x="144" y="555"/>
      <point x="174" y="632"/>
      <point x="174" y="648" type="curve" smooth="yes"/>
      <point x="174" y="672"/>
      <point x="151" y="691"/>
      <point x="124" y="691" type="curve" smooth="yes"/>
      <point x="47" y="691"/>
      <point x="45" y="663"/>
      <point x="30" y="466" type="curve" smooth="yes"/>
      <point x="29" y="456"/>
      <point x="27" y="430"/>
      <point x="26" y="419" type="curve"/>
    </contour>
    <contour>
      <point x="258" y="419" type="line"/>
      <point x="319" y="555"/>
      <point x="351" y="632"/>
      <point x="351" y="648" type="curve" smooth="yes"/>
      <point x="351" y="672"/>
      <point x="328" y="691"/>
      <point x="301" y="691" type="curve" smooth="yes"/>
      <point x="221" y="691"/>
      <point x="222" y="658"/>
      <point x="203" y="419" type="curve"/>
    </contour>
  </outline>
</glyph>
<glyph name="numbersign" format="1">
  <unicode hex="0023"/>
  <advance width="628"/>
  <outline>
    <contour>
      <point x="531" y="295" type="line"/>
      <point x="438" y="295" type="line"/>
      <point x="481" y="408" type="line"/>
      <point x="589" y="408" type="line"/>
      <point x="604" y="491" type="line"/>
      <point x="512" y="491" type="line"/>
      <point x="593" y="702" type="line"/>
      <point x="492" y="702" type="line"/>
      <point x="412" y="491" type="line"/>
      <point x="322" y="491" type="line"/>
      <point x="401" y="702" type="line"/>
      <point x="302" y="702" type="line"/>
      <point x="221" y="491" type="line"/>
      <point x="115" y="491" type="line"/>
      <point x="97" y="408" type="line"/>
      <point x="190" y="408" type="line"/>
      <point x="148" y="295" type="line"/>
      <point x="42" y="295" type="line"/>
      <point x="24" y="212" type="line"/>
      <point x="116" y="212" type="line"/>
      <point x="37" y="0" type="line"/>
      <point x="138" y="0" type="line"/>
      <point x="217" y="212" type="line"/>
      <point x="305" y="212" type="line"/>
      <point x="227" y="0" type="line"/>
      <point x="329" y="0" type="line"/>
      <point x="408" y="212" type="line"/>
      <point x="513" y="212" type="line"/>
    </contour>
    <contour>
      <point x="292" y="408" type="line"/>
      <point x="381" y="408" type="line"/>
      <point x="339" y="295" type="line"/>
      <point x="248" y="295" type="line"/>
    </contour>
  </outline>
</glyph>
<glyph name="dollar" format="1">
  <unicode hex="0024"/>
  <advance width="551"/>
  <outline>
    <contour>
      <point x="527" y="629" type="line"/>
      <point x="493" y="652"/>
      <point x="450" y="671"/>
      <point x="407" y="684" type="curve"/>
      <point x="426" y="757" type="line"/>
      <point x="354" y="757" type="line"/>
      <point x="336" y="693" type="line"/>
      <point x="333" y="693" type="line" smooth="yes"/>
      <point x="199" y="693"/>
      <point x="116" y="625"/>
      <point x="116" y="525" type="curve" smooth="yes"/>
      <point x="116" y="457"/>
      <point x="149" y="408"/>
      <point x="249" y="336" type="curve"/>
      <point x="186" y="66" type="line"/>
      <point x="132" y="85"/>
      <point x="113" y="125"/>
      <point x="102" y="224" type="curve"/>
      <point x="52" y="215" type="line"/>
      <point x="23" y="77" type="line"/>
      <point x="63" y="41"/>
      <point x="112" y="19"/>
      <point x="170" y="6" type="curve"/>
      <point x="147" y="-88" type="line"/>
      <point x="220" y="-88" type="line"/>
      <point x="241" y="1" type="line"/>
      <point x="403" y="11"/>
      <point x="484" y="77"/>
      <point x="484" y="203" type="curve" smooth="yes"/>
      <point x="484" y="285"/>
      <point x="460" y="322"/>
      <point x="344" y="414" type="curve"/>
      <point x="393" y="621" type="line"/>
      <point x="428" y="600"/>
      <point x="442" y="564"/>
      <point x="445" y="500" type="curve"/>
      <point x="495" y="494" type="line"/>
    </contour>
    <contour>
      <point x="372" y="176" type="curve" smooth="yes"/>
      <point x="372" y="108"/>
      <point x="331" y="68"/>
      <point x="256" y="56" type="curve"/>
      <point x="310" y="289" type="line"/>
      <point x="359" y="245"/>
      <point x="372" y="218"/>
    </contour>
    <contour>
      <point x="231" y="549" type="curve" smooth="yes"/>
      <point x="231" y="603"/>
      <point x="267" y="636"/>
      <point x="324" y="638" type="curve"/>
      <point x="281" y="461" type="line"/>
      <point x="242" y="493"/>
      <point x="231" y="516"/>
    </contour>
  </outline>
</glyph>
<glyph name="ampersand" format="1">
  <unicode hex="0026"/>
  <advance width="737"/>
  <outline>
    <contour>
      <point x="476" y="378" type="line"/>
      <point x="476" y="330" type="line"/>
      <point x="516" y="327"/>
      <point x="526" y="323"/>
      <point x="526" y="312" type="curve" smooth="yes"/>
      <point x="526" y="285"/>
      <point x="516" y="260"/>
      <point x="470" y="204" type="curve"/>
      <point x="445" y="252"/>
      <point x="420" y="320"/>
      <point x="400" y="403" type="curve"/>
      <point x="527" y="466"/>
      <point x="570" y="518"/>
      <point x="570" y="584" type="curve" smooth="yes"/>
      <point x="570" y="645"/>
      <point x="521" y="691"/>
      <point x="450" y="691" type="curve" smooth="yes"/>
      <point x="345" y="691"/>
      <point x="271" y="601"/>
      <point x="271" y="472" type="curve" smooth="yes"/>
      <point x="271" y="460"/>
      <point x="272" y="450"/>
      <point x="277" y="399" type="curve"/>
      <point x="63" y="304"/>
      <point x="24" y="251"/>
      <point x="24" y="154" type="curve" smooth="yes"/>
      <point x="24" y="50"/>
      <point x="102" y="-18"/>
      <point x="225" y="-18" type="curve" smooth="yes"/>
      <point x="293" y="-18"/>
      <point x="323" y="-6"/>
      <point x="418" y="53" type="curve"/>
      <point x="462" y="2"/>
      <point x="502" y="-18"/>
      <point x="560" y="-18" type="curve" smooth="yes"/>
      <point x="617" y="-18"/>
      <point x="661" y="5"/>
      <point x="712" y="67" type="curve"/>
      <point x="678" y="96" type="line"/>
      <point x="643" y="69"/>
      <point x="624" y="59"/>
      <point x="607" y="59" type="curve" smooth="yes"/>
      <point x="571" y="59"/>
      <point x="544" y="82"/>
      <point x="507" y="138" type="curve"/>
      <point x="568" y="224" type="line" smooth="yes"/>
      <point x="623" y="301"/>
      <point x="641" y="327"/>
      <point x="699" y="332" type="curve"/>
      <point x="699" y="378" type="line"/>
    </contour>
    <contour>
      <point x="381" y="105" type="curve"/>
      <point x="342" y="77"/>
      <point x="306" y="62"/>
      <point x="264" y="62" type="curve" smooth="yes"/>
      <point x="204" y="62"/>
      <point x="157" y="111"/>
      <point x="157" y="178" type="curve" smooth="yes"/>
      <point x="157" y="239"/>
      <point x="205" y="300"/>
      <point x="286" y="336" type="curve"/>
      <point x="317" y="227"/>
      <point x="350" y="151"/>
    </contour>
    <contour>
      <point x="391" y="516" type="curve" smooth="yes"/>
      <point x="391" y="596"/>
      <point x="405" y="631"/>
      <point x="438" y="631" type="curve" smooth="yes"/>
      <point x="456" y="631"/>
      <point x="463" y="620"/>
      <point x="463" y="589" type="curve" smooth="yes"/>
      <point x="463" y="537"/>
      <point x="448" y="508"/>
      <point x="392" y="470" type="curve"/>
      <point x="391" y="486"/>
      <point x="391" y="500"/>
    </contour>
  </outline>
</glyph>
<glyph name="quotesingle" format="1">
  <unicode hex="0027"/>
  <advance width="227"/>
  <outline>
    <contour>
      <point x="47" y="426" type="line"/>
      <point x="147" y="481"/>
      <point x="203" y="545"/>
      <point x="203" y="607" type="curve" smooth="yes"/>
      <point x="203" y="653"/>
      <point x="172" y="691"/>
      <point x="127" y="691" type="curve" smooth="yes"/>
      <point x="85" y="691"/>
      <point x="57" y="665"/>
      <point x="57" y="632" type="curve" smooth="yes"/>
      <point x="57" y="613"/>
      <point x="72" y="594"/>
      <point x="87" y="576" type="curve" smooth="yes"/>
      <point x="95" y="567"/>
      <point x="102" y="558"/>
      <point x="102" y="552" type="curve" smooth="yes" name="hr01"/>
      <point x="102" y="531"/>
      <point x="78" y="505"/>
      <point x="24" y="469" type="curve"/>
    </contour>
  </outline>
</glyph>
<glyph name="parenleft" format="1">
  <unicode hex="0028"/>
  <advance width="360"/>
  <outline>
    <contour>
      <point x="182" y="-167" type="line"/>
      <point x="142" y="-58"/>
      <point x="131" y="4"/>
      <point x="131" y="99" type="curve" smooth="yes"/>
      <point x="131" y="299"/>
      <point x="191" y="516"/>
      <point x="339" y="665" type="curve"/>
      <point x="303" y="703" type="line"/>
      <point x="98" y="518"/>
      <point x="24" y="387"/>
      <point x="24" y="200" type="curve" smooth="yes"/>
      <point x="24" y="67"/>
      <point x="43" y="-24"/>
      <point x="133" y="-186" type="curve"/>
    </contour>
  </outline>
</glyph>
<glyph name="parenright" format="1">
  <unicode hex="0029"/>
  <advance width="358"/>
  <outline>
    <contour>
      <point x="54" y="-188" type="line"/>
      <point x="252" y="-17"/>
      <point x="334" y="127"/>
      <point x="334" y="316" type="curve" smooth="yes"/>
      <point x="334" y="442"/>
      <point x="309" y="550"/>
      <point x="227" y="698" type="curve"/>
      <point x="174" y="685" type="line"/>
      <point x="212" y="596"/>
      <point x="229" y="513"/>
      <point x="229" y="414" type="curve" smooth="yes"/>
      <point x="229" y="204"/>
      <point x="168" y="2"/>
      <point x="21" y="-151" type="curve"/>
    </contour>
  </outline>
</glyph>
<glyph name="asterisk" format="1">
  <unicode hex="002A"/>
  <advance width="472"/>
  <outline>
    <contour>
      <point x="85" y="446" type="curve"/>
      <point x="73" y="445"/>
      <point x="61" y="442"/>
      <point x="54" y="438" type="curve"/>
      <point x="34" y="430"/>
      <point x="24" y="412"/>
      <point x="24" y="396" type="curve" smooth="yes"/>
      <point x="24" y="387"/>
      <point x="27" y="377"/>
      <point x="35" y="366" type="curve"/>
      <point x="45" y="349"/>
      <point x="63" y="339"/>
      <point x="85" y="339" type="curve" smooth="yes"/>
      <point x="96" y="339"/>
      <point x="106" y="342"/>
      <point x="114" y="347" type="curve" smooth="yes"/>
      <point x="121" y="351"/>
      <point x="126" y="356"/>
      <point x="129" y="360" type="curve" smooth="yes"/>
      <point x="135" y="366" type="line" smooth="yes"/>
      <point x="168" y="399"/>
      <point x="179" y="409"/>
      <point x="204" y="426" type="curve" name="hr01"/>
      <point x="202" y="395"/>
      <point x="199" y="382"/>
      <point x="184" y="339" type="curve" smooth="yes"/>
      <point x="181" y="331" type="line" smooth="yes"/>
      <point x="178" y="323"/>
      <point x="177" y="317"/>
      <point x="177" y="311" type="curve" smooth="yes" name="hr02"/>
      <point x="177" y="283"/>
      <point x="202" y="260"/>
      <point x="236" y="260" type="curve" smooth="yes"/>
      <point x="272" y="260"/>
      <point x="296" y="283"/>
      <point x="296" y="311" type="curve" smooth="yes"/>
      <point x="296" y="317"/>
      <point x="294" y="323"/>
      <point x="292" y="331" type="curve" smooth="yes"/>
      <point x="289" y="339" type="line" smooth="yes"/>
      <point x="272" y="382"/>
      <point x="269" y="395"/>
      <point x="267" y="427" type="curve" name="hr03"/>
      <point x="294" y="410"/>
      <point x="304" y="400"/>
      <point x="338" y="365" type="curve"/>
      <point x="338" y="365"/>
      <point x="341" y="362"/>
      <point x="343" y="359" type="curve" smooth="yes"/>
      <point x="346" y="355"/>
      <point x="350" y="351"/>
      <point x="357" y="348" type="curve"/>
      <point x="365" y="342"/>
      <point x="376" y="339"/>
      <point x="387" y="339" type="curve" smooth="yes"/>
      <point x="407" y="339"/>
      <point x="427" y="349"/>
      <point x="438" y="367" type="curve" smooth="yes"/>
      <point x="444" y="378"/>
      <point x="447" y="387"/>
      <point x="447" y="395" type="curve" smooth="yes" name="hr04"/>
      <point x="447" y="412"/>
      <point x="436" y="428"/>
      <point x="416" y="438" type="curve"/>
      <point x="419" y="437" type="line"/>
      <point x="413" y="442"/>
      <point x="399" y="445"/>
      <point x="385" y="446" type="curve"/>
      <point x="387" y="446" type="line"/>
      <point x="337" y="455"/>
      <point x="324" y="460"/>
      <point x="293" y="475" type="curve"/>
      <point x="326" y="491"/>
      <point x="339" y="495"/>
      <point x="388" y="504" type="curve"/>
      <point x="399" y="505"/>
      <point x="412" y="508"/>
      <point x="418" y="512" type="curve"/>
      <point x="417" y="512" type="line"/>
      <point x="438" y="523"/>
      <point x="448" y="539"/>
      <point x="448" y="555" type="curve" smooth="yes"/>
      <point x="448" y="564"/>
      <point x="445" y="574"/>
      <point x="437" y="585" type="curve"/>
      <point x="438" y="584" type="line"/>
      <point x="428" y="601"/>
      <point x="408" y="610"/>
      <point x="388" y="610" type="curve" smooth="yes"/>
      <point x="377" y="610"/>
      <point x="367" y="608"/>
      <point x="357" y="602" type="curve" smooth="yes"/>
      <point x="352" y="598"/>
      <point x="347" y="595"/>
      <point x="343" y="591" type="curve" smooth="yes"/>
      <point x="337" y="583" type="line"/>
      <point x="305" y="551"/>
      <point x="295" y="541"/>
      <point x="269" y="524" type="curve"/>
      <point x="271" y="555"/>
      <point x="273" y="569"/>
      <point x="289" y="612" type="curve"/>
      <point x="288" y="611" type="line"/>
      <point x="293" y="621"/>
      <point x="297" y="632"/>
      <point x="297" y="640" type="curve" smooth="yes"/>
      <point x="297" y="669"/>
      <point x="272" y="690"/>
      <point x="237" y="690" type="curve" smooth="yes"/>
      <point x="203" y="690"/>
      <point x="178" y="669"/>
      <point x="178" y="640" type="curve"/>
      <point x="178" y="640"/>
      <point x="181" y="627"/>
      <point x="184" y="618" type="curve" smooth="yes"/>
      <point x="185" y="616"/>
      <point x="185" y="613"/>
      <point x="185" y="611" type="curve"/>
      <point x="185" y="612" type="line"/>
      <point x="201" y="568"/>
      <point x="204" y="554"/>
      <point x="206" y="523" type="curve"/>
      <point x="180" y="539"/>
      <point x="168" y="548"/>
      <point x="136" y="582" type="curve"/>
      <point x="131" y="589" type="line"/>
      <point x="125" y="595"/>
      <point x="140" y="596"/>
      <point x="110" y="603" type="curve"/>
      <point x="103" y="607"/>
      <point x="93" y="609"/>
      <point x="85" y="609" type="curve" smooth="yes"/>
      <point x="64" y="609"/>
      <point x="45" y="600"/>
      <point x="35" y="583" type="curve"/>
      <point x="36" y="584" type="line"/>
      <point x="28" y="573"/>
      <point x="25" y="563"/>
      <point x="25" y="554" type="curve" smooth="yes"/>
      <point x="25" y="537"/>
      <point x="37" y="523"/>
      <point x="53" y="513" type="curve"/>
      <point x="65" y="509"/>
      <point x="80" y="504"/>
      <point x="85" y="503" type="curve" smooth="yes"/>
      <point x="134" y="493"/>
      <point x="148" y="489"/>
      <point x="180" y="475" type="curve"/>
      <point x="147" y="459"/>
      <point x="132" y="455"/>
    </contour>
  </outline>
</glyph>
<glyph name="plus" format="1">
  <unicode hex="002B"/>
  <advance width="583"/>
  <outline>
    <contour>
      <point x="21" y="220" type="line"/>
      <point x="239" y="220" type="line"/>
      <point x="239" y="0" type="line"/>
      <point x="344" y="0" type="line"/>
      <point x="344" y="220" type="line"/>
      <point x="562" y="220" type="line"/>
      <point x="562" y="313" type="line"/>
      <point x="344" y="313" type="line"/>
      <point x="344" y="533" type="line"/>
      <point x="239" y="533" type="line"/>
      <point x="239" y="313" type="line"/>
      <point x="21" y="313" type="line"/>
    </contour>
  </outline>
</glyph>
<glyph name="comma" format="1">
  <unicode hex="002C"/>
  <advance width="229"/>
  <outline>
    <contour>
      <point x="46" y="-137" type="line"/>
      <point x="152" y="-80"/>
      <point x="206" y="-15"/>
      <point x="206" y="44" type="curve" smooth="yes"/>
      <point x="206" y="89"/>
      <point x="169" y="129"/>
      <point x="127" y="129" type="curve" smooth="yes"/>
      <point x="87" y="129"/>
      <point x="58" y="105"/>
      <point x="58" y="70" type="curve" smooth="yes"/>
      <point x="58" y="49"/>
      <point x="73" y="29"/>
      <point x="88" y="12" type="curve" smooth="yes"/>
      <point x="95" y="3"/>
      <point x="102" y="-6"/>
      <point x="102" y="-9" type="curve" smooth="yes"/>
      <point x="102" y="-31"/>
      <point x="82" y="-55"/>
      <point x="24" y="-92" type="curve"/>
    </contour>
  </outline>
</glyph>
<glyph name="hyphen" format="1">
  <unicode hex="002D"/>
  <unicode hex="00AD"/>
  <advance width="367"/>
  <outline>
    <contour>
      <point x="340" y="232" type="line"/>
      <point x="340" y="328" type="line"/>
      <point x="27" y="328" type="line"/>
      <point x="27" y="232" type="line"/>
    </contour>
  </outline>
</glyph>
<glyph name="period" format="1">
  <unicode hex="002E"/>
  <advance width="200"/>
  <outline>
    <contour>
      <point x="99" y="128" type="curve" smooth="yes"/>
      <point x="58" y="128"/>
      <point x="25" y="97"/>
      <point x="25" y="58" type="curve" smooth="yes"/>
      <point x="25" y="24"/>
      <point x="58" y="-12"/>
      <point x="97" y="-12" type="curve" smooth="yes"/>
      <point x="137" y="-12"/>
      <point x="174" y="19"/>
      <point x="174" y="58" type="curve" smooth="yes"/>
      <point x="174" y="95"/>
      <point x="140" y="128"/>
    </contour>
  </outline>
</glyph>
<glyph name="slash" format="1">
  <unicode hex="002F"/>
  <advance width="548"/>
  <outline>
    <contour>
      <point x="412" y="691" type="line"/>
      <point x="21" y="-18" type="line"/>
      <point x="136" y="-18" type="line"/>
      <point x="527" y="691" type="line"/>
    </contour>
  </outline>
</glyph>
<glyph name="zero" format="1">
  <unicode hex="0030"/>
  <advance width="494"/>
  <outline>
    <contour>
      <point x="327" y="702" type="curve" smooth="yes"/>
      <point x="160" y="702"/>
      <point x="0" y="466"/>
      <point x="0" y="226" type="curve" smooth="yes"/>
      <point x="0" y="86"/>
      <point x="71" y="-8"/>
      <point x="179" y="-8" type="curve" smooth="yes"/>
      <point x="351" y="-8"/>
      <point x="501" y="225"/>
      <point x="501" y="435" type="curve" smooth="yes"/>
      <point x="501" y="602"/>
      <point x="435" y="702"/>
    </contour>
    <contour>
      <point x="320" y="645" type="curve"/>
      <point x="361" y="645"/>
      <point x="383" y="604"/>
      <point x="383" y="534" type="curve" smooth="yes"/>
      <point x="383" y="324"/>
      <point x="294" y="51"/>
      <point x="182" y="51" type="curve" smooth="yes"/>
      <point x="142" y="51"/>
      <point x="117" y="92"/>
      <point x="117" y="170" type="curve" smooth="yes"/>
      <point x="117" y="359"/>
      <point x="213" y="642"/>
    </contour>
  </outline>
</glyph>
<glyph name="one" format="1">
  <unicode hex="0031"/>
  <advance width="389"/>
  <outline>
    <contour>
      <point x="161" y="619" type="line"/>
      <point x="242" y="622" type="line"/>
      <point x="251" y="621"/>
      <point x="256" y="616"/>
      <point x="256" y="606" type="curve" smooth="yes"/>
      <point x="256" y="601"/>
      <point x="255" y="597"/>
      <point x="253" y="590" type="curve" smooth="yes"/>
      <point x="252" y="586"/>
      <point x="249" y="579"/>
      <point x="248" y="573" type="curve"/>
      <point x="249" y="575" type="line"/>
      <point x="112" y="85" type="line" smooth="yes"/>
      <point x="104" y="57"/>
      <point x="82" y="49"/>
      <point x="0" y="41" type="curve"/>
      <point x="0" y="0" type="line"/>
      <point x="315" y="0" type="line"/>
      <point x="315" y="44" type="line"/>
      <point x="281" y="44" type="line" smooth="yes"/>
      <point x="246" y="44"/>
      <point x="230" y="49"/>
      <point x="230" y="61" type="curve" smooth="yes"/>
      <point x="230" y="69"/>
      <point x="236" y="91"/>
      <point x="345" y="487" type="curve"/>
      <point x="359" y="535"/>
      <point x="374" y="593"/>
      <point x="390" y="652" type="curve" smooth="yes"/>
      <point x="391" y="657"/>
      <point x="391" y="661"/>
      <point x="392" y="663" type="curve" smooth="yes"/>
      <point x="395" y="672"/>
      <point x="396" y="677"/>
      <point x="396" y="680" type="curve" smooth="yes"/>
      <point x="396" y="690"/>
      <point x="388" y="702"/>
      <point x="365" y="702" type="curve"/>
      <point x="313" y="690"/>
      <point x="293" y="686"/>
      <point x="252" y="678" type="curve" smooth="yes"/>
      <point x="233" y="674"/>
      <point x="195" y="667"/>
      <point x="161" y="661" type="curve"/>
    </contour>
  </outline>
</glyph>
<glyph name="two" format="1">
  <unicode hex="0032"/>
  <advance width="469"/>
  <outline>
    <contour>
      <point x="396" y="175" type="line"/>
      <point x="368" y="119"/>
      <point x="350" y="104"/>
      <point x="306" y="104" type="curve" smooth="yes"/>
      <point x="154" y="104" type="line"/>
      <point x="322" y="277" type="line"/>
      <point x="442" y="404"/>
      <point x="476" y="446"/>
      <point x="476" y="520" type="curve" smooth="yes"/>
      <point x="476" y="621"/>
      <point x="396" y="702"/>
      <point x="295" y="702" type="curve" smooth="yes"/>
      <point x="186" y="702"/>
      <point x="107" y="638"/>
      <point x="64" y="519" type="curve"/>
      <point x="118" y="504" type="line"/>
      <point x="158" y="571"/>
      <point x="197" y="600"/>
      <point x="247" y="600" type="curve" smooth="yes"/>
      <point x="307" y="600"/>
      <point x="352" y="554"/>
      <point x="352" y="495" type="curve" smooth="yes"/>
      <point x="352" y="421"/>
      <point x="293" y="350"/>
      <point x="214" y="264" type="curve"/>
      <point x="0" y="36" type="line"/>
      <point x="0" y="0" type="line"/>
      <point x="387" y="0" type="line"/>
      <point x="444" y="152" type="line"/>
    </contour>
  </outline>
</glyph>
<glyph name="three" format="1">
  <unicode hex="0033"/>
  <advance width="480"/>
  <outline>
    <contour>
      <point x="190" y="562" type="line"/>
      <point x="229" y="610"/>
      <point x="257" y="631"/>
      <point x="292" y="631" type="curve" smooth="yes"/>
      <point x="335" y="631"/>
      <point x="362" y="602"/>
      <point x="362" y="554" type="curve" smooth="yes"/>
      <point x="362" y="480"/>
      <point x="293" y="431"/>
      <point x="125" y="402" type="curve"/>
      <point x="125" y="360" type="line"/>
      <point x="168" y="360" type="line" smooth="yes"/>
      <point x="259" y="360"/>
      <point x="308" y="306"/>
      <point x="308" y="207" type="curve" smooth="yes" name="hr01"/>
      <point x="308" y="127"/>
      <point x="263" y="59"/>
      <point x="197" y="59" type="curve" smooth="yes"/>
      <point x="189" y="59"/>
      <point x="166" y="73"/>
      <point x="142" y="86" type="curve" smooth="yes"/>
      <point x="113" y="103"/>
      <point x="84" y="119"/>
      <point x="63" y="119" type="curve" smooth="yes" name="hr02"/>
      <point x="19" y="119"/>
      <point x="0" y="99"/>
      <point x="0" y="67" type="curve" smooth="yes"/>
      <point x="0" y="21"/>
      <point x="48" y="-8"/>
      <point x="131" y="-8" type="curve" smooth="yes"/>
      <point x="303" y="-8"/>
      <point x="427" y="115"/>
      <point x="427" y="263" type="curve" smooth="yes"/>
      <point x="427" y="330"/>
      <point x="403" y="377"/>
      <point x="346" y="410" type="curve"/>
      <point x="454" y="455"/>
      <point x="487" y="493"/>
      <point x="487" y="561" type="curve" smooth="yes" name="hr03"/>
      <point x="487" y="642"/>
      <point x="420" y="702"/>
      <point x="327" y="702" type="curve" smooth="yes"/>
      <point x="252" y="702"/>
      <point x="180" y="654"/>
      <point x="140" y="576" type="curve"/>
    </contour>
  </outline>
</glyph>
<glyph name="four" format="1">
  <unicode hex="0034"/>
  <advance width="517"/>
  <outline>
    <contour>
      <point x="497" y="268" type="line"/>
      <point x="403" y="268" type="line"/>
      <point x="524" y="702" type="line"/>
      <point x="451" y="702" type="line"/>
      <point x="27" y="263" type="line"/>
      <point x="0" y="177" type="line"/>
      <point x="262" y="177" type="line"/>
      <point x="213" y="0" type="line"/>
      <point x="330" y="0" type="line"/>
      <point x="376" y="175" type="line"/>
      <point x="478" y="175" type="line"/>
    </contour>
    <contour>
      <point x="124" y="268" type="line"/>
      <point x="357" y="515" type="line"/>
      <point x="285" y="268" type="line"/>
    </contour>
  </outline>
</glyph>
<glyph name="five" format="1">
  <unicode hex="0035"/>
  <advance width="511"/>
  <outline>
    <contour>
      <point x="486" y="593" type="line"/>
      <point x="518" y="691" type="line"/>
      <point x="225" y="691" type="line"/>
      <point x="115" y="462" type="line"/>
      <point x="115" y="434" type="line"/>
      <point x="293" y="394"/>
      <point x="334" y="356"/>
      <point x="334" y="255" type="curve" smooth="yes"/>
      <point x="334" y="154"/>
      <point x="264" y="63"/>
      <point x="183" y="63" type="curve" smooth="yes"/>
      <point x="171" y="63"/>
      <point x="147" y="78"/>
      <point x="125" y="91" type="curve" smooth="yes"/>
      <point x="101" y="105"/>
      <point x="78" y="118"/>
      <point x="60" y="118" type="curve" smooth="yes" name="hr01"/>
      <point x="24" y="118"/>
      <point x="0" y="94"/>
      <point x="0" y="65" type="curve" smooth="yes"/>
      <point x="0" y="22"/>
      <point x="46" y="-8"/>
      <point x="125" y="-8" type="curve" smooth="yes"/>
      <point x="298" y="-8"/>
      <point x="440" y="126"/>
      <point x="440" y="293" type="curve" smooth="yes"/>
      <point x="440" y="405"/>
      <point x="383" y="482"/>
      <point x="226" y="528" type="curve"/>
      <point x="254" y="593" type="line"/>
    </contour>
  </outline>
</glyph>
<glyph name="six" format="1">
  <unicode hex="0036"/>
  <advance width="520"/>
  <outline>
    <contour>
      <point x="527" y="714" type="line"/>
      <point x="198" y="676"/>
      <point x="0" y="456"/>
      <point x="0" y="217" type="curve" smooth="yes"/>
      <point x="0" y="81"/>
      <point x="79" y="-8"/>
      <point x="201" y="-8" type="curve" smooth="yes"/>
      <point x="345" y="-8"/>
      <point x="469" y="124"/>
      <point x="469" y="285" type="curve" smooth="yes"/>
      <point x="469" y="393"/>
      <point x="392" y="475"/>
      <point x="280" y="475" type="curve" smooth="yes"/>
      <point x="263" y="475"/>
      <point x="243" y="472"/>
      <point x="224" y="466" type="curve"/>
      <point x="295" y="572"/>
      <point x="416" y="656"/>
      <point x="527" y="668" type="curve"/>
    </contour>
    <contour>
      <point x="247" y="408" type="line" smooth="yes"/>
      <point x="306" y="408"/>
      <point x="341" y="364"/>
      <point x="341" y="297" type="curve" smooth="yes"/>
      <point x="341" y="179"/>
      <point x="279" y="48"/>
      <point x="192" y="48" type="curve" smooth="yes"/>
      <point x="144" y="48"/>
      <point x="114" y="89"/>
      <point x="114" y="164" type="curve" smooth="yes"/>
      <point x="114" y="292"/>
      <point x="163" y="408"/>
      <point x="244" y="408" type="curve" smooth="yes"/>
    </contour>
  </outline>
</glyph>
<glyph name="seven" format="1">
  <unicode hex="0037"/>
  <advance width="499"/>
  <outline>
    <contour>
      <point x="506" y="667" type="line"/>
      <point x="492" y="691" type="line"/>
      <point x="94" y="691" type="line"/>
      <point x="2" y="538" type="line"/>
      <point x="42" y="513" type="line"/>
      <point x="99" y="572"/>
      <point x="120" y="591"/>
      <point x="173" y="591" type="curve" smooth="yes"/>
      <point x="367" y="591" type="line"/>
      <point x="0" y="-9" type="line"/>
      <point x="113" y="-9" type="line"/>
    </contour>
  </outline>
</glyph>
<glyph name="eight" format="1">
  <unicode hex="0038"/>
  <advance width="492"/>
  <outline>
    <contour>
      <point x="499" y="547" type="curve" smooth="yes"/>
      <point x="499" y="640"/>
      <point x="416" y="702"/>
      <point x="306" y="702" type="curve" smooth="yes"/>
      <point x="189" y="702"/>
      <point x="108" y="636"/>
      <point x="108" y="538" type="curve" smooth="yes"/>
      <point x="108" y="485"/>
      <point x="126" y="446"/>
      <point x="186" y="379" type="curve"/>
      <point x="65" y="333"/>
      <point x="0" y="263"/>
      <point x="0" y="175" type="curve" smooth="yes"/>
      <point x="0" y="61"/>
      <point x="93" y="-8"/>
      <point x="217" y="-8" type="curve" smooth="yes"/>
      <point x="353" y="-8"/>
      <point x="450" y="73"/>
      <point x="450" y="186" type="curve" smooth="yes" name="hr01"/>
      <point x="450" y="251"/>
      <point x="425" y="308"/>
      <point x="345" y="389" type="curve"/>
      <point x="456" y="430"/>
      <point x="499" y="478"/>
    </contour>
    <contour>
      <point x="337" y="169" type="curve" smooth="yes" name="hr03"/>
      <point x="337" y="97"/>
      <point x="288" y="44"/>
      <point x="221" y="44" type="curve" smooth="yes"/>
      <point x="152" y="44"/>
      <point x="106" y="93"/>
      <point x="106" y="169" type="curve" smooth="yes"/>
      <point x="106" y="242"/>
      <point x="148" y="304"/>
      <point x="229" y="338" type="curve"/>
      <point x="325" y="238"/>
      <point x="337" y="222"/>
    </contour>
    <contour>
      <point x="223" y="551" type="curve" smooth="yes"/>
      <point x="223" y="614"/>
      <point x="254" y="650"/>
      <point x="306" y="650" type="curve" smooth="yes"/>
      <point x="359" y="650"/>
      <point x="393" y="610"/>
      <point x="393" y="547" type="curve" smooth="yes" name="hr04"/>
      <point x="393" y="494"/>
      <point x="371" y="463"/>
      <point x="302" y="430" type="curve"/>
      <point x="238" y="489"/>
      <point x="223" y="517"/>
    </contour>
  </outline>
</glyph>
<glyph name="nine" format="1">
  <unicode hex="0039"/>
  <advance width="498"/>
  <outline>
    <contour>
      <point x="0" y="-21" type="line"/>
      <point x="323" y="32"/>
      <point x="505" y="240"/>
      <point x="505" y="470" type="curve" smooth="yes"/>
      <point x="505" y="609"/>
      <point x="426" y="702"/>
      <point x="306" y="702" type="curve" smooth="yes"/>
      <point x="168" y="702"/>
      <point x="45" y="568"/>
      <point x="45" y="420" type="curve" smooth="yes"/>
      <point x="45" y="307"/>
      <point x="114" y="228"/>
      <point x="214" y="228" type="curve" smooth="yes"/>
      <point x="247" y="228"/>
      <point x="275" y="233"/>
      <point x="308" y="248" type="curve"/>
      <point x="251" y="158"/>
      <point x="118" y="46"/>
      <point x="0" y="27" type="curve"/>
    </contour>
    <contour>
      <point x="313" y="647" type="curve" smooth="yes"/>
      <point x="363" y="647"/>
      <point x="391" y="604"/>
      <point x="391" y="529" type="curve" smooth="yes"/>
      <point x="391" y="375"/>
      <point x="338" y="303"/>
      <point x="252" y="303" type="curve" smooth="yes"/>
      <point x="199" y="303"/>
      <point x="172" y="347"/>
      <point x="172" y="426" type="curve" smooth="yes"/>
      <point x="172" y="532"/>
      <point x="224" y="647"/>
    </contour>
  </outline>
</glyph>
<glyph name="colon" format="1">
  <unicode hex="003A"/>
  <advance width="293"/>
  <outline>
    <contour>
      <point x="194" y="468" type="curve" smooth="yes"/>
      <point x="153" y="468"/>
      <point x="122" y="436"/>
      <point x="122" y="397" type="curve" smooth="yes"/>
      <point x="122" y="360"/>
      <point x="151" y="328"/>
      <point x="194" y="328" type="curve" smooth="yes"/>
      <point x="236" y="328"/>
      <point x="270" y="360"/>
      <point x="270" y="397" type="curve" smooth="yes"/>
      <point x="270" y="436"/>
      <point x="236" y="468"/>
    </contour>
    <contour>
      <point x="97" y="128" type="curve" smooth="yes"/>
      <point x="54" y="128"/>
      <point x="23" y="95"/>
      <point x="23" y="58" type="curve" smooth="yes" name="hr01"/>
      <point x="23" y="24"/>
      <point x="53" y="-12"/>
      <point x="95" y="-12" type="curve" smooth="yes"/>
      <point x="139" y="-12"/>
      <point x="170" y="19"/>
      <point x="170" y="58" type="curve" smooth="yes"/>
      <point x="170" y="95"/>
      <point x="140" y="128"/>
    </contour>
  </outline>
</glyph>
<glyph name="semicolon" format="1">
  <unicode hex="003B"/>
  <advance width="327"/>
  <outline>
    <contour>
      <point x="47" y="-146" type="line"/>
      <point x="152" y="-84"/>
      <point x="211" y="-17"/>
      <point x="211" y="46" type="curve" smooth="yes"/>
      <point x="211" y="93"/>
      <point x="179" y="136"/>
      <point x="131" y="136" type="curve" smooth="yes"/>
      <point x="87" y="136"/>
      <point x="57" y="109"/>
      <point x="57" y="72" type="curve" smooth="yes"/>
      <point x="57" y="53"/>
      <point x="73" y="34"/>
      <point x="88" y="16" type="curve" smooth="yes"/>
      <point x="97" y="6"/>
      <point x="106" y="-5"/>
      <point x="106" y="-11" type="curve" smooth="yes" name="hr01"/>
      <point x="106" y="-35"/>
      <point x="82" y="-60"/>
      <point x="22" y="-100" type="curve"/>
    </contour>
    <contour>
      <point x="229" y="468" type="curve" smooth="yes"/>
      <point x="188" y="468"/>
      <point x="157" y="436"/>
      <point x="157" y="397" type="curve" smooth="yes" name="hr02"/>
      <point x="157" y="360"/>
      <point x="186" y="328"/>
      <point x="229" y="328" type="curve" smooth="yes"/>
      <point x="271" y="328"/>
      <point x="305" y="360"/>
      <point x="305" y="397" type="curve" smooth="yes"/>
      <point x="305" y="436"/>
      <point x="271" y="468"/>
    </contour>
  </outline>
</glyph>
<glyph name="less" format="1">
  <unicode hex="003C"/>
  <advance width="595"/>
  <outline>
    <contour>
      <point x="570" y="-22" type="line"/>
      <point x="570" y="84" type="line"/>
      <point x="169" y="267" type="line"/>
      <point x="570" y="448" type="line"/>
      <point x="570" y="553" type="line"/>
      <point x="25" y="307" type="line"/>
      <point x="25" y="225" type="line"/>
    </contour>
  </outline>
</glyph>
<glyph name="equal" format="1">
  <unicode hex="003D"/>
  <advance width="592"/>
  <outline>
    <contour>
      <point x="568" y="413" type="line"/>
      <point x="27" y="413" type="line"/>
      <point x="27" y="317" type="line"/>
      <point x="568" y="317" type="line"/>
    </contour>
    <contour>
      <point x="568" y="214" type="line"/>
      <point x="27" y="214" type="line"/>
      <point x="27" y="119" type="line"/>
      <point x="568" y="119" type="line"/>
    </contour>
  </outline>
</glyph>
<glyph name="greater" format="1">
  <unicode hex="003E"/>
  <advance width="595"/>
  <outline>
    <contour>
      <point x="25" y="-22" type="line"/>
      <point x="570" y="225" type="line"/>
      <point x="570" y="307" type="line"/>
      <point x="25" y="553" type="line"/>
      <point x="25" y="448" type="line"/>
      <point x="425" y="267" type="line"/>
      <point x="25" y="84" type="line"/>
    </contour>
  </outline>
</glyph>
<glyph name="question" format="1">
  <unicode hex="003F"/>
  <advance width="424"/>
  <outline>
    <contour>
      <point x="143" y="171" type="line"/>
      <point x="154" y="212" type="line"/>
      <point x="166" y="265"/>
      <point x="196" y="301"/>
      <point x="262" y="356" type="curve"/>
      <point x="380" y="450"/>
      <point x="402" y="481"/>
      <point x="402" y="547" type="curve" smooth="yes"/>
      <point x="402" y="635"/>
      <point x="337" y="689"/>
      <point x="235" y="689" type="curve" smooth="yes"/>
      <point x="139" y="689"/>
      <point x="77" y="640"/>
      <point x="77" y="567" type="curve" smooth="yes"/>
      <point x="77" y="526"/>
      <point x="98" y="505"/>
      <point x="136" y="505" type="curve" smooth="yes"/>
      <point x="171" y="505"/>
      <point x="195" y="525"/>
      <point x="195" y="553" type="curve" smooth="yes"/>
      <point x="195" y="565"/>
      <point x="189" y="572"/>
      <point x="186" y="584" type="curve"/>
      <point x="182" y="593"/>
      <point x="179" y="602"/>
      <point x="179" y="606" type="curve" smooth="yes"/>
      <point x="179" y="627"/>
      <point x="198" y="639"/>
      <point x="230" y="639" type="curve" smooth="yes" name="hr01"/>
      <point x="268" y="639"/>
      <point x="290" y="616"/>
      <point x="290" y="569" type="curve" smooth="yes"/>
      <point x="290" y="521"/>
      <point x="271" y="482"/>
      <point x="209" y="415" type="curve"/>
      <point x="121" y="316"/>
      <point x="110" y="287"/>
      <point x="89" y="176" type="curve"/>
    </contour>
    <contour>
      <point x="96" y="122" type="curve" smooth="yes"/>
      <point x="56" y="122"/>
      <point x="25" y="92"/>
      <point x="25" y="55" type="curve" smooth="yes"/>
      <point x="25" y="15"/>
      <point x="55" y="-12"/>
      <point x="97" y="-12" type="curve" smooth="yes"/>
      <point x="136" y="-12"/>
      <point x="168" y="18"/>
      <point x="168" y="55" type="curve" smooth="yes"/>
      <point x="168" y="90"/>
      <point x="137" y="122"/>
    </contour>
  </outline>
</glyph>
<glyph name="at" format="1">
  <unicode hex="0040"/>
  <advance width="774"/>
  <outline>
    <contour>
      <point x="440" y="526" type="curve" smooth="yes"/>
      <point x="313" y="526"/>
      <point x="227" y="380"/>
      <point x="227" y="264" type="curve" smooth="yes"/>
      <point x="227" y="191"/>
      <point x="274" y="139"/>
      <point x="335" y="139" type="curve" smooth="yes"/>
      <point x="375" y="139"/>
      <point x="414" y="156"/>
      <point x="450" y="189" type="curve"/>
      <point x="467" y="157"/>
      <point x="503" y="138"/>
      <point x="547" y="138" type="curve" smooth="yes"/>
      <point x="656" y="138"/>
      <point x="749" y="255"/>
      <point x="749" y="388" type="curve" smooth="yes"/>
      <point x="749" y="558"/>
      <point x="598" y="691"/>
      <point x="407" y="691" type="curve" smooth="yes"/>
      <point x="194" y="691"/>
      <point x="25" y="531"/>
      <point x="25" y="332" type="curve" smooth="yes"/>
      <point x="25" y="135"/>
      <point x="192" y="-18"/>
      <point x="409" y="-18" type="curve" smooth="yes"/>
      <point x="483" y="-18"/>
      <point x="540" y="-2"/>
      <point x="645" y="47" type="curve"/>
      <point x="620" y="104" type="line"/>
      <point x="532" y="60"/>
      <point x="480" y="51"/>
      <point x="419" y="51" type="curve" smooth="yes"/>
      <point x="259" y="51"/>
      <point x="146" y="165"/>
      <point x="146" y="326" type="curve" smooth="yes"/>
      <point x="146" y="502"/>
      <point x="255" y="632"/>
      <point x="407" y="632" type="curve" smooth="yes"/>
      <point x="550" y="632"/>
      <point x="670" y="516"/>
      <point x="670" y="380" type="curve" smooth="yes"/>
      <point x="670" y="286"/>
      <point x="618" y="198"/>
      <point x="559" y="198" type="curve" smooth="yes"/>
      <point x="548" y="198"/>
      <point x="542" y="208"/>
      <point x="542" y="226" type="curve" smooth="yes"/>
      <point x="542" y="231"/>
      <point x="543" y="237"/>
      <point x="545" y="245" type="curve"/>
      <point x="544" y="245" type="line"/>
      <point x="613" y="513" type="line"/>
      <point x="506" y="513" type="line"/>
      <point x="503" y="504" type="line"/>
      <point x="487" y="522"/>
      <point x="470" y="526"/>
    </contour>
    <contour>
      <point x="476" y="414" type="curve"/>
      <point x="476" y="408" type="line"/>
      <point x="471" y="303"/>
      <point x="423" y="209"/>
      <point x="376" y="209" type="curve" smooth="yes"/>
      <point x="350" y="209"/>
      <point x="338" y="235"/>
      <point x="338" y="279" type="curve" smooth="yes"/>
      <point x="338" y="361"/>
      <point x="395" y="454"/>
      <point x="450" y="454" type="curve" smooth="yes"/>
      <point x="454" y="454" type="line"/>
      <point x="467" y="451"/>
      <point x="476" y="438"/>
    </contour>
  </outline>
</glyph>
<glyph name="C" format="1">
  <unicode hex="0043"/>
  <advance width="656"/>
  <outline>
    <contour>
      <point x="620" y="460" type="line"/>
      <point x="663" y="689" type="line"/>
      <point x="605" y="689" type="line"/>
      <point x="599" y="674"/>
      <point x="591" y="667"/>
      <point x="580" y="667" type="curve" smooth="yes"/>
      <point x="567" y="667"/>
      <point x="538" y="673"/>
      <point x="509" y="679" type="curve" smooth="yes"/>
      <point x="479" y="685"/>
      <point x="449" y="691"/>
      <point x="424" y="691" type="curve" smooth="yes" name="hr01"/>
      <point x="201" y="691"/>
      <point x="0" y="488"/>
      <point x="0" y="256" type="curve" smooth="yes"/>
      <point x="0" y="96"/>
      <point x="116" y="-18"/>
      <point x="279" y="-18" type="curve" smooth="yes"/>
      <point x="387" y="-18"/>
      <point x="478" y="28"/>
      <point x="576" y="147" type="curve"/>
      <point x="533" y="182" type="line"/>
      <point x="436" y="88"/>
      <point x="381" y="56"/>
      <point x="306" y="56" type="curve" smooth="yes"/>
      <point x="206" y="56"/>
      <point x="151" y="125"/>
      <point x="151" y="245" type="curve" smooth="yes"/>
      <point x="151" y="427"/>
      <point x="263" y="626"/>
      <point x="434" y="626" type="curve" smooth="yes"/>
      <point x="512" y="626"/>
      <point x="557" y="574"/>
      <point x="567" y="469" type="curve"/>
    </contour>
  </outline>
</glyph>
<glyph name="F" format="1">
  <unicode hex="0046"/>
  <advance width="668"/>
  <outline>
    <contour>
      <point x="675" y="679" type="line"/>
      <point x="138" y="679" type="line"/>
      <point x="138" y="636" type="line"/>
      <point x="199" y="628"/>
      <point x="215" y="623"/>
      <point x="215" y="609" type="curve" smooth="yes"/>
      <point x="215" y="598"/>
      <point x="209" y="564"/>
      <point x="204" y="548" type="curve" smooth="yes"/>
      <point x="82" y="107" type="line"/>
      <point x="67" y="58"/>
      <point x="59" y="52"/>
      <point x="0" y="43" type="curve"/>
      <point x="0" y="0" type="line"/>
      <point x="289" y="0" type="line"/>
      <point x="289" y="44" type="line"/>
      <point x="229" y="47"/>
      <point x="213" y="54"/>
      <point x="213" y="74" type="curve" smooth="yes"/>
      <point x="213" y="79"/>
      <point x="215" y="88"/>
      <point x="219" y="105" type="curve"/>
      <point x="218" y="105" type="line"/>
      <point x="219" y="107"/>
      <point x="220" y="111"/>
      <point x="221" y="115" type="curve" smooth="yes"/>
      <point x="278" y="325" type="line"/>
      <point x="292" y="324"/>
      <point x="304" y="324"/>
      <point x="317" y="324" type="curve" smooth="yes"/>
      <point x="333" y="324"/>
      <point x="348" y="323"/>
      <point x="369" y="322" type="curve"/>
      <point x="396" y="322"/>
      <point x="406" y="314"/>
      <point x="406" y="293" type="curve" smooth="yes"/>
      <point x="406" y="281"/>
      <point x="405" y="272"/>
      <point x="397" y="232" type="curve"/>
      <point x="452" y="216" type="line"/>
      <point x="528" y="474" type="line"/>
      <point x="478" y="488" type="line"/>
      <point x="434" y="394"/>
      <point x="431" y="389"/>
      <point x="295" y="388" type="curve"/>
      <point x="357" y="602" type="line"/>
      <point x="357" y="601" type="line"/>
      <point x="362" y="614"/>
      <point x="371" y="618"/>
      <point x="401" y="618" type="curve" smooth="yes"/>
      <point x="550" y="618"/>
      <point x="582" y="608"/>
      <point x="582" y="558" type="curve" smooth="yes"/>
      <point x="582" y="555" type="line" smooth="yes"/>
      <point x="582" y="536"/>
      <point x="582" y="523"/>
      <point x="580" y="502" type="curve"/>
      <point x="638" y="496" type="line"/>
    </contour>
  </outline>
</glyph>
<glyph name="G" format="1">
  <unicode hex="0047"/>
  <advance width="793"/>
  <outline>
    <contour>
      <point x="736" y="682" type="line"/>
      <point x="692" y="694" type="line"/>
      <point x="672" y="669"/>
      <point x="659" y="657"/>
      <point x="640" y="657" type="curve" smooth="yes"/>
      <point x="630" y="657"/>
      <point x="600" y="665"/>
      <point x="569" y="672" type="curve"/>
      <point x="533" y="682"/>
      <point x="494" y="691"/>
      <point x="463" y="691" type="curve" smooth="yes" name="hr01"/>
      <point x="245" y="691"/>
      <point x="44" y="487"/>
      <point x="44" y="259" type="curve" smooth="yes"/>
      <point x="44" y="107"/>
      <point x="160" y="-18"/>
      <point x="348" y="-18" type="curve" smooth="yes"/>
      <point x="441" y="-18"/>
      <point x="517" y="3"/>
      <point x="601" y="50" type="curve"/>
      <point x="651" y="241" type="line" smooth="yes"/>
      <point x="663" y="289"/>
      <point x="685" y="295"/>
      <point x="749" y="303" type="curve"/>
      <point x="749" y="346" type="line"/>
      <point x="445" y="346" type="line"/>
      <point x="445" y="303" type="line"/>
      <point x="492" y="298" type="line" smooth="yes"/>
      <point x="512" y="296"/>
      <point x="522" y="291"/>
      <point x="522" y="283" type="curve" smooth="yes"/>
      <point x="522" y="249"/>
      <point x="469" y="82"/>
      <point x="466" y="80" type="curve"/>
      <point x="445" y="58"/>
      <point x="412" y="48"/>
      <point x="373" y="48" type="curve" smooth="yes"/>
      <point x="257" y="48"/>
      <point x="190" y="117"/>
      <point x="190" y="238" type="curve" smooth="yes"/>
      <point x="190" y="421"/>
      <point x="297" y="628"/>
      <point x="471" y="628" type="curve" smooth="yes"/>
      <point x="560" y="628"/>
      <point x="618" y="577"/>
      <point x="630" y="469" type="curve"/>
      <point x="681" y="460" type="line"/>
    </contour>
  </outline>
</glyph>
<glyph name="H" format="1">
  <unicode hex="0048"/>
  <advance width="804"/>
  <outline>
    <contour>
      <point x="363" y="43" type="curve"/>
      <point x="363" y="0" type="line"/>
      <point x="672" y="0" type="line"/>
      <point x="672" y="43" type="line"/>
      <point x="607" y="49"/>
      <point x="595" y="55"/>
      <point x="595" y="72" type="curve" smooth="yes"/>
      <point x="595" y="77"/>
      <point x="596" y="84"/>
      <point x="598" y="93" type="curve"/>
      <point x="597" y="92" type="line"/>
      <point x="728" y="572" type="line"/>
      <point x="742" y="620"/>
      <point x="753" y="625"/>
      <point x="811" y="637" type="curve"/>
      <point x="811" y="679" type="line"/>
      <point x="527" y="679" type="line"/>
      <point x="527" y="636" type="line"/>
      <point x="584" y="629"/>
      <point x="597" y="623"/>
      <point x="597" y="606" type="curve" smooth="yes"/>
      <point x="597" y="593"/>
      <point x="592" y="573"/>
      <point x="586" y="548" type="curve"/>
      <point x="544" y="395" type="line"/>
      <point x="298" y="395" type="line"/>
      <point x="347" y="572" type="line"/>
      <point x="357" y="616"/>
      <point x="390" y="630"/>
      <point x="448" y="636" type="curve"/>
      <point x="448" y="679" type="line"/>
      <point x="138" y="679" type="line"/>
      <point x="138" y="636" type="line"/>
      <point x="199" y="629"/>
      <point x="215" y="624"/>
      <point x="215" y="606" type="curve" smooth="yes"/>
      <point x="215" y="591"/>
      <point x="211" y="572"/>
      <point x="205" y="548" type="curve"/>
      <point x="82" y="107" type="line"/>
      <point x="69" y="57"/>
      <point x="56" y="51"/>
      <point x="0" y="42" type="curve"/>
      <point x="0" y="0" type="line"/>
      <point x="284" y="0" type="line"/>
      <point x="284" y="43" type="line"/>
      <point x="231" y="48"/>
      <point x="213" y="56"/>
      <point x="213" y="71" type="curve" smooth="yes"/>
      <point x="213" y="74"/>
      <point x="215" y="83"/>
      <point x="217" y="93" type="curve"/>
      <point x="216" y="92" type="line"/>
      <point x="278" y="324" type="line"/>
      <point x="523" y="324" type="line"/>
      <point x="464" y="107" type="line"/>
      <point x="451" y="63"/>
      <point x="426" y="49"/>
    </contour>
  </outline>
</glyph>
<glyph name="M" format="1">
  <unicode hex="004D"/>
  <advance width="851"/>
  <outline>
    <contour>
      <point x="476" y="43" type="curve"/>
      <point x="476" y="0" type="line"/>
      <point x="788" y="0" type="line"/>
      <point x="788" y="44" type="line"/>
      <point x="718" y="50"/>
      <point x="710" y="55"/>
      <point x="710" y="73" type="curve" smooth="yes"/>
      <point x="710" y="90"/>
      <point x="712" y="100"/>
      <point x="720" y="129" type="curve" smooth="yes"/>
      <point x="843" y="572" type="line"/>
      <point x="843" y="571" type="line"/>
      <point x="862" y="622"/>
      <point x="861" y="628"/>
      <point x="926" y="636" type="curve"/>
      <point x="926" y="679" type="line"/>
      <point x="729" y="679" type="line"/>
      <point x="416" y="221" type="line"/>
      <point x="332" y="679" type="line"/>
      <point x="151" y="679" type="line"/>
      <point x="151" y="635" type="line"/>
      <point x="200" y="632"/>
      <point x="225" y="624"/>
      <point x="225" y="612" type="curve" smooth="yes"/>
      <point x="225" y="604"/>
      <point x="221" y="590"/>
      <point x="99" y="164" type="curve" smooth="yes"/>
      <point x="72" y="68"/>
      <point x="52" y="49"/>
      <point x="0" y="43" type="curve"/>
      <point x="0" y="0" type="line"/>
      <point x="236" y="0" type="line"/>
      <point x="236" y="44" type="line"/>
      <point x="180" y="47"/>
      <point x="165" y="58"/>
      <point x="165" y="77" type="curve" smooth="yes"/>
      <point x="165" y="90"/>
      <point x="169" y="105"/>
      <point x="172" y="123" type="curve"/>
      <point x="265" y="464" type="line"/>
      <point x="347" y="-18" type="line" name="hr01"/>
      <point x="678" y="471" type="line"/>
      <point x="579" y="108" type="line"/>
      <point x="566" y="64"/>
      <point x="543" y="49"/>
    </contour>
  </outline>
</glyph>
<glyph name="Q" format="1">
  <unicode hex="0051"/>
  <advance width="673"/>
  <outline>
    <contour>
      <point x="680" y="443" type="curve" smooth="yes"/>
      <point x="680" y="590"/>
      <point x="576" y="691"/>
      <point x="432" y="691" type="curve" smooth="yes"/>
      <point x="219" y="691"/>
      <point x="4" y="441"/>
      <point x="4" y="235" type="curve" smooth="yes"/>
      <point x="4" y="117"/>
      <point x="59" y="32"/>
      <point x="167" y="-5" type="curve"/>
      <point x="92" y="-72"/>
      <point x="79" y="-81"/>
      <point x="0" y="-136" type="curve"/>
      <point x="26" y="-176" type="line"/>
      <point x="73" y="-149"/>
      <point x="113" y="-138"/>
      <point x="147" y="-138" type="curve" smooth="yes"/>
      <point x="161" y="-138"/>
      <point x="204" y="-148"/>
      <point x="249" y="-157" type="curve"/>
      <point x="302" y="-169"/>
      <point x="357" y="-181"/>
      <point x="391" y="-181" type="curve" smooth="yes" name="hr01"/>
      <point x="484" y="-181"/>
      <point x="582" y="-131"/>
      <point x="652" y="-32" type="curve"/>
      <point x="611" y="-2" type="line"/>
      <point x="549" y="-65"/>
      <point x="511" y="-84"/>
      <point x="447" y="-84" type="curve" smooth="yes"/>
      <point x="412" y="-84"/>
      <point x="326" y="-64"/>
      <point x="267" y="-51" type="curve"/>
      <point x="268" y="-51" type="line"/>
      <point x="257" y="-48"/>
      <point x="245" y="-45"/>
      <point x="237" y="-43" type="curve" smooth="yes"/>
      <point x="234" y="-42"/>
      <point x="230" y="-42"/>
      <point x="226" y="-42" type="curve"/>
      <point x="252" y="-15" type="line"/>
      <point x="491" y="7"/>
      <point x="680" y="226"/>
    </contour>
    <contour>
      <point x="256" y="46" type="curve" smooth="yes" name="hr02"/>
      <point x="188" y="46"/>
      <point x="148" y="99"/>
      <point x="148" y="197" type="curve" smooth="yes"/>
      <point x="148" y="385"/>
      <point x="280" y="630"/>
      <point x="424" y="630" type="curve" smooth="yes"/>
      <point x="494" y="630"/>
      <point x="537" y="579"/>
      <point x="537" y="493" type="curve" smooth="yes"/>
      <point x="537" y="296"/>
      <point x="410" y="46"/>
    </contour>
  </outline>
</glyph>
<glyph name="S" format="1">
  <unicode hex="0053"/>
  <advance width="527"/>
  <outline>
    <contour>
      <point x="488" y="463" type="line"/>
      <point x="534" y="692" type="line"/>
      <point x="477" y="692" type="line"/>
      <point x="462" y="671"/>
      <point x="456" y="666"/>
      <point x="443" y="666" type="curve" smooth="yes"/>
      <point x="434" y="666"/>
      <point x="421" y="670"/>
      <point x="407" y="674" type="curve" smooth="yes"/>
      <point x="382" y="681"/>
      <point x="349" y="691"/>
      <point x="313" y="691" type="curve" smooth="yes" name="hr01"/>
      <point x="198" y="691"/>
      <point x="116" y="618"/>
      <point x="116" y="511" type="curve" smooth="yes"/>
      <point x="116" y="443"/>
      <point x="138" y="416"/>
      <point x="234" y="314" type="curve" smooth="yes"/>
      <point x="316" y="226"/>
      <point x="328" y="200"/>
      <point x="328" y="164" type="curve" smooth="yes" name="hr02"/>
      <point x="328" y="96"/>
      <point x="282" y="46"/>
      <point x="219" y="46" type="curve" smooth="yes"/>
      <point x="146" y="46"/>
      <point x="92" y="111"/>
      <point x="92" y="199" type="curve" smooth="yes"/>
      <point x="92" y="209"/>
      <point x="93" y="213"/>
      <point x="94" y="217" type="curve"/>
      <point x="94" y="230" type="line"/>
      <point x="41" y="239" type="line"/>
      <point x="0" y="-15" type="line" name="hr03"/>
      <point x="55" y="-15" type="line"/>
      <point x="63" y="8"/>
      <point x="70" y="18"/>
      <point x="77" y="18" type="curve" smooth="yes"/>
      <point x="91" y="18"/>
      <point x="119" y="9"/>
      <point x="148" y="1" type="curve"/>
      <point x="147" y="1" type="line"/>
      <point x="181" y="-9"/>
      <point x="213" y="-18"/>
      <point x="233" y="-18" type="curve" smooth="yes" name="hr04"/>
      <point x="358" y="-18"/>
      <point x="453" y="72"/>
      <point x="453" y="196" type="curve" smooth="yes"/>
      <point x="453" y="264"/>
      <point x="430" y="302"/>
      <point x="335" y="400" type="curve" smooth="yes"/>
      <point x="250" y="486"/>
      <point x="242" y="497"/>
      <point x="242" y="543" type="curve" smooth="yes" name="hr05"/>
      <point x="242" y="598"/>
      <point x="278" y="630"/>
      <point x="332" y="630" type="curve" smooth="yes"/>
      <point x="393" y="630"/>
      <point x="429" y="598"/>
      <point x="435" y="472" type="curve"/>
    </contour>
  </outline>
</glyph>
<glyph name="U" format="1">
  <unicode hex="0055"/>
  <advance width="691"/>
  <outline>
    <contour>
      <point x="334" y="679" type="line"/>
      <point x="25" y="679" type="line"/>
      <point x="25" y="636" type="line"/>
      <point x="91" y="630"/>
      <point x="101" y="626"/>
      <point x="101" y="608" type="curve" smooth="yes"/>
      <point x="101" y="596"/>
      <point x="98" y="582"/>
      <point x="44" y="376" type="curve"/>
      <point x="11" y="265"/>
      <point x="0" y="200"/>
      <point x="0" y="160" type="curve" smooth="yes"/>
      <point x="0" y="57"/>
      <point x="97" y="-18"/>
      <point x="235" y="-18" type="curve" smooth="yes"/>
      <point x="376" y="-18"/>
      <point x="465" y="57"/>
      <point x="511" y="212" type="curve" smooth="yes"/>
      <point x="594" y="497" type="line" smooth="yes"/>
      <point x="630" y="618"/>
      <point x="634" y="625"/>
      <point x="698" y="637" type="curve"/>
      <point x="698" y="679" type="line"/>
      <point x="462" y="679" type="line"/>
      <point x="462" y="636" type="line"/>
      <point x="516" y="630"/>
      <point x="532" y="623"/>
      <point x="532" y="603" type="curve" smooth="yes"/>
      <point x="532" y="590"/>
      <point x="517" y="538"/>
      <point x="493" y="444" type="curve"/>
      <point x="446" y="272" type="line"/>
      <point x="407" y="116"/>
      <point x="344" y="52"/>
      <point x="247" y="52" type="curve" smooth="yes"/>
      <point x="175" y="52"/>
      <point x="126" y="90"/>
      <point x="126" y="155" type="curve" smooth="yes"/>
      <point x="126" y="188"/>
      <point x="154" y="304"/>
      <point x="229" y="553" type="curve"/>
      <point x="246" y="618"/>
      <point x="263" y="628"/>
      <point x="334" y="636" type="curve"/>
    </contour>
  </outline>
</glyph>
<glyph name="W" format="1">
  <unicode hex="0057"/>
  <advance width="902"/>
  <outline>
    <contour>
      <point x="855" y="571" type="line"/>
      <point x="878" y="619"/>
      <point x="890" y="625"/>
      <point x="931" y="640" type="curve"/>
      <point x="931" y="679" type="line"/>
      <point x="708" y="679" type="line"/>
      <point x="708" y="636" type="line"/>
      <point x="762" y="630"/>
      <point x="772" y="626"/>
      <point x="772" y="609" type="curve" smooth="yes"/>
      <point x="772" y="593"/>
      <point x="767" y="572"/>
      <point x="753" y="548" type="curve"/>
      <point x="597" y="241" type="line"/>
      <point x="562" y="591" type="line"/>
      <point x="562" y="621"/>
      <point x="578" y="630"/>
      <point x="632" y="636" type="curve"/>
      <point x="632" y="679" type="line"/>
      <point x="355" y="679" type="line"/>
      <point x="355" y="635" type="line"/>
      <point x="415" y="632"/>
      <point x="425" y="628"/>
      <point x="430" y="589" type="curve" smooth="yes"/>
      <point x="438" y="525" type="line"/>
      <point x="300" y="242" type="line"/>
      <point x="262" y="595" type="line"/>
      <point x="262" y="622"/>
      <point x="274" y="628"/>
      <point x="334" y="636" type="curve"/>
      <point x="334" y="679" type="line"/>
      <point x="60" y="679" type="line"/>
      <point x="60" y="636" type="line"/>
      <point x="96" y="631"/>
      <point x="108" y="627"/>
      <point x="117" y="623" type="curve"/>
      <point x="124" y="613"/>
      <point x="128" y="596"/>
      <point x="140" y="509" type="curve"/>
      <point x="203" y="-18" type="line"/>
      <point x="253" y="-18" type="line"/>
      <point x="453" y="394" type="line"/>
      <point x="517" y="-18" type="line"/>
      <point x="547" y="-18" type="line"/>
    </contour>
  </outline>
</glyph>
<glyph name="Y" format="1">
  <unicode hex="0059"/>
  <advance width="597"/>
  <outline>
    <contour>
      <point x="323" y="679" type="line"/>
      <point x="47" y="679" type="line"/>
      <point x="47" y="636" type="line"/>
      <point x="107" y="628"/>
      <point x="111" y="624"/>
      <point x="125" y="579" type="curve"/>
      <point x="200" y="315" type="line"/>
      <point x="140" y="107" type="line" smooth="yes"/>
      <point x="127" y="64"/>
      <point x="103" y="47"/>
      <point x="34" y="44" type="curve"/>
      <point x="34" y="0" type="line"/>
      <point x="361" y="0" type="line"/>
      <point x="361" y="44" type="line"/>
      <point x="286" y="50"/>
      <point x="272" y="56"/>
      <point x="272" y="71" type="curve" smooth="yes"/>
      <point x="272" y="77" type="line" smooth="yes"/>
      <point x="272" y="93"/>
      <point x="280" y="119"/>
      <point x="308" y="215" type="curve" smooth="yes"/>
      <point x="336" y="314" type="line"/>
      <point x="552" y="579" type="line"/>
      <point x="579" y="616"/>
      <point x="593" y="626"/>
      <point x="625" y="640" type="curve"/>
      <point x="625" y="679" type="line"/>
      <point x="399" y="679" type="line"/>
      <point x="399" y="636" type="line"/>
      <point x="443" y="631" type="line"/>
      <point x="442" y="631" type="line"/>
      <point x="459" y="628"/>
      <point x="467" y="625"/>
      <point x="467" y="618" type="curve" smooth="yes"/>
      <point x="467" y="595"/>
      <point x="445" y="569"/>
      <point x="399" y="513" type="curve" smooth="yes"/>
      <point x="375" y="483"/>
      <point x="344" y="447"/>
      <point x="308" y="400" type="curve"/>
      <point x="277" y="511"/>
      <point x="252" y="604"/>
      <point x="252" y="613" type="curve" smooth="yes"/>
      <point x="252" y="626"/>
      <point x="265" y="630"/>
      <point x="323" y="636" type="curve"/>
    </contour>
  </outline>
</glyph>
<glyph name="bracketleft" format="1">
  <unicode hex="005B"/>
  <advance width="457"/>
  <outline>
    <contour>
      <point x="261" y="-97" type="line"/>
      <point x="182" y="-97" type="line" smooth="yes"/>
      <point x="160" y="-97"/>
      <point x="154" y="-92"/>
      <point x="154" y="-82" type="curve" smooth="yes"/>
      <point x="154" y="-77"/>
      <point x="155" y="-70"/>
      <point x="156" y="-65" type="curve" smooth="yes"/>
      <point x="316" y="610" type="line"/>
      <point x="316" y="609" type="line"/>
      <point x="320" y="627"/>
      <point x="326" y="633"/>
      <point x="343" y="633" type="curve" smooth="yes"/>
      <point x="421" y="633" type="line"/>
      <point x="436" y="688" type="line"/>
      <point x="225" y="688" type="line"/>
      <point x="23" y="-152" type="line"/>
      <point x="247" y="-152" type="line"/>
    </contour>
  </outline>
</glyph>
<glyph name="backslash" format="1">
  <unicode hex="005C"/>
  <advance width="452"/>
  <outline>
    <contour>
      <point x="21" y="691" type="line"/>
      <point x="321" y="-18" type="line"/>
      <point x="431" y="-18" type="line"/>
      <point x="132" y="691" type="line"/>
    </contour>
  </outline>
</glyph>
<glyph name="bracketright" format="1">
  <unicode hex="005D"/>
  <advance width="458"/>
  <outline>
    <contour>
      <point x="35" y="-97" type="line"/>
      <point x="21" y="-152" type="line"/>
      <point x="231" y="-152" type="line"/>
      <point x="435" y="688" type="line"/>
      <point x="208" y="688" type="line"/>
      <point x="193" y="633" type="line"/>
      <point x="273" y="633" type="line" smooth="yes"/>
      <point x="294" y="633"/>
      <point x="302" y="629"/>
      <point x="302" y="621" type="curve" smooth="yes"/>
      <point x="302" y="617"/>
      <point x="302" y="611"/>
      <point x="301" y="609" type="curve" smooth="yes"/>
      <point x="140" y="-72" type="line"/>
      <point x="140" y="-71" type="line"/>
      <point x="134" y="-92"/>
      <point x="129" y="-97"/>
      <point x="112" y="-97" type="curve" smooth="yes"/>
    </contour>
  </outline>
</glyph>
<glyph name="asciicircum" format="1">
  <unicode hex="005E"/>
  <advance width="524"/>
  <outline>
    <contour>
      <point x="133" y="299" type="line"/>
      <point x="262" y="560" type="line"/>
      <point x="392" y="299" type="line"/>
      <point x="500" y="299" type="line"/>
      <point x="305" y="691" type="line"/>
      <point x="219" y="691" type="line"/>
      <point x="24" y="299" type="line"/>
    </contour>
  </outline>
</glyph>
<glyph name="underscore" format="1">
  <unicode hex="005F"/>
  <advance width="590"/>
  <outline>
    <contour>
      <point x="563" y="-125" type="line"/>
      <point x="563" y="-45" type="line"/>
      <point x="27" y="-45" type="line"/>
      <point x="27" y="-125" type="line"/>
    </contour>
  </outline>
</glyph>
<glyph name="grave" format="1">
  <unicode hex="0060"/>
  <advance width="229"/>
  <outline>
    <contour>
      <point x="180" y="699" type="line"/>
      <point x="79" y="644"/>
      <point x="24" y="581"/>
      <point x="24" y="520" type="curve" smooth="yes"/>
      <point x="24" y="470"/>
      <point x="55" y="434"/>
      <point x="101" y="434" type="curve" smooth="yes"/>
      <point x="143" y="434"/>
      <point x="171" y="459"/>
      <point x="171" y="496" type="curve" smooth="yes"/>
      <point x="171" y="513"/>
      <point x="156" y="531"/>
      <point x="142" y="548" type="curve" smooth="yes"/>
      <point x="134" y="558"/>
      <point x="126" y="567"/>
      <point x="126" y="572" type="curve" smooth="yes" name="hr01"/>
      <point x="126" y="594"/>
      <point x="149" y="620"/>
      <point x="205" y="657" type="curve"/>
    </contour>
  </outline>
</glyph>
<glyph name="b" format="1">
  <unicode hex="0062"/>
  <advance width="509"/>
  <outline>
    <contour>
      <point x="86" y="641" type="line"/>
      <point x="146" y="638"/>
      <point x="151" y="637"/>
      <point x="151" y="628" type="curve" smooth="yes"/>
      <point x="151" y="619"/>
      <point x="149" y="607"/>
      <point x="0" y="57" type="curve"/>
      <point x="0" y="28"/>
      <point x="86" y="-12"/>
      <point x="152" y="-12" type="curve" smooth="yes"/>
      <point x="312" y="-12"/>
      <point x="486" y="168"/>
      <point x="486" y="334" type="curve" smooth="yes"/>
      <point x="486" y="413"/>
      <point x="432" y="468"/>
      <point x="352" y="468" type="curve" smooth="yes"/>
      <point x="292" y="468"/>
      <point x="249" y="445"/>
      <point x="202" y="389" type="curve"/>
      <point x="214" y="432"/>
      <point x="222" y="465"/>
      <point x="232" y="497" type="curve"/>
      <point x="284" y="693" type="line"/>
      <point x="267" y="711" type="line"/>
      <point x="256" y="709"/>
      <point x="234" y="706"/>
      <point x="223" y="704" type="curve"/>
      <point x="224" y="704" type="line"/>
      <point x="188" y="698"/>
      <point x="136" y="689"/>
      <point x="86" y="685" type="curve"/>
    </contour>
    <contour>
      <point x="363" y="319" type="curve" smooth="yes"/>
      <point x="363" y="207"/>
      <point x="252" y="41"/>
      <point x="151" y="41" type="curve" smooth="yes"/>
      <point x="133" y="41"/>
      <point x="124" y="47"/>
      <point x="124" y="60" type="curve" smooth="yes" name="hr01"/>
      <point x="124" y="182"/>
      <point x="222" y="388"/>
      <point x="314" y="391" type="curve"/>
      <point x="344" y="390"/>
      <point x="363" y="362"/>
    </contour>
  </outline>
</glyph>
<glyph name="g" format="1">
  <unicode hex="0067"/>
  <advance width="504"/>
  <outline>
    <contour>
      <point x="480" y="432" type="line"/>
      <point x="400" y="432" type="line"/>
      <point x="398" y="432"/>
      <point x="391" y="435"/>
      <point x="381" y="440" type="curve" smooth="yes"/>
      <point x="357" y="452"/>
      <point x="322" y="468"/>
      <point x="287" y="468" type="curve" smooth="yes"/>
      <point x="165" y="468"/>
      <point x="68" y="384"/>
      <point x="68" y="284" type="curve" smooth="yes"/>
      <point x="68" y="235"/>
      <point x="84" y="200"/>
      <point x="134" y="173" type="curve"/>
      <point x="84" y="137"/>
      <point x="70" y="116"/>
      <point x="70" y="91" type="curve" smooth="yes"/>
      <point x="70" y="77"/>
      <point x="76" y="66"/>
      <point x="88" y="55" type="curve"/>
      <point x="-3" y="-6"/>
      <point x="-19" y="-30"/>
      <point x="-19" y="-79" type="curve" smooth="yes" name="hr01"/>
      <point x="-19" y="-156"/>
      <point x="49" y="-206"/>
      <point x="165" y="-206" type="curve" smooth="yes"/>
      <point x="303" y="-206"/>
      <point x="394" y="-143"/>
      <point x="394" y="-47" type="curve" smooth="yes"/>
      <point x="394" y="23"/>
      <point x="341" y="74"/>
      <point x="237" y="100" type="curve" smooth="yes"/>
      <point x="201" y="109"/>
      <point x="181" y="120"/>
      <point x="181" y="128" type="curve" smooth="yes"/>
      <point x="181" y="137"/>
      <point x="193" y="154"/>
      <point x="198" y="154" type="curve"/>
      <point x="200" y="154"/>
      <point x="206" y="153"/>
      <point x="212" y="152" type="curve"/>
      <point x="217" y="152"/>
      <point x="224" y="151"/>
      <point x="236" y="151" type="curve" smooth="yes"/>
      <point x="336" y="151"/>
      <point x="439" y="236"/>
      <point x="439" y="323" type="curve" smooth="yes" name="hr02"/>
      <point x="439" y="336"/>
      <point x="437" y="349"/>
      <point x="434" y="364" type="curve"/>
      <point x="480" y="364" type="line" name="hr03"/>
    </contour>
    <contour>
      <point x="139" y="28" type="curve"/>
      <point x="139" y="28"/>
      <point x="140" y="28"/>
      <point x="141" y="27" type="curve"/>
      <point x="149" y="24"/>
      <point x="166" y="18"/>
      <point x="168" y="17" type="curve" smooth="yes"/>
      <point x="263" y="-13"/>
      <point x="295" y="-38"/>
      <point x="295" y="-77" type="curve" smooth="yes" name="hr04"/>
      <point x="295" y="-123"/>
      <point x="246" y="-156"/>
      <point x="180" y="-156" type="curve" smooth="yes"/>
      <point x="112" y="-156"/>
      <point x="73" y="-125"/>
      <point x="73" y="-69" type="curve" smooth="yes"/>
      <point x="73" y="-38"/>
      <point x="110" y="28"/>
    </contour>
    <contour>
      <point x="286" y="416" type="curve" smooth="yes"/>
      <point x="310" y="416"/>
      <point x="323" y="399"/>
      <point x="323" y="362" type="curve" smooth="yes" name="hr05"/>
      <point x="323" y="286"/>
      <point x="277" y="199"/>
      <point x="225" y="199" type="curve" smooth="yes"/>
      <point x="197" y="199"/>
      <point x="183" y="222"/>
      <point x="183" y="260" type="curve" smooth="yes"/>
      <point x="183" y="344"/>
      <point x="232" y="416"/>
    </contour>
    <contour>
      <point x="169" y="17" type="line"/>
      <point x="167" y="18" type="line"/>
      <point x="168" y="17" type="line"/>
    </contour>
  </outline>
</glyph>
<glyph name="i" format="1">
  <unicode hex="0069"/>
  <advance width="276"/>
  <outline>
    <contour>
      <point x="188" y="152" type="line"/>
      <point x="141" y="89"/>
      <point x="120" y="65"/>
      <point x="110" y="65" type="curve"/>
      <point x="111" y="65"/>
      <point x="112" y="66"/>
      <point x="112" y="67" type="curve"/>
      <point x="112" y="77"/>
      <point x="117" y="90"/>
      <point x="123" y="106" type="curve"/>
      <point x="128" y="124" type="line"/>
      <point x="218" y="456" type="line"/>
      <point x="197" y="470" type="line"/>
      <point x="180" y="465"/>
      <point x="174" y="465"/>
      <point x="169" y="464" type="curve" smooth="yes"/>
      <point x="88" y="449"/>
      <point x="72" y="445"/>
      <point x="15" y="441" type="curve"/>
      <point x="15" y="398" type="line"/>
      <point x="69" y="397"/>
      <point x="79" y="396"/>
      <point x="79" y="388" type="curve" smooth="yes"/>
      <point x="79" y="381"/>
      <point x="77" y="363"/>
      <point x="22" y="173" type="curve"/>
      <point x="8" y="114"/>
      <point x="0" y="81"/>
      <point x="0" y="63" type="curve" smooth="yes"/>
      <point x="0" y="14"/>
      <point x="19" y="-11"/>
      <point x="65" y="-11" type="curve" smooth="yes"/>
      <point x="122" y="-11"/>
      <point x="161" y="25"/>
      <point x="226" y="119" type="curve"/>
    </contour>
    <contour>
      <point x="185" y="681" type="curve" smooth="yes"/>
      <point x="145" y="681"/>
      <point x="117" y="653"/>
      <point x="117" y="618" type="curve" smooth="yes"/>
      <point x="117" y="582"/>
      <point x="145" y="555"/>
      <point x="184" y="555" type="curve" smooth="yes"/>
      <point x="221" y="555"/>
      <point x="252" y="583"/>
      <point x="252" y="618" type="curve" smooth="yes"/>
      <point x="252" y="651"/>
      <point x="219" y="681"/>
    </contour>
  </outline>
</glyph>
<glyph name="k" format="1">
  <unicode hex="006B"/>
  <advance width="509"/>
  <outline>
    <contour>
      <point x="409" y="149" type="line"/>
      <point x="386" y="89"/>
      <point x="369" y="70"/>
      <point x="361" y="70" type="curve" smooth="yes"/>
      <point x="347" y="70"/>
      <point x="327" y="116"/>
      <point x="264" y="268" type="curve"/>
      <point x="398" y="389"/>
      <point x="434" y="407"/>
      <point x="486" y="410" type="curve"/>
      <point x="486" y="455" type="line"/>
      <point x="266" y="455" type="line"/>
      <point x="266" y="409" type="line"/>
      <point x="301" y="409" type="line" smooth="yes"/>
      <point x="313" y="409"/>
      <point x="320" y="408"/>
      <point x="320" y="408" type="curve"/>
      <point x="320" y="390"/>
      <point x="275" y="347"/>
      <point x="186" y="279" type="curve"/>
      <point x="295" y="694" type="line"/>
      <point x="276" y="711" type="line"/>
      <point x="211" y="697"/>
      <point x="170" y="688"/>
      <point x="94" y="680" type="curve"/>
      <point x="94" y="637" type="line"/>
      <point x="131" y="637" type="line" smooth="yes"/>
      <point x="149" y="637"/>
      <point x="159" y="634"/>
      <point x="161" y="627" type="curve"/>
      <point x="133" y="508" type="line"/>
      <point x="0" y="0" type="line"/>
      <point x="112" y="0" type="line"/>
      <point x="163" y="186" type="line"/>
      <point x="177" y="198" type="line"/>
      <point x="234" y="60"/>
      <point x="268" y="-11"/>
      <point x="325" y="-11" type="curve" smooth="yes" name="hr01"/>
      <point x="374" y="-11"/>
      <point x="407" y="20"/>
      <point x="458" y="115" type="curve"/>
    </contour>
  </outline>
</glyph>
<glyph name="n" format="1">
  <unicode hex="006E"/>
  <advance width="528"/>
  <outline>
    <contour>
      <point x="463" y="154" type="line"/>
      <point x="417" y="95"/>
      <point x="396" y="69"/>
      <point x="386" y="67" type="curve"/>
      <point x="387" y="67"/>
      <point x="388" y="69"/>
      <point x="388" y="72" type="curve" smooth="yes"/>
      <point x="388" y="85"/>
      <point x="394" y="105"/>
      <point x="400" y="127" type="curve" smooth="yes"/>
      <point x="457" y="332" type="line"/>
      <point x="457" y="331" type="line"/>
      <point x="466" y="354"/>
      <point x="467" y="377"/>
      <point x="467" y="393" type="curve" smooth="yes"/>
      <point x="467" y="437"/>
      <point x="432" y="468"/>
      <point x="382" y="468" type="curve" smooth="yes"/>
      <point x="327" y="468"/>
      <point x="272" y="432"/>
      <point x="204" y="340" type="curve"/>
      <point x="243" y="475" type="line" name="hr01"/>
      <point x="206" y="466"/>
      <point x="154" y="455"/>
      <point x="111" y="447" type="curve"/>
      <point x="112" y="447" type="line"/>
      <point x="95" y="444"/>
      <point x="61" y="438"/>
      <point x="37" y="433" type="curve"/>
      <point x="37" y="393" type="line"/>
      <point x="88" y="392"/>
      <point x="100" y="389"/>
      <point x="100" y="380" type="curve" smooth="yes"/>
      <point x="100" y="375"/>
      <point x="99" y="368"/>
      <point x="0" y="0" type="curve"/>
      <point x="112" y="0" type="line"/>
      <point x="208" y="293"/>
      <point x="291" y="388"/>
      <point x="343" y="388" type="curve" smooth="yes" name="hr02"/>
      <point x="347" y="388"/>
      <point x="349" y="384"/>
      <point x="349" y="374" type="curve" smooth="yes"/>
      <point x="349" y="362"/>
      <point x="342" y="330"/>
      <point x="335" y="301" type="curve"/>
      <point x="275" y="81"/>
      <point x="275" y="70"/>
      <point x="274" y="60" type="curve"/>
      <point x="274" y="11"/>
      <point x="294" y="-11"/>
      <point x="341" y="-11" type="curve" smooth="yes"/>
      <point x="394" y="-11"/>
      <point x="423" y="15"/>
      <point x="503" y="119" type="curve"/>
    </contour>
  </outline>
</glyph>
<glyph name="p" format="1">
  <unicode hex="0070"/>
  <advance width="551"/>
  <outline>
    <contour>
      <point x="81" y="400" type="line"/>
      <point x="116" y="404"/>
      <point x="123" y="404"/>
      <point x="128" y="404" type="curve" smooth="yes"/>
      <point x="135" y="404"/>
      <point x="144" y="398"/>
      <point x="144" y="390" type="curve" smooth="yes"/>
      <point x="144" y="370"/>
      <point x="107" y="234"/>
      <point x="68" y="85" type="curve"/>
      <point x="14" y="-115" type="line"/>
      <point x="7" y="-151"/>
      <point x="-8" y="-162"/>
      <point x="-51" y="-162" type="curve"/>
      <point x="-51" y="-206" type="line"/>
      <point x="191" y="-206" type="line"/>
      <point x="191" y="-163" type="line"/>
      <point x="144" y="-163"/>
      <point x="127" y="-159"/>
      <point x="127" y="-148" type="curve" smooth="yes"/>
      <point x="127" y="-135"/>
      <point x="139" y="-69"/>
      <point x="157" y="-2" type="curve"/>
      <point x="175" y="-9"/>
      <point x="191" y="-12"/>
      <point x="211" y="-12" type="curve" smooth="yes"/>
      <point x="363" y="-12"/>
      <point x="528" y="160"/>
      <point x="528" y="329" type="curve" smooth="yes"/>
      <point x="528" y="416"/>
      <point x="479" y="468"/>
      <point x="395" y="468" type="curve" smooth="yes"/>
      <point x="343" y="468"/>
      <point x="304" y="452"/>
      <point x="266" y="415" type="curve"/>
      <point x="272" y="439" type="line"/>
      <point x="272" y="441"/>
      <point x="273" y="444"/>
      <point x="273" y="445" type="curve"/>
      <point x="273" y="447"/>
      <point x="274" y="449"/>
      <point x="274" y="450" type="curve"/>
      <point x="274" y="458"/>
      <point x="268" y="468"/>
      <point x="247" y="468" type="curve"/>
      <point x="76" y="442" type="line"/>
    </contour>
    <contour>
      <point x="401" y="326" type="curve" smooth="yes"/>
      <point x="401" y="194"/>
      <point x="305" y="37"/>
      <point x="207" y="37" type="curve" smooth="yes"/>
      <point x="191" y="37"/>
      <point x="177" y="45"/>
      <point x="177" y="59" type="curve" smooth="yes"/>
      <point x="177" y="143"/>
      <point x="243" y="396"/>
      <point x="355" y="396" type="curve"/>
      <point x="386" y="395"/>
      <point x="401" y="374"/>
    </contour>
  </outline>
</glyph>
<glyph name="q" format="1">
  <unicode hex="0071"/>
  <advance width="524"/>
  <outline>
    <contour>
      <point x="219" y="-120" type="line" smooth="yes"/>
      <point x="209" y="-151"/>
      <point x="190" y="-159"/>
      <point x="125" y="-162" type="curve"/>
      <point x="125" y="-206" type="line"/>
      <point x="404" y="-206" type="line"/>
      <point x="404" y="-159" type="line"/>
      <point x="366" y="-159" type="line" smooth="yes"/>
      <point x="341" y="-159"/>
      <point x="330" y="-156"/>
      <point x="330" y="-145" type="curve" smooth="yes"/>
      <point x="330" y="-138" type="line"/>
      <point x="499" y="455" type="line"/>
      <point x="386" y="455" type="line"/>
      <point x="383" y="441" type="line"/>
      <point x="366" y="460"/>
      <point x="344" y="468"/>
      <point x="311" y="468" type="curve" smooth="yes"/>
      <point x="169" y="468"/>
      <point x="0" y="276"/>
      <point x="0" y="119" type="curve" smooth="yes"/>
      <point x="0" y="37"/>
      <point x="43" y="-12"/>
      <point x="121" y="-12" type="curve" smooth="yes"/>
      <point x="181" y="-12"/>
      <point x="222" y="9"/>
      <point x="277" y="74" type="curve"/>
    </contour>
    <contour>
      <point x="313" y="416" type="curve" smooth="yes"/>
      <point x="336" y="416"/>
      <point x="354" y="397"/>
      <point x="354" y="372" type="curve" smooth="yes" name="hr01"/>
      <point x="354" y="255"/>
      <point x="248" y="71"/>
      <point x="161" y="71" type="curve" smooth="yes"/>
      <point x="138" y="71"/>
      <point x="124" y="94"/>
      <point x="124" y="132" type="curve" smooth="yes"/>
      <point x="124" y="231"/>
      <point x="223" y="416"/>
    </contour>
  </outline>
</glyph>
<glyph name="r" format="1">
  <unicode hex="0072"/>
  <advance width="428"/>
  <outline>
    <contour>
      <point x="114" y="0" type="line"/>
      <point x="193" y="275"/>
      <point x="262" y="371"/>
      <point x="290" y="374" type="curve"/>
      <point x="287" y="373"/>
      <point x="288" y="370"/>
      <point x="291" y="367" type="curve" smooth="yes"/>
      <point x="300" y="354"/>
      <point x="312" y="338"/>
      <point x="343" y="338" type="curve" smooth="yes"/>
      <point x="387" y="338"/>
      <point x="407" y="360"/>
      <point x="407" y="403" type="curve" smooth="yes"/>
      <point x="407" y="442"/>
      <point x="381" y="468"/>
      <point x="342" y="468" type="curve" smooth="yes"/>
      <point x="300" y="468"/>
      <point x="250" y="426"/>
      <point x="207" y="372" type="curve"/>
      <point x="228" y="456" type="line"/>
      <point x="209" y="470" type="line" name="hr01"/>
      <point x="144" y="456"/>
      <point x="120" y="453"/>
      <point x="63" y="443" type="curve" smooth="yes"/>
      <point x="58" y="442"/>
      <point x="37" y="438"/>
      <point x="31" y="437" type="curve"/>
      <point x="31" y="394" type="line"/>
      <point x="61" y="397"/>
      <point x="74" y="399"/>
      <point x="74" y="399" type="curve"/>
      <point x="72" y="399" type="line"/>
      <point x="80" y="400"/>
      <point x="81" y="400"/>
      <point x="84" y="400" type="curve" smooth="yes"/>
      <point x="95" y="400"/>
      <point x="101" y="396"/>
      <point x="101" y="386" type="curve"/>
      <point x="101" y="384" type="line"/>
      <point x="101" y="374"/>
      <point x="101" y="364"/>
      <point x="86" y="309" type="curve" smooth="yes"/>
      <point x="0" y="0" type="line"/>
    </contour>
  </outline>
</glyph>
<glyph name="s" format="1">
  <unicode hex="0073"/>
  <advance width="416"/>
  <outline>
    <contour>
      <point x="24" y="175" type="line"/>
      <point x="0" y="-12" type="line"/>
      <point x="49" y="-12" type="line"/>
      <point x="62" y="10" type="line"/>
      <point x="67" y="10"/>
      <point x="83" y="6"/>
      <point x="101" y="1" type="curve"/>
      <point x="101" y="2" type="line"/>
      <point x="124" y="-5"/>
      <point x="149" y="-11"/>
      <point x="164" y="-11" type="curve" smooth="yes" name="hr01"/>
      <point x="260" y="-11"/>
      <point x="326" y="48"/>
      <point x="326" y="132" type="curve" smooth="yes"/>
      <point x="326" y="173"/>
      <point x="305" y="219"/>
      <point x="254" y="281" type="curve" smooth="yes"/>
      <point x="220" y="322"/>
      <point x="206" y="352"/>
      <point x="206" y="377" type="curve" smooth="yes"/>
      <point x="206" y="401"/>
      <point x="219" y="415"/>
      <point x="242" y="415" type="curve" smooth="yes"/>
      <point x="281" y="415"/>
      <point x="305" y="379"/>
      <point x="316" y="301" type="curve"/>
      <point x="367" y="301" type="line"/>
      <point x="391" y="469" type="line" name="hr02"/>
      <point x="344" y="469" type="line"/>
      <point x="335" y="454"/>
      <point x="331" y="451"/>
      <point x="325" y="451" type="curve"/>
      <point x="324" y="451"/>
      <point x="307" y="455"/>
      <point x="290" y="458" type="curve"/>
      <point x="291" y="458" type="line"/>
      <point x="271" y="463"/>
      <point x="250" y="468"/>
      <point x="234" y="468" type="curve" smooth="yes" name="hr03"/>
      <point x="146" y="468"/>
      <point x="94" y="419"/>
      <point x="94" y="343" type="curve" smooth="yes"/>
      <point x="94" y="315"/>
      <point x="125" y="265"/>
      <point x="157" y="216" type="curve"/>
      <point x="184" y="170"/>
      <point x="213" y="125"/>
      <point x="213" y="101" type="curve" smooth="yes"/>
      <point x="213" y="63"/>
      <point x="190" y="40"/>
      <point x="159" y="40" type="curve" smooth="yes"/>
      <point x="116" y="40"/>
      <point x="91" y="82"/>
      <point x="75" y="175" type="curve"/>
    </contour>
  </outline>
</glyph>
<glyph name="z" format="1">
  <unicode hex="007A"/>
  <advance width="464"/>
  <outline>
    <contour>
      <point x="132" y="317" type="line"/>
      <point x="155" y="370"/>
      <point x="165" y="380"/>
      <point x="201" y="380" type="curve" smooth="yes"/>
      <point x="312" y="380" type="line"/>
      <point x="0" y="9" type="line"/>
      <point x="32" y="-23" type="line"/>
      <point x="53" y="-5"/>
      <point x="68" y="4"/>
      <point x="78" y="4" type="curve" smooth="yes"/>
      <point x="94" y="4"/>
      <point x="135" y="-16"/>
      <point x="177" y="-36" type="curve" smooth="yes"/>
      <point x="222" y="-58"/>
      <point x="267" y="-81"/>
      <point x="293" y="-82" type="curve"/>
      <point x="352" y="-82"/>
      <point x="406" y="-40"/>
      <point x="406" y="9" type="curve" smooth="yes"/>
      <point x="406" y="41"/>
      <point x="384" y="58"/>
      <point x="351" y="58" type="curve" smooth="yes"/>
      <point x="322" y="58"/>
      <point x="298" y="40"/>
      <point x="298" y="12" type="curve" smooth="yes"/>
      <point x="298" y="6"/>
      <point x="302" y="-9"/>
      <point x="307" y="-19" type="curve"/>
      <point x="307" y="-18" type="line"/>
      <point x="313" y="-32" type="line"/>
      <point x="305" y="-32" type="line" smooth="yes"/>
      <point x="290" y="-32"/>
      <point x="278" y="-26"/>
      <point x="251" y="12" type="curve"/>
      <point x="213" y="62"/>
      <point x="190" y="82"/>
      <point x="144" y="94" type="curve"/>
      <point x="438" y="438" type="line"/>
      <point x="438" y="468" type="line"/>
      <point x="120" y="468" type="line"/>
      <point x="82" y="329" type="line"/>
    </contour>
  </outline>
</glyph>
<glyph name="braceleft" format="1">
  <unicode hex="007B"/>
  <advance width="457"/>
  <outline>
    <contour>
      <point x="436" y="712" type="line"/>
      <point x="289" y="712"/>
      <point x="245" y="675"/>
      <point x="207" y="563" type="curve"/>
      <point x="160" y="385" type="line"/>
      <point x="141" y="321"/>
      <point x="116" y="294"/>
      <point x="23" y="272" type="curve"/>
      <point x="84" y="248"/>
      <point x="105" y="234"/>
      <point x="105" y="211" type="curve" smooth="yes"/>
      <point x="105" y="194"/>
      <point x="89" y="125"/>
      <point x="72" y="58" type="curve" smooth="yes"/>
      <point x="56" y="-8"/>
      <point x="41" y="-72"/>
      <point x="41" y="-84" type="curve" smooth="yes"/>
      <point x="41" y="-148"/>
      <point x="82" y="-173"/>
      <point x="197" y="-176" type="curve"/>
      <point x="211" y="-144" type="line"/>
      <point x="170" y="-131"/>
      <point x="153" y="-116"/>
      <point x="153" y="-85" type="curve" smooth="yes"/>
      <point x="153" y="-69"/>
      <point x="181" y="50"/>
      <point x="200" y="128" type="curve" smooth="yes"/>
      <point x="211" y="172"/>
      <point x="217" y="203"/>
      <point x="217" y="204" type="curve"/>
      <point x="217" y="228"/>
      <point x="207" y="247"/>
      <point x="184" y="265" type="curve"/>
      <point x="233" y="285"/>
      <point x="257" y="321"/>
      <point x="276" y="393" type="curve" smooth="yes"/>
      <point x="320" y="560" type="line"/>
      <point x="338" y="633"/>
      <point x="365" y="660"/>
      <point x="426" y="677" type="curve"/>
    </contour>
  </outline>
</glyph>
<glyph name="bar" format="1">
  <unicode hex="007C"/>
  <advance width="124"/>
  <outline>
    <contour>
      <point x="27" y="-206" type="line"/>
      <point x="96" y="-206" type="line"/>
      <point x="96" y="820" type="line"/>
      <point x="27" y="820" type="line"/>
    </contour>
  </outline>
</glyph>
<glyph name="braceright" format="1">
  <unicode hex="007D"/>
  <advance width="466"/>
  <outline>
    <contour>
      <point x="257" y="679" type="line"/>
      <point x="297" y="667"/>
      <point x="312" y="650"/>
      <point x="312" y="621" type="curve" smooth="yes"/>
      <point x="312" y="606"/>
      <point x="290" y="511"/>
      <point x="271" y="435" type="curve"/>
      <point x="259" y="381"/>
      <point x="246" y="331"/>
      <point x="246" y="331" type="curve" name="hr01"/>
      <point x="246" y="304"/>
      <point x="257" y="287"/>
      <point x="281" y="271" type="curve"/>
      <point x="230" y="251"/>
      <point x="210" y="216"/>
      <point x="190" y="144" type="curve" smooth="yes"/>
      <point x="144" y="-24" type="line"/>
      <point x="126" y="-98"/>
      <point x="98" y="-123"/>
      <point x="38" y="-141" type="curve"/>
      <point x="25" y="-175" type="line"/>
      <point x="167" y="-175"/>
      <point x="223" y="-140"/>
      <point x="258" y="-27" type="curve"/>
      <point x="306" y="152" type="line"/>
      <point x="325" y="216"/>
      <point x="351" y="243"/>
      <point x="441" y="265" type="curve"/>
      <point x="380" y="289"/>
      <point x="359" y="302"/>
      <point x="359" y="325" type="curve" smooth="yes"/>
      <point x="359" y="340"/>
      <point x="377" y="412"/>
      <point x="394" y="480" type="curve"/>
      <point x="409" y="547"/>
      <point x="425" y="610"/>
      <point x="425" y="621" type="curve" smooth="yes" name="hr02"/>
      <point x="425" y="686"/>
      <point x="381" y="710"/>
      <point x="266" y="713" type="curve"/>
    </contour>
  </outline>
</glyph>
<glyph name="asciitilde" format="1">
  <unicode hex="007E"/>
  <advance width="602"/>
  <outline>
    <contour>
      <point x="518" y="456" type="line"/>
      <point x="480" y="390"/>
      <point x="446" y="358"/>
      <point x="418" y="358" type="curve" smooth="yes"/>
      <point x="412" y="358"/>
      <point x="360" y="377"/>
      <point x="309" y="397" type="curve" smooth="yes"/>
      <point x="256" y="417"/>
      <point x="203" y="438"/>
      <point x="189" y="438" type="curve" smooth="yes" name="hr01"/>
      <point x="121" y="438"/>
      <point x="92" y="412"/>
      <point x="25" y="314" type="curve"/>
      <point x="83" y="240" type="line"/>
      <point x="137" y="321"/>
      <point x="154" y="342"/>
      <point x="188" y="342" type="curve" smooth="yes"/>
      <point x="197" y="342"/>
      <point x="237" y="325"/>
      <point x="279" y="308" type="curve" smooth="yes"/>
      <point x="331" y="287"/>
      <point x="388" y="263"/>
      <point x="414" y="262" type="curve" name="hr02"/>
      <point x="474" y="262"/>
      <point x="533" y="305"/>
      <point x="577" y="384" type="curve"/>
    </contour>
  </outline>
</glyph>
<glyph name="exclamdown" format="1">
  <unicode hex="00A1"/>
  <advance width="344"/>
  <outline>
    <contour>
      <point x="193" y="315" type="line"/>
      <point x="157" y="214"/>
      <point x="117" y="119"/>
      <point x="89" y="51" type="curve"/>
      <point x="50" y="-39"/>
      <point x="23" y="-102"/>
      <point x="22" y="-139" type="curve"/>
      <point x="22" y="-182"/>
      <point x="43" y="-203"/>
      <point x="82" y="-203" type="curve" smooth="yes"/>
      <point x="131" y="-203"/>
      <point x="156" y="-168"/>
      <point x="171" y="-77" type="curve" smooth="yes"/>
      <point x="189" y="40"/>
      <point x="209" y="142"/>
      <point x="245" y="305" type="curve"/>
    </contour>
    <contour>
      <point x="253" y="501" type="curve" smooth="yes"/>
      <point x="211" y="501"/>
      <point x="178" y="470"/>
      <point x="178" y="434" type="curve" smooth="yes"/>
      <point x="178" y="399"/>
      <point x="211" y="366"/>
      <point x="252" y="366" type="curve" smooth="yes"/>
      <point x="287" y="366"/>
      <point x="322" y="400"/>
      <point x="322" y="431" type="curve" smooth="yes"/>
      <point x="322" y="472"/>
      <point x="291" y="501"/>
    </contour>
  </outline>
</glyph>
<glyph name="cent" format="1">
  <unicode hex="00A2"/>
  <advance width="477"/>
  <outline>
    <contour>
      <point x="402" y="586" type="line"/>
      <point x="334" y="586" type="line"/>
      <point x="290" y="464" type="line"/>
      <point x="128" y="431"/>
      <point x="23" y="288"/>
      <point x="23" y="154" type="curve" smooth="yes"/>
      <point x="23" y="74"/>
      <point x="55" y="21"/>
      <point x="127" y="-2" type="curve"/>
      <point x="78" y="-143" type="line"/>
      <point x="149" y="-143" type="line"/>
      <point x="194" y="-12" type="line"/>
      <point x="272" y="-11"/>
      <point x="332" y="28"/>
      <point x="401" y="113" type="curve"/>
      <point x="359" y="140" type="line"/>
      <point x="299" y="78"/>
      <point x="261" y="54"/>
      <point x="217" y="54" type="curve"/>
      <point x="216" y="54" type="line"/>
      <point x="343" y="414" type="line"/>
      <point x="344" y="414"/>
      <point x="345" y="413"/>
      <point x="345" y="412" type="curve"/>
      <point x="345" y="409"/>
      <point x="342" y="404"/>
      <point x="339" y="397" type="curve" smooth="yes"/>
      <point x="334" y="385"/>
      <point x="331" y="374"/>
      <point x="331" y="365" type="curve" smooth="yes"/>
      <point x="331" y="331"/>
      <point x="352" y="313"/>
      <point x="388" y="313" type="curve" smooth="yes"/>
      <point x="427" y="313"/>
      <point x="455" y="339"/>
      <point x="455" y="373" type="curve" smooth="yes"/>
      <point x="455" y="421"/>
      <point x="420" y="453"/>
      <point x="360" y="464" type="curve"/>
    </contour>
    <contour>
      <point x="147" y="153" type="curve" smooth="yes"/>
      <point x="147" y="260"/>
      <point x="197" y="361"/>
      <point x="269" y="401" type="curve"/>
      <point x="159" y="90" type="line"/>
      <point x="150" y="106"/>
      <point x="147" y="128"/>
    </contour>
  </outline>
</glyph>
<glyph name="sterling" format="1">
  <unicode hex="00A3"/>
  <advance width="589"/>
  <outline>
    <contour>
      <point x="444" y="315" type="line"/>
      <point x="453" y="386" type="line"/>
      <point x="332" y="386" type="line"/>
      <point x="370" y="587"/>
      <point x="390" y="636"/>
      <point x="431" y="636" type="curve" smooth="yes"/>
      <point x="442" y="636"/>
      <point x="446" y="618"/>
      <point x="452" y="601" type="curve" smooth="yes"/>
      <point x="460" y="575"/>
      <point x="468" y="548"/>
      <point x="508" y="548" type="curve" smooth="yes" name="hr01"/>
      <point x="544" y="548"/>
      <point x="564" y="568"/>
      <point x="564" y="604" type="curve" smooth="yes"/>
      <point x="564" y="657"/>
      <point x="520" y="693"/>
      <point x="453" y="693" type="curve" smooth="yes"/>
      <point x="324" y="693"/>
      <point x="238" y="566"/>
      <point x="204" y="386" type="curve"/>
      <point x="95" y="386" type="line"/>
      <point x="79" y="315" type="line"/>
      <point x="194" y="315" type="line"/>
      <point x="173" y="146" type="line"/>
      <point x="150" y="152"/>
      <point x="147" y="152"/>
      <point x="135" y="152" type="curve" smooth="yes"/>
      <point x="69" y="152"/>
      <point x="23" y="119"/>
      <point x="23" y="70" type="curve" smooth="yes"/>
      <point x="23" y="24"/>
      <point x="56" y="-8"/>
      <point x="105" y="-8" type="curve" smooth="yes"/>
      <point x="143" y="-8"/>
      <point x="169" y="5"/>
      <point x="205" y="46" type="curve"/>
      <point x="261" y="6"/>
      <point x="295" y="-8"/>
      <point x="345" y="-8" type="curve" smooth="yes"/>
      <point x="421" y="-8"/>
      <point x="477" y="33"/>
      <point x="507" y="105" type="curve"/>
      <point x="476" y="133" type="line"/>
      <point x="430" y="99"/>
      <point x="411" y="92"/>
      <point x="387" y="92" type="curve" smooth="yes" name="hr02"/>
      <point x="350" y="92"/>
      <point x="311" y="101"/>
      <point x="250" y="123" type="curve"/>
      <point x="285" y="200"/>
      <point x="293" y="222"/>
      <point x="316" y="315" type="curve"/>
    </contour>
    <contour>
      <point x="105" y="43" type="curve" smooth="yes" name="hr03"/>
      <point x="93" y="43"/>
      <point x="82" y="53"/>
      <point x="82" y="66" type="curve" smooth="yes"/>
      <point x="82" y="83"/>
      <point x="96" y="96"/>
      <point x="117" y="96" type="curve" smooth="yes"/>
      <point x="129" y="96"/>
      <point x="136" y="93"/>
      <point x="155" y="81" type="curve"/>
      <point x="143" y="58"/>
      <point x="124" y="43"/>
    </contour>
  </outline>
</glyph>
<glyph name="currency" format="1">
  <unicode hex="00A4"/>
  <advance width="607"/>
  <outline>
    <contour>
      <point x="27" y="165" type="line"/>
      <point x="94" y="95" type="line"/>
      <point x="159" y="160" type="line"/>
      <point x="202" y="131"/>
      <point x="251" y="118"/>
      <point x="304" y="118" type="curve" smooth="yes"/>
      <point x="356" y="118"/>
      <point x="404" y="132"/>
      <point x="449" y="161" type="curve"/>
      <point x="513" y="96" type="line"/>
      <point x="581" y="165" type="line"/>
      <point x="517" y="226" type="line"/>
      <point x="549" y="272"/>
      <point x="565" y="322"/>
      <point x="565" y="373" type="curve" smooth="yes"/>
      <point x="565" y="426"/>
      <point x="549" y="474"/>
      <point x="517" y="519" type="curve"/>
      <point x="581" y="583" type="line"/>
      <point x="513" y="651" type="line"/>
      <point x="449" y="584" type="line"/>
      <point x="404" y="613"/>
      <point x="356" y="628"/>
      <point x="304" y="628" type="curve" smooth="yes"/>
      <point x="251" y="628"/>
      <point x="203" y="613"/>
      <point x="159" y="584" type="curve"/>
      <point x="94" y="651" type="line"/>
      <point x="26" y="583" type="line"/>
      <point x="90" y="518" type="line"/>
      <point x="58" y="472"/>
      <point x="43" y="424"/>
      <point x="43" y="373" type="curve" smooth="yes"/>
      <point x="43" y="321"/>
      <point x="58" y="272"/>
      <point x="90" y="226" type="curve"/>
    </contour>
    <contour>
      <point x="304" y="533" type="curve" smooth="yes"/>
      <point x="392" y="533"/>
      <point x="459" y="460"/>
      <point x="459" y="373" type="curve" smooth="yes"/>
      <point x="459" y="284"/>
      <point x="392" y="212"/>
      <point x="304" y="212" type="curve" smooth="yes"/>
      <point x="219" y="212"/>
      <point x="149" y="284"/>
      <point x="149" y="373" type="curve" smooth="yes"/>
      <point x="149" y="460"/>
      <point x="219" y="533"/>
    </contour>
  </outline>
</glyph>
<glyph name="yen" format="1">
  <unicode hex="00A5"/>
  <advance width="665"/>
  <outline>
    <contour>
      <point x="491" y="181" type="line"/>
      <point x="512" y="250" type="line"/>
      <point x="332" y="250" type="line"/>
      <point x="350" y="311" type="line"/>
      <point x="524" y="311" type="line"/>
      <point x="543" y="380" type="line"/>
      <point x="404" y="380" type="line"/>
      <point x="565" y="579" type="line" smooth="yes"/>
      <point x="596" y="617"/>
      <point x="605" y="623"/>
      <point x="642" y="640" type="curve"/>
      <point x="642" y="679" type="line"/>
      <point x="414" y="679" type="line"/>
      <point x="414" y="635" type="line"/>
      <point x="463" y="631"/>
      <point x="484" y="628"/>
      <point x="484" y="618" type="curve" smooth="yes"/>
      <point x="484" y="594"/>
      <point x="435" y="525"/>
      <point x="322" y="396" type="curve"/>
      <point x="304" y="464" type="line"/>
      <point x="275" y="555"/>
      <point x="267" y="598"/>
      <point x="266" y="614" type="curve"/>
      <point x="266" y="626"/>
      <point x="277" y="629"/>
      <point x="340" y="636" type="curve"/>
      <point x="340" y="679" type="line"/>
      <point x="63" y="679" type="line"/>
      <point x="63" y="637" type="line"/>
      <point x="131" y="627"/>
      <point x="141" y="625"/>
      <point x="154" y="579" type="curve" smooth="yes"/>
      <point x="209" y="380" type="line"/>
      <point x="78" y="380" type="line"/>
      <point x="59" y="311" type="line"/>
      <point x="226" y="311" type="line"/>
      <point x="208" y="250" type="line"/>
      <point x="46" y="250" type="line"/>
      <point x="25" y="181" type="line"/>
      <point x="189" y="181" type="line"/>
      <point x="169" y="107" type="line"/>
      <point x="169" y="108" type="line"/>
      <point x="154" y="65"/>
      <point x="125" y="48"/>
      <point x="63" y="44" type="curve"/>
      <point x="53" y="0" type="line"/>
      <point x="377" y="0" type="line"/>
      <point x="377" y="44" type="line"/>
      <point x="306" y="48"/>
      <point x="285" y="50"/>
      <point x="285" y="71" type="curve" smooth="yes"/>
      <point x="285" y="90"/>
      <point x="291" y="112"/>
      <point x="312" y="181" type="curve"/>
    </contour>
  </outline>
</glyph>
<glyph name="brokenbar" format="1">
  <unicode hex="00A6"/>
  <advance width="156"/>
  <outline>
    <contour>
      <point x="27" y="-18" type="line"/>
      <point x="130" y="-18" type="line"/>
      <point x="130" y="285" type="line"/>
      <point x="27" y="285" type="line"/>
    </contour>
    <contour>
      <point x="27" y="390" type="line"/>
      <point x="130" y="390" type="line"/>
      <point x="130" y="693" type="line"/>
      <point x="27" y="693" type="line"/>
    </contour>
  </outline>
</glyph>
<glyph name="section" format="1">
  <unicode hex="00A7"/>
  <advance width="491"/>
  <outline>
    <contour>
      <point x="184" y="435" type="curve" smooth="yes"/>
      <point x="117" y="435"/>
      <point x="59" y="374"/>
      <point x="59" y="298" type="curve" smooth="yes"/>
      <point x="59" y="249"/>
      <point x="85" y="194"/>
      <point x="135" y="137" type="curve" smooth="yes"/>
      <point x="211" y="51" type="line" smooth="yes"/>
      <point x="245" y="12"/>
      <point x="255" y="-11"/>
      <point x="255" y="-37" type="curve" smooth="yes"/>
      <point x="255" y="-81"/>
      <point x="221" y="-112"/>
      <point x="173" y="-112" type="curve" smooth="yes"/>
      <point x="146" y="-112"/>
      <point x="122" y="-102"/>
      <point x="122" y="-89" type="curve"/>
      <point x="122" y="-88"/>
      <point x="125" y="-85"/>
      <point x="129" y="-82" type="curve" smooth="yes"/>
      <point x="145" y="-69"/>
      <point x="164" y="-53"/>
      <point x="164" y="-27" type="curve" smooth="yes"/>
      <point x="164" y="9"/>
      <point x="140" y="31"/>
      <point x="98" y="31" type="curve" smooth="yes" name="hr01"/>
      <point x="50" y="31"/>
      <point x="24" y="4"/>
      <point x="24" y="-40" type="curve" smooth="yes"/>
      <point x="24" y="-107"/>
      <point x="91" y="-161"/>
      <point x="177" y="-161" type="curve" smooth="yes"/>
      <point x="277" y="-161"/>
      <point x="352" y="-97"/>
      <point x="352" y="-11" type="curve" smooth="yes"/>
      <point x="352" y="26"/>
      <point x="343" y="49"/>
      <point x="306" y="100" type="curve"/>
      <point x="386" y="100"/>
      <point x="442" y="156"/>
      <point x="442" y="240" type="curve" smooth="yes" name="hr02"/>
      <point x="442" y="284"/>
      <point x="425" y="327"/>
      <point x="398" y="362" type="curve"/>
      <point x="274" y="512" type="line" smooth="yes"/>
      <point x="260" y="528"/>
      <point x="252" y="550"/>
      <point x="252" y="574" type="curve" smooth="yes"/>
      <point x="252" y="617"/>
      <point x="280" y="642"/>
      <point x="325" y="642" type="curve" smooth="yes"/>
      <point x="348" y="642"/>
      <point x="366" y="634"/>
      <point x="366" y="626" type="curve"/>
      <point x="366" y="626"/>
      <point x="363" y="623"/>
      <point x="359" y="618" type="curve" smooth="yes"/>
      <point x="348" y="604"/>
      <point x="332" y="588"/>
      <point x="332" y="569" type="curve" smooth="yes" name="hr03"/>
      <point x="332" y="534"/>
      <point x="359" y="509"/>
      <point x="396" y="509" type="curve" smooth="yes"/>
      <point x="441" y="509"/>
      <point x="467" y="537"/>
      <point x="467" y="579" type="curve" smooth="yes"/>
      <point x="467" y="645"/>
      <point x="405" y="691"/>
      <point x="318" y="691" type="curve" smooth="yes"/>
      <point x="221" y="691"/>
      <point x="153" y="635"/>
      <point x="153" y="552" type="curve" smooth="yes"/>
      <point x="153" y="514"/>
      <point x="165" y="482"/>
      <point x="200" y="434" type="curve"/>
      <point x="194" y="435"/>
      <point x="189" y="435"/>
    </contour>
    <contour>
      <point x="201" y="386" type="curve" smooth="yes"/>
      <point x="262" y="386"/>
      <point x="346" y="251"/>
      <point x="346" y="204" type="curve" smooth="yes" name="hr04"/>
      <point x="346" y="175"/>
      <point x="324" y="150"/>
      <point x="300" y="150" type="curve" smooth="yes"/>
      <point x="249" y="150"/>
      <point x="155" y="269"/>
      <point x="155" y="335" type="curve" smooth="yes"/>
      <point x="155" y="364"/>
      <point x="175" y="386"/>
    </contour>
  </outline>
</glyph>
<glyph name="dieresis" format="1">
  <unicode hex="00A8"/>
  <advance width="389"/>
  <outline>
    <contour>
      <point x="296" y="633" type="curve" smooth="yes"/>
      <point x="256" y="633"/>
      <point x="227" y="603"/>
      <point x="227" y="570" type="curve" smooth="yes"/>
      <point x="227" y="533"/>
      <point x="257" y="506"/>
      <point x="295" y="506" type="curve" smooth="yes"/>
      <point x="332" y="506"/>
      <point x="363" y="534"/>
      <point x="363" y="569" type="curve" smooth="yes"/>
      <point x="363" y="600"/>
      <point x="330" y="633"/>
    </contour>
    <contour>
      <point x="96" y="633" type="curve" smooth="yes"/>
      <point x="58" y="633"/>
      <point x="26" y="603"/>
      <point x="26" y="570" type="curve" smooth="yes"/>
      <point x="26" y="533"/>
      <point x="58" y="506"/>
      <point x="96" y="506" type="curve" smooth="yes"/>
      <point x="133" y="506"/>
      <point x="163" y="534"/>
      <point x="163" y="569" type="curve" smooth="yes"/>
      <point x="163" y="600"/>
      <point x="132" y="633"/>
    </contour>
  </outline>
</glyph>
<glyph name="copyright" format="1">
  <unicode hex="00A9"/>
  <advance width="767"/>
  <outline>
    <contour>
      <point x="384" y="704" type="curve" smooth="yes"/>
      <point x="186" y="704"/>
      <point x="25" y="543"/>
      <point x="25" y="343" type="curve" smooth="yes"/>
      <point x="25" y="143"/>
      <point x="186" y="-16"/>
      <point x="384" y="-16" type="curve" smooth="yes"/>
      <point x="581" y="-16"/>
      <point x="742" y="143"/>
      <point x="742" y="343" type="curve" smooth="yes"/>
      <point x="742" y="543"/>
      <point x="581" y="704"/>
    </contour>
    <contour>
      <point x="384" y="631" type="curve" smooth="yes"/>
      <point x="533" y="631"/>
      <point x="653" y="502"/>
      <point x="653" y="343" type="curve" smooth="yes"/>
      <point x="653" y="184"/>
      <point x="533" y="57"/>
      <point x="384" y="57" type="curve" smooth="yes"/>
      <point x="234" y="57"/>
      <point x="113" y="184"/>
      <point x="113" y="343" type="curve" smooth="yes"/>
      <point x="113" y="502"/>
      <point x="234" y="631"/>
    </contour>
    <contour>
      <point x="562" y="392" type="line"/>
      <point x="562" y="555" type="line"/>
      <point x="506" y="555" type="line"/>
      <point x="496" y="538"/>
      <point x="494" y="534"/>
      <point x="496" y="534" type="curve"/>
      <point x="480" y="534"/>
      <point x="464" y="539"/>
      <point x="450" y="544" type="curve"/>
      <point x="432" y="548"/>
      <point x="415" y="555"/>
      <point x="394" y="555" type="curve" smooth="yes"/>
      <point x="262" y="555"/>
      <point x="173" y="467"/>
      <point x="173" y="340" type="curve" smooth="yes"/>
      <point x="173" y="215"/>
      <point x="258" y="131"/>
      <point x="391" y="131" type="curve" smooth="yes"/>
      <point x="463" y="131"/>
      <point x="519" y="159"/>
      <point x="574" y="220" type="curve"/>
      <point x="538" y="258" type="line"/>
      <point x="485" y="210"/>
      <point x="448" y="193"/>
      <point x="403" y="193" type="curve" smooth="yes"/>
      <point x="329" y="193"/>
      <point x="284" y="249"/>
      <point x="284" y="344" type="curve" smooth="yes"/>
      <point x="284" y="440"/>
      <point x="327" y="496"/>
      <point x="398" y="496" type="curve" smooth="yes"/>
      <point x="453" y="496"/>
      <point x="489" y="461"/>
      <point x="506" y="392" type="curve"/>
    </contour>
  </outline>
</glyph>
<glyph name="ordfeminine" format="1">
  <unicode hex="00AA"/>
  <advance width="406"/>
  <outline>
    <contour>
      <point x="286" y="688" type="line"/>
      <point x="284" y="683" type="line"/>
      <point x="272" y="689"/>
      <point x="255" y="693"/>
      <point x="234" y="693" type="curve" smooth="yes"/>
      <point x="138" y="693"/>
      <point x="27" y="579"/>
      <point x="27" y="480" type="curve" smooth="yes"/>
      <point x="27" y="428"/>
      <point x="63" y="395"/>
      <point x="123" y="395" type="curve" smooth="yes"/>
      <point x="160" y="395"/>
      <point x="186" y="403"/>
      <point x="213" y="428" type="curve"/>
      <point x="217" y="408"/>
      <point x="234" y="395"/>
      <point x="263" y="395" type="curve" smooth="yes"/>
      <point x="297" y="395"/>
      <point x="316" y="408"/>
      <point x="375" y="475" type="curve"/>
      <point x="347" y="513" type="line"/>
      <point x="323" y="486" type="line"/>
      <point x="330" y="518"/>
      <point x="347" y="586"/>
      <point x="379" y="693" type="curve"/>
    </contour>
    <contour>
      <point x="253" y="623" type="curve" smooth="yes" name="hr01"/>
      <point x="253" y="567"/>
      <point x="193" y="458"/>
      <point x="148" y="458" type="curve" smooth="yes"/>
      <point x="142" y="458"/>
      <point x="137" y="471"/>
      <point x="137" y="484" type="curve" smooth="yes"/>
      <point x="137" y="548"/>
      <point x="203" y="643"/>
      <point x="246" y="646" type="curve"/>
      <point x="251" y="645"/>
      <point x="253" y="636"/>
    </contour>
  </outline>
</glyph>
<glyph name="guillemotleft" format="1">
  <unicode hex="00AB"/>
  <advance width="475"/>
  <outline>
    <contour>
      <point x="23" y="226" type="line"/>
      <point x="36" y="204"/>
      <point x="173" y="37"/>
      <point x="189" y="37" type="curve" smooth="yes"/>
      <point x="202" y="37"/>
      <point x="215" y="46"/>
      <point x="215" y="58" type="curve" smooth="yes"/>
      <point x="215" y="70"/>
      <point x="190" y="125"/>
      <point x="136" y="229" type="curve"/>
      <point x="198" y="292" type="line"/>
      <point x="254" y="347"/>
      <point x="289" y="382"/>
      <point x="289" y="408" type="curve" smooth="yes"/>
      <point x="289" y="417"/>
      <point x="278" y="430"/>
      <point x="263" y="430" type="curve" smooth="yes"/>
      <point x="246" y="430"/>
      <point x="237" y="422"/>
      <point x="215" y="402" type="curve" smooth="yes"/>
      <point x="191" y="379"/>
      <point x="145" y="338"/>
      <point x="65" y="277" type="curve" smooth="yes"/>
      <point x="23" y="245" type="line"/>
    </contour>
    <contour>
      <point x="183" y="226" type="line"/>
      <point x="198" y="205"/>
      <point x="335" y="37"/>
      <point x="351" y="37" type="curve" smooth="yes"/>
      <point x="365" y="37"/>
      <point x="377" y="46"/>
      <point x="377" y="58" type="curve" smooth="yes"/>
      <point x="377" y="73"/>
      <point x="355" y="113"/>
      <point x="327" y="169" type="curve"/>
      <point x="317" y="187"/>
      <point x="307" y="208"/>
      <point x="296" y="229" type="curve"/>
      <point x="318" y="251"/>
      <point x="339" y="271"/>
      <point x="357" y="290" type="curve"/>
      <point x="415" y="347"/>
      <point x="450" y="382"/>
      <point x="450" y="408" type="curve" smooth="yes"/>
      <point x="450" y="417"/>
      <point x="439" y="430"/>
      <point x="424" y="430" type="curve" smooth="yes"/>
      <point x="408" y="430"/>
      <point x="400" y="422"/>
      <point x="376" y="400" type="curve" smooth="yes"/>
      <point x="351" y="378"/>
      <point x="308" y="339"/>
      <point x="227" y="277" type="curve"/>
      <point x="183" y="245" type="line"/>
    </contour>
  </outline>
</glyph>
<glyph name="logicalnot" format="1">
  <unicode hex="00AC"/>
  <advance width="589"/>
  <outline>
    <contour>
      <point x="458" y="107" type="line"/>
      <point x="562" y="107" type="line"/>
      <point x="562" y="413" type="line"/>
      <point x="21" y="413" type="line"/>
      <point x="21" y="317" type="line"/>
      <point x="458" y="317" type="line"/>
    </contour>
  </outline>
</glyph>
<glyph name="registered" format="1">
  <unicode hex="00AE"/>
  <advance width="767"/>
  <outline>
    <contour>
      <point x="384" y="705" type="curve" smooth="yes"/>
      <point x="187" y="705"/>
      <point x="25" y="544"/>
      <point x="25" y="344" type="curve" smooth="yes"/>
      <point x="25" y="144"/>
      <point x="187" y="-15"/>
      <point x="384" y="-15" type="curve" smooth="yes"/>
      <point x="581" y="-15"/>
      <point x="742" y="144"/>
      <point x="742" y="344" type="curve" smooth="yes"/>
      <point x="742" y="544"/>
      <point x="581" y="705"/>
    </contour>
    <contour>
      <point x="384" y="632" type="curve" smooth="yes"/>
      <point x="533" y="632"/>
      <point x="653" y="502"/>
      <point x="653" y="344" type="curve" smooth="yes"/>
      <point x="653" y="283"/>
      <point x="635" y="227"/>
      <point x="605" y="180" type="curve"/>
      <point x="605" y="197" type="line"/>
      <point x="576" y="200"/>
      <point x="561" y="208"/>
      <point x="541" y="231" type="curve" smooth="yes"/>
      <point x="450" y="338" type="line"/>
      <point x="508" y="355"/>
      <point x="542" y="393"/>
      <point x="542" y="444" type="curve" smooth="yes"/>
      <point x="542" y="527"/>
      <point x="488" y="561"/>
      <point x="361" y="561" type="curve" smooth="yes"/>
      <point x="206" y="561" type="line"/>
      <point x="253" y="605"/>
      <point x="316" y="632"/>
    </contour>
    <contour>
      <point x="238" y="485" type="curve"/>
      <point x="238" y="227" type="line" smooth="yes"/>
      <point x="238" y="203"/>
      <point x="227" y="198"/>
      <point x="180" y="195" type="curve"/>
      <point x="180" y="154" type="line"/>
      <point x="138" y="205"/>
      <point x="113" y="271"/>
      <point x="113" y="344" type="curve" smooth="yes"/>
      <point x="113" y="416"/>
      <point x="138" y="482"/>
      <point x="180" y="533" type="curve"/>
      <point x="180" y="518" type="line" name="hr01"/>
      <point x="227" y="515"/>
      <point x="238" y="509"/>
    </contour>
    <contour>
      <point x="479" y="152" type="line"/>
      <point x="584" y="152" type="line"/>
      <point x="535" y="94"/>
      <point x="463" y="58"/>
      <point x="384" y="58" type="curve" smooth="yes"/>
      <point x="303" y="58"/>
      <point x="231" y="94"/>
      <point x="182" y="152" type="curve"/>
      <point x="402" y="152" type="line"/>
      <point x="402" y="195" type="line"/>
      <point x="355" y="198"/>
      <point x="344" y="203"/>
      <point x="344" y="227" type="curve" smooth="yes"/>
      <point x="344" y="319" type="line"/>
    </contour>
    <contour>
      <point x="344" y="497" type="line" smooth="yes"/>
      <point x="344" y="502"/>
      <point x="344" y="502"/>
      <point x="364" y="502" type="curve" smooth="yes" name="hr02"/>
      <point x="410" y="502"/>
      <point x="433" y="482"/>
      <point x="433" y="443" type="curve" smooth="yes"/>
      <point x="433" y="399"/>
      <point x="408" y="381"/>
      <point x="344" y="381" type="curve"/>
    </contour>
  </outline>
</glyph>
<glyph name="uni00AF" format="1">
  <unicode hex="00AF"/>
  <unicode hex="02C9"/>
  <advance width="410"/>
  <outline>
    <contour>
      <point x="383" y="609" type="line"/>
      <point x="43" y="609" type="line"/>
      <point x="27" y="529" type="line"/>
      <point x="366" y="529" type="line"/>
    </contour>
  </outline>
</glyph>
<glyph name="degree" format="1">
  <unicode hex="00B0"/>
  <advance width="373"/>
  <outline>
    <contour>
      <point x="186" y="693" type="curve" smooth="yes"/>
      <point x="97" y="693"/>
      <point x="25" y="624"/>
      <point x="25" y="537" type="curve" smooth="yes"/>
      <point x="25" y="450"/>
      <point x="97" y="380"/>
      <point x="184" y="380" type="curve" smooth="yes"/>
      <point x="276" y="380"/>
      <point x="348" y="447"/>
      <point x="348" y="537" type="curve" smooth="yes"/>
      <point x="348" y="624"/>
      <point x="276" y="693"/>
    </contour>
    <contour>
      <point x="186" y="630" type="curve" smooth="yes"/>
      <point x="231" y="630"/>
      <point x="271" y="588"/>
      <point x="271" y="537" type="curve" smooth="yes"/>
      <point x="271" y="484"/>
      <point x="232" y="442"/>
      <point x="185" y="442" type="curve" smooth="yes"/>
      <point x="140" y="442"/>
      <point x="102" y="485"/>
      <point x="102" y="537" type="curve" smooth="yes"/>
      <point x="102" y="588"/>
      <point x="140" y="630"/>
    </contour>
  </outline>
</glyph>
<glyph name="plusminus" format="1">
  <unicode hex="00B1"/>
  <advance width="589"/>
  <outline>
    <contour>
      <point x="24" y="281" type="line"/>
      <point x="242" y="281" type="line"/>
      <point x="242" y="122" type="line"/>
      <point x="347" y="122" type="line"/>
      <point x="347" y="281" type="line"/>
      <point x="565" y="281" type="line"/>
      <point x="565" y="376" type="line"/>
      <point x="347" y="376" type="line"/>
      <point x="347" y="595" type="line"/>
      <point x="242" y="595" type="line"/>
      <point x="242" y="376" type="line"/>
      <point x="24" y="376" type="line"/>
    </contour>
    <contour>
      <point x="24" y="0" type="line"/>
      <point x="565" y="0" type="line"/>
      <point x="565" y="94" type="line"/>
      <point x="24" y="94" type="line"/>
    </contour>
  </outline>
</glyph>
<glyph name="twosuperior" format="1">
  <unicode hex="00B2"/>
  <advance width="377"/>
  <outline>
    <contour>
      <point x="285" y="386" type="line"/>
      <point x="267" y="351"/>
      <point x="256" y="342"/>
      <point x="231" y="342" type="curve" smooth="yes"/>
      <point x="154" y="342" type="line"/>
      <point x="248" y="432" type="line" smooth="yes"/>
      <point x="339" y="521"/>
      <point x="352" y="538"/>
      <point x="352" y="579" type="curve" smooth="yes"/>
      <point x="352" y="640"/>
      <point x="294" y="693"/>
      <point x="222" y="693" type="curve" smooth="yes"/>
      <point x="157" y="693"/>
      <point x="97" y="656"/>
      <point x="65" y="577" type="curve"/>
      <point x="106" y="554" type="line"/>
      <point x="139" y="597"/>
      <point x="163" y="614"/>
      <point x="190" y="614" type="curve" smooth="yes"/>
      <point x="223" y="614"/>
      <point x="249" y="591"/>
      <point x="249" y="561" type="curve" smooth="yes"/>
      <point x="249" y="532"/>
      <point x="220" y="490"/>
      <point x="163" y="432" type="curve"/>
      <point x="24" y="297" type="line"/>
      <point x="24" y="262" type="line"/>
      <point x="288" y="262" type="line"/>
      <point x="328" y="359" type="line"/>
    </contour>
  </outline>
</glyph>
<glyph name="threesuperior" format="1">
  <unicode hex="00B3"/>
  <advance width="382"/>
  <outline>
    <contour>
      <point x="153" y="591" type="line"/>
      <point x="185" y="621"/>
      <point x="203" y="632"/>
      <point x="222" y="632" type="curve" smooth="yes"/>
      <point x="239" y="632"/>
      <point x="252" y="617"/>
      <point x="252" y="595" type="curve" smooth="yes"/>
      <point x="252" y="558"/>
      <point x="205" y="530"/>
      <point x="106" y="513" type="curve"/>
      <point x="106" y="478" type="line" name="hr01"/>
      <point x="176" y="478"/>
      <point x="218" y="454"/>
      <point x="218" y="397" type="curve" smooth="yes"/>
      <point x="218" y="352"/>
      <point x="190" y="317"/>
      <point x="154" y="317" type="curve"/>
      <point x="123" y="334" type="line"/>
      <point x="124" y="334" type="line"/>
      <point x="105" y="344"/>
      <point x="85" y="354"/>
      <point x="72" y="354" type="curve" smooth="yes" name="hr02"/>
      <point x="46" y="354"/>
      <point x="24" y="334"/>
      <point x="24" y="312" type="curve" smooth="yes"/>
      <point x="24" y="277"/>
      <point x="56" y="259"/>
      <point x="115" y="259" type="curve" smooth="yes"/>
      <point x="235" y="259"/>
      <point x="319" y="328"/>
      <point x="319" y="429" type="curve" smooth="yes"/>
      <point x="319" y="469"/>
      <point x="313" y="490"/>
      <point x="274" y="514" type="curve"/>
      <point x="337" y="539"/>
      <point x="357" y="564"/>
      <point x="357" y="603" type="curve" smooth="yes" name="hr03"/>
      <point x="357" y="653"/>
      <point x="307" y="693"/>
      <point x="243" y="693" type="curve" smooth="yes"/>
      <point x="190" y="693"/>
      <point x="142" y="663"/>
      <point x="116" y="614" type="curve"/>
    </contour>
  </outline>
</glyph>
<glyph name="acute" format="1">
  <unicode hex="00B4"/>
  <advance width="324"/>
  <outline>
    <contour>
      <point x="22" y="492" type="line"/>
      <point x="103" y="492" type="line"/>
      <point x="276" y="599" type="line" smooth="yes"/>
      <point x="294" y="611"/>
      <point x="301" y="623"/>
      <point x="301" y="639" type="curve" smooth="yes"/>
      <point x="301" y="668"/>
      <point x="277" y="689"/>
      <point x="247" y="689" type="curve" smooth="yes"/>
      <point x="231" y="689"/>
      <point x="219" y="686"/>
      <point x="208" y="676" type="curve" smooth="yes"/>
    </contour>
  </outline>
</glyph>
<glyph name="uni00B5" format="1">
  <unicode hex="00B5"/>
  <unicode hex="03BC"/>
  <advance width="628"/>
  <outline>
    <contour>
      <point x="592" y="455" type="line"/>
      <point x="466" y="455" type="line"/>
      <point x="392" y="134" type="line"/>
      <point x="360" y="95"/>
      <point x="324" y="74"/>
      <point x="288" y="74" type="curve" smooth="yes"/>
      <point x="256" y="74"/>
      <point x="238" y="99"/>
      <point x="238" y="130" type="curve" smooth="yes"/>
      <point x="238" y="138"/>
      <point x="239" y="147"/>
      <point x="241" y="154" type="curve" smooth="yes"/>
      <point x="311" y="455" type="line"/>
      <point x="185" y="455" type="line"/>
      <point x="98" y="72" type="line"/>
      <point x="99" y="73" type="line"/>
      <point x="94" y="55"/>
      <point x="82" y="21"/>
      <point x="68" y="-15" type="curve" smooth="yes"/>
      <point x="48" y="-65"/>
      <point x="26" y="-119"/>
      <point x="26" y="-141" type="curve" smooth="yes"/>
      <point x="26" y="-189"/>
      <point x="43" y="-208"/>
      <point x="79" y="-208" type="curve" smooth="yes"/>
      <point x="134" y="-208"/>
      <point x="168" y="-147"/>
      <point x="168" y="-51" type="curve" smooth="yes"/>
      <point x="168" y="-40"/>
      <point x="168" y="-21"/>
      <point x="167" y="-5" type="curve"/>
      <point x="167" y="4"/>
      <point x="167" y="12"/>
      <point x="166" y="18" type="curve"/>
      <point x="187" y="-1"/>
      <point x="215" y="-11"/>
      <point x="253" y="-11" type="curve" smooth="yes"/>
      <point x="299" y="-11"/>
      <point x="341" y="8"/>
      <point x="383" y="46" type="curve"/>
      <point x="389" y="10"/>
      <point x="414" y="-11"/>
      <point x="459" y="-11" type="curve" smooth="yes"/>
      <point x="505" y="-11"/>
      <point x="534" y="7"/>
      <point x="583" y="57" type="curve"/>
      <point x="602" y="117" type="line"/>
      <point x="547" y="75"/>
      <point x="523" y="58"/>
      <point x="512" y="58" type="curve" smooth="yes"/>
      <point x="507" y="58"/>
      <point x="505" y="65"/>
      <point x="505" y="74" type="curve" smooth="yes"/>
      <point x="505" y="82"/>
      <point x="506" y="90"/>
      <point x="509" y="97" type="curve"/>
    </contour>
  </outline>
</glyph>
<glyph name="paragraph" format="1">
  <unicode hex="00B6"/>
  <advance width="651"/>
  <outline>
    <contour>
      <point x="628" y="679" type="line"/>
      <point x="349" y="679" type="line" smooth="yes"/>
      <point x="150" y="679"/>
      <point x="63" y="568"/>
      <point x="63" y="415" type="curve" smooth="yes"/>
      <point x="63" y="337"/>
      <point x="112" y="292"/>
      <point x="212" y="283" type="curve"/>
      <point x="124" y="-58"/>
      <point x="123" y="-60"/>
      <point x="114" y="-62" type="curve"/>
      <point x="106" y="-67"/>
      <point x="88" y="-69"/>
      <point x="33" y="-74" type="curve"/>
      <point x="25" y="-123" type="line"/>
      <point x="208" y="-123" type="line"/>
      <point x="407" y="628" type="line"/>
      <point x="427" y="628" type="line"/>
      <point x="228" y="-123" type="line"/>
      <point x="414" y="-123" type="line"/>
      <point x="426" y="-75" type="line"/>
      <point x="373" y="-70"/>
      <point x="351" y="-68"/>
      <point x="351" y="-60" type="curve" smooth="yes"/>
      <point x="351" y="-50"/>
      <point x="354" y="-34"/>
      <point x="364" y="-5" type="curve"/>
      <point x="520" y="582" type="line"/>
      <point x="529" y="621"/>
      <point x="539" y="624"/>
      <point x="614" y="629" type="curve"/>
    </contour>
    <contour>
      <point x="179" y="418" type="curve" smooth="yes"/>
      <point x="179" y="510"/>
      <point x="226" y="602"/>
      <point x="300" y="623" type="curve"/>
      <point x="230" y="335" type="line"/>
      <point x="192" y="347"/>
      <point x="179" y="379"/>
    </contour>
  </outline>
</glyph>
<glyph name="periodcentered" format="1">
  <unicode hex="00B7"/>
  <unicode hex="2219"/>
  <advance width="201"/>
  <outline>
    <contour>
      <point x="100" y="338" type="curve" smooth="yes"/>
      <point x="60" y="338"/>
      <point x="25" y="305"/>
      <point x="25" y="267" type="curve" smooth="yes"/>
      <point x="25" y="230"/>
      <point x="60" y="198"/>
      <point x="99" y="198" type="curve" smooth="yes"/>
      <point x="140" y="198"/>
      <point x="175" y="230"/>
      <point x="175" y="267" type="curve" smooth="yes"/>
      <point x="175" y="305"/>
      <point x="140" y="338"/>
    </contour>
  </outline>
</glyph>
<glyph name="cedilla" format="1">
  <unicode hex="00B8"/>
  <advance width="308"/>
  <outline>
    <contour>
      <point x="80" y="-83" type="line"/>
      <point x="103" y="-106" type="line"/>
      <point x="123" y="-100"/>
      <point x="134" y="-97"/>
      <point x="142" y="-97" type="curve" smooth="yes"/>
      <point x="157" y="-97"/>
      <point x="168" y="-108"/>
      <point x="168" y="-127" type="curve" smooth="yes"/>
      <point x="168" y="-143"/>
      <point x="156" y="-152"/>
      <point x="136" y="-152" type="curve" smooth="yes"/>
      <point x="117" y="-152"/>
      <point x="97" y="-148"/>
      <point x="57" y="-133" type="curve"/>
      <point x="26" y="-187" type="line"/>
      <point x="83" y="-209"/>
      <point x="111" y="-216"/>
      <point x="143" y="-216" type="curve" smooth="yes"/>
      <point x="223" y="-216"/>
      <point x="281" y="-175"/>
      <point x="281" y="-116" type="curve" smooth="yes"/>
      <point x="281" y="-68"/>
      <point x="244" y="-35"/>
      <point x="187" y="-34" type="curve" name="hr01"/>
      <point x="230" y="29" type="line" name="hr02"/>
      <point x="148" y="29" type="line"/>
    </contour>
  </outline>
</glyph>
<glyph name="onesuperior" format="1">
  <unicode hex="00B9"/>
  <advance width="326"/>
  <outline>
    <contour>
      <point x="242" y="304" type="line"/>
      <point x="203" y="305"/>
      <point x="192" y="307"/>
      <point x="192" y="312" type="curve" smooth="yes"/>
      <point x="192" y="320"/>
      <point x="200" y="345"/>
      <point x="210" y="382" type="curve"/>
      <point x="210" y="381" type="line"/>
      <point x="296" y="653" type="line"/>
      <point x="300" y="662"/>
      <point x="301" y="670"/>
      <point x="301" y="673" type="curve" smooth="yes"/>
      <point x="301" y="680"/>
      <point x="291" y="693"/>
      <point x="272" y="693" type="curve"/>
      <point x="265" y="692"/>
      <point x="246" y="690"/>
      <point x="222" y="686" type="curve" smooth="yes"/>
      <point x="128" y="668" type="line"/>
      <point x="128" y="622" type="line"/>
      <point x="184" y="624" type="line"/>
      <point x="182" y="623"/>
      <point x="181" y="623"/>
      <point x="181" y="622" type="curve"/>
      <point x="181" y="618"/>
      <point x="180" y="615"/>
      <point x="178" y="604" type="curve"/>
      <point x="88" y="320" type="line"/>
      <point x="85" y="313"/>
      <point x="72" y="309"/>
      <point x="23" y="303" type="curve"/>
      <point x="23" y="262" type="line"/>
      <point x="242" y="262" type="line"/>
    </contour>
  </outline>
</glyph>
<glyph name="ordmasculine" format="1">
  <unicode hex="00BA"/>
  <advance width="384"/>
  <outline>
    <contour>
      <point x="243" y="693" type="curve" smooth="yes"/>
      <point x="133" y="693"/>
      <point x="25" y="595"/>
      <point x="25" y="493" type="curve" smooth="yes"/>
      <point x="25" y="434"/>
      <point x="71" y="395"/>
      <point x="142" y="395" type="curve" smooth="yes"/>
      <point x="249" y="395"/>
      <point x="359" y="497"/>
      <point x="359" y="595" type="curve" smooth="yes"/>
      <point x="359" y="652"/>
      <point x="309" y="693"/>
    </contour>
    <contour>
      <point x="246" y="611" type="curve" smooth="yes"/>
      <point x="246" y="547"/>
      <point x="206" y="448"/>
      <point x="156" y="448" type="curve" smooth="yes"/>
      <point x="144" y="448"/>
      <point x="137" y="460"/>
      <point x="137" y="480" type="curve" smooth="yes"/>
      <point x="137" y="555"/>
      <point x="187" y="642"/>
      <point x="232" y="642" type="curve" smooth="yes"/>
      <point x="242" y="642"/>
      <point x="246" y="631"/>
    </contour>
  </outline>
</glyph>
<glyph name="guillemotright" format="1">
  <unicode hex="00BB"/>
  <advance width="476"/>
  <outline>
    <contour>
      <point x="453" y="242" type="line"/>
      <point x="440" y="261"/>
      <point x="306" y="430"/>
      <point x="284" y="430" type="curve" smooth="yes"/>
      <point x="271" y="430"/>
      <point x="258" y="419"/>
      <point x="258" y="409" type="curve" smooth="yes"/>
      <point x="258" y="397"/>
      <point x="284" y="340"/>
      <point x="337" y="238" type="curve"/>
      <point x="283" y="183" type="line" smooth="yes"/>
      <point x="223" y="123"/>
      <point x="185" y="84"/>
      <point x="185" y="59" type="curve" smooth="yes"/>
      <point x="185" y="48"/>
      <point x="198" y="37"/>
      <point x="212" y="37" type="curve" smooth="yes"/>
      <point x="232" y="37"/>
      <point x="237" y="44"/>
      <point x="264" y="68" type="curve" smooth="yes"/>
      <point x="291" y="92"/>
      <point x="348" y="141"/>
      <point x="453" y="222" type="curve"/>
    </contour>
    <contour>
      <point x="290" y="241" type="line"/>
      <point x="279" y="260"/>
      <point x="139" y="430"/>
      <point x="124" y="430" type="curve" smooth="yes"/>
      <point x="107" y="430"/>
      <point x="97" y="419"/>
      <point x="97" y="409" type="curve" smooth="yes"/>
      <point x="97" y="397"/>
      <point x="122" y="340"/>
      <point x="176" y="238" type="curve"/>
      <point x="161" y="222"/>
      <point x="146" y="208"/>
      <point x="133" y="195" type="curve" smooth="yes"/>
      <point x="67" y="128"/>
      <point x="25" y="85"/>
      <point x="25" y="59" type="curve" smooth="yes"/>
      <point x="25" y="48"/>
      <point x="33" y="37"/>
      <point x="50" y="37" type="curve" smooth="yes"/>
      <point x="68" y="37"/>
      <point x="76" y="43"/>
      <point x="104" y="68" type="curve"/>
      <point x="103" y="68" type="line"/>
      <point x="130" y="92"/>
      <point x="186" y="142"/>
      <point x="290" y="222" type="curve"/>
    </contour>
  </outline>
</glyph>
<glyph name="onequarter" format="1">
  <unicode hex="00BC"/>
  <advance width="793"/>
  <outline>
    <contour>
      <point x="741" y="175" type="line"/>
      <point x="688" y="175" type="line"/>
      <point x="768" y="432" type="line"/>
      <point x="698" y="432" type="line"/>
      <point x="420" y="168" type="line"/>
      <point x="399" y="105" type="line"/>
      <point x="567" y="105" type="line"/>
      <point x="536" y="0" type="line" name="hr01"/>
      <point x="638" y="0" type="line"/>
      <point x="667" y="104" type="line"/>
      <point x="728" y="104" type="line"/>
    </contour>
    <contour>
      <point x="687" y="702" type="line"/>
      <point x="594" y="702" type="line"/>
      <point x="122" y="-11" type="line" name="hr02"/>
      <point x="214" y="-11" type="line"/>
    </contour>
    <contour>
      <point x="242" y="304" type="line"/>
      <point x="204" y="305"/>
      <point x="194" y="307"/>
      <point x="194" y="312" type="curve" smooth="yes"/>
      <point x="194" y="319"/>
      <point x="200" y="345"/>
      <point x="298" y="653" type="curve" smooth="yes"/>
      <point x="301" y="661"/>
      <point x="302" y="668"/>
      <point x="302" y="673" type="curve" smooth="yes" name="hr03"/>
      <point x="302" y="683"/>
      <point x="292" y="693"/>
      <point x="278" y="693" type="curve" smooth="yes"/>
      <point x="263" y="693"/>
      <point x="256" y="690"/>
      <point x="238" y="688" type="curve"/>
      <point x="231" y="686"/>
      <point x="222" y="685"/>
      <point x="213" y="683" type="curve" name="hr04"/>
      <point x="214" y="683" type="line"/>
      <point x="129" y="668" type="line"/>
      <point x="129" y="622" type="line"/>
      <point x="185" y="624" type="line"/>
      <point x="184" y="624"/>
      <point x="183" y="623"/>
      <point x="183" y="622" type="curve"/>
      <point x="183" y="619"/>
      <point x="182" y="616"/>
      <point x="139" y="478" type="curve" smooth="yes"/>
      <point x="90" y="320" type="line"/>
      <point x="87" y="313"/>
      <point x="73" y="309"/>
      <point x="24" y="303" type="curve"/>
      <point x="24" y="262" type="line"/>
      <point x="242" y="262" type="line"/>
    </contour>
    <contour>
      <point x="511" y="175" type="line"/>
      <point x="620" y="282" type="line"/>
      <point x="586" y="175" type="line"/>
    </contour>
  </outline>
</glyph>
<glyph name="onehalf" format="1">
  <unicode hex="00BD"/>
  <advance width="799"/>
  <outline>
    <contour>
      <point x="711" y="124" type="line"/>
      <point x="691" y="89"/>
      <point x="679" y="82"/>
      <point x="653" y="82" type="curve" smooth="yes"/>
      <point x="579" y="82" type="line"/>
      <point x="671" y="172" type="line"/>
      <point x="763" y="260"/>
      <point x="774" y="278"/>
      <point x="774" y="316" type="curve" smooth="yes"/>
      <point x="774" y="380"/>
      <point x="717" y="432"/>
      <point x="646" y="432" type="curve" smooth="yes"/>
      <point x="585" y="432"/>
      <point x="526" y="404"/>
      <point x="490" y="318" type="curve"/>
      <point x="528" y="292" type="line"/>
      <point x="561" y="336"/>
      <point x="586" y="353"/>
      <point x="614" y="353" type="curve" smooth="yes"/>
      <point x="646" y="353"/>
      <point x="672" y="329"/>
      <point x="672" y="299" type="curve" smooth="yes"/>
      <point x="672" y="272"/>
      <point x="642" y="229"/>
      <point x="586" y="173" type="curve"/>
      <point x="446" y="37" type="line"/>
      <point x="446" y="0" type="line"/>
      <point x="710" y="0" type="line"/>
      <point x="750" y="97" type="line"/>
    </contour>
    <contour>
      <point x="687" y="702" type="line"/>
      <point x="594" y="702" type="line"/>
      <point x="122" y="-11" type="line" name="hr01"/>
      <point x="214" y="-11" type="line"/>
    </contour>
    <contour>
      <point x="242" y="304" type="line"/>
      <point x="204" y="305"/>
      <point x="194" y="307"/>
      <point x="194" y="312" type="curve" smooth="yes"/>
      <point x="194" y="318"/>
      <point x="200" y="343"/>
      <point x="212" y="381" type="curve" smooth="yes"/>
      <point x="298" y="653" type="line" smooth="yes"/>
      <point x="301" y="661"/>
      <point x="302" y="668"/>
      <point x="302" y="673" type="curve" smooth="yes" name="hr02"/>
      <point x="302" y="687"/>
      <point x="297" y="693"/>
      <point x="278" y="693" type="curve" smooth="yes"/>
      <point x="263" y="693"/>
      <point x="242" y="688"/>
      <point x="211" y="683" type="curve" smooth="yes"/>
      <point x="190" y="679"/>
      <point x="153" y="672"/>
      <point x="129" y="668" type="curve"/>
      <point x="129" y="622" type="line"/>
      <point x="184" y="624" type="line"/>
      <point x="183" y="624"/>
      <point x="183" y="622"/>
      <point x="183" y="620" type="curve"/>
      <point x="204" y="620" type="line"/>
      <point x="182" y="618" type="line"/>
      <point x="180" y="612"/>
      <point x="178" y="603"/>
      <point x="179" y="604" type="curve"/>
      <point x="90" y="320" type="line"/>
      <point x="87" y="313"/>
      <point x="73" y="309"/>
      <point x="24" y="303" type="curve"/>
      <point x="24" y="262" type="line"/>
      <point x="242" y="262" type="line"/>
    </contour>
    <contour>
      <point x="183" y="621" type="curve"/>
      <point x="182" y="618" type="line"/>
      <point x="182" y="618"/>
      <point x="183" y="620"/>
    </contour>
  </outline>
</glyph>
<glyph name="threequarters" format="1">
  <unicode hex="00BE"/>
  <advance width="803"/>
  <outline>
    <contour>
      <point x="751" y="175" type="line"/>
      <point x="698" y="175" type="line"/>
      <point x="778" y="432" type="line"/>
      <point x="708" y="432" type="line"/>
      <point x="430" y="168" type="line"/>
      <point x="409" y="105" type="line"/>
      <point x="577" y="105" type="line"/>
      <point x="546" y="0" type="line" name="hr01"/>
      <point x="648" y="0" type="line"/>
      <point x="677" y="104" type="line"/>
      <point x="738" y="104" type="line"/>
    </contour>
    <contour>
      <point x="697" y="702" type="line"/>
      <point x="604" y="702" type="line"/>
      <point x="132" y="-11" type="line" name="hr02"/>
      <point x="224" y="-11" type="line"/>
    </contour>
    <contour>
      <point x="151" y="592" type="line"/>
      <point x="184" y="621"/>
      <point x="201" y="632"/>
      <point x="221" y="632" type="curve" smooth="yes" name="hr03"/>
      <point x="239" y="632"/>
      <point x="252" y="617"/>
      <point x="252" y="595" type="curve" smooth="yes"/>
      <point x="252" y="558"/>
      <point x="204" y="530"/>
      <point x="106" y="513" type="curve"/>
      <point x="106" y="478" type="line" name="hr04"/>
      <point x="179" y="478"/>
      <point x="218" y="454"/>
      <point x="218" y="397" type="curve" smooth="yes"/>
      <point x="218" y="352"/>
      <point x="191" y="317"/>
      <point x="153" y="317" type="curve" smooth="yes"/>
      <point x="150" y="317"/>
      <point x="135" y="325"/>
      <point x="121" y="334" type="curve"/>
      <point x="103" y="343"/>
      <point x="89" y="354"/>
      <point x="74" y="354" type="curve" smooth="yes" name="hr05"/>
      <point x="46" y="354"/>
      <point x="24" y="334"/>
      <point x="24" y="312" type="curve" smooth="yes"/>
      <point x="24" y="277"/>
      <point x="57" y="259"/>
      <point x="116" y="259" type="curve" smooth="yes"/>
      <point x="234" y="259"/>
      <point x="319" y="328"/>
      <point x="319" y="429" type="curve" smooth="yes"/>
      <point x="319" y="467"/>
      <point x="313" y="488"/>
      <point x="273" y="514" type="curve"/>
      <point x="336" y="539"/>
      <point x="357" y="564"/>
      <point x="357" y="603" type="curve" smooth="yes" name="hr06"/>
      <point x="357" y="653"/>
      <point x="308" y="693"/>
      <point x="244" y="693" type="curve" smooth="yes"/>
      <point x="191" y="693"/>
      <point x="143" y="663"/>
      <point x="115" y="614" type="curve"/>
    </contour>
    <contour>
      <point x="521" y="175" type="line"/>
      <point x="630" y="282" type="line"/>
      <point x="596" y="175" type="line"/>
    </contour>
  </outline>
</glyph>
<glyph name="questiondown" format="1">
  <unicode hex="00BF"/>
  <advance width="423"/>
  <outline>
    <contour>
      <point x="280" y="311" type="line"/>
      <point x="271" y="270" type="line"/>
      <point x="272" y="271" type="line"/>
      <point x="258" y="216"/>
      <point x="229" y="184"/>
      <point x="162" y="128" type="curve"/>
      <point x="163" y="128" type="line"/>
      <point x="42" y="33"/>
      <point x="22" y="1"/>
      <point x="22" y="-62" type="curve" smooth="yes"/>
      <point x="22" y="-150"/>
      <point x="87" y="-205"/>
      <point x="187" y="-205" type="curve" smooth="yes"/>
      <point x="282" y="-205"/>
      <point x="347" y="-155"/>
      <point x="347" y="-83" type="curve" smooth="yes"/>
      <point x="347" y="-43"/>
      <point x="324" y="-21"/>
      <point x="290" y="-21" type="curve" smooth="yes"/>
      <point x="254" y="-21"/>
      <point x="230" y="-41"/>
      <point x="230" y="-70" type="curve" smooth="yes"/>
      <point x="230" y="-78"/>
      <point x="234" y="-90"/>
      <point x="239" y="-102" type="curve"/>
      <point x="241" y="-111"/>
      <point x="245" y="-120"/>
      <point x="245" y="-123" type="curve" smooth="yes"/>
      <point x="245" y="-144"/>
      <point x="226" y="-155"/>
      <point x="194" y="-155" type="curve" smooth="yes" name="hr01"/>
      <point x="156" y="-155"/>
      <point x="134" y="-130"/>
      <point x="134" y="-86" type="curve" smooth="yes"/>
      <point x="134" y="-35"/>
      <point x="156" y="2"/>
      <point x="216" y="69" type="curve" smooth="yes"/>
      <point x="305" y="168"/>
      <point x="313" y="195"/>
      <point x="334" y="308" type="curve"/>
    </contour>
    <contour>
      <point x="326" y="498" type="curve" smooth="yes"/>
      <point x="286" y="498"/>
      <point x="255" y="466"/>
      <point x="255" y="432" type="curve" smooth="yes"/>
      <point x="255" y="396"/>
      <point x="286" y="364"/>
      <point x="327" y="364" type="curve" smooth="yes"/>
      <point x="366" y="364"/>
      <point x="398" y="395"/>
      <point x="398" y="432" type="curve" smooth="yes"/>
      <point x="398" y="468"/>
      <point x="366" y="498"/>
    </contour>
  </outline>
</glyph>
<glyph name="Agrave" format="1">
  <unicode hex="00C0"/>
  <advance width="677"/>
  <outline>
    <contour>
      <point x="652" y="43" type="line"/>
      <point x="594" y="49"/>
      <point x="587" y="55"/>
      <point x="577" y="119" type="curve"/>
      <point x="577" y="118" type="line"/>
      <point x="482" y="693" type="line"/>
      <point x="425" y="693" type="line"/>
      <point x="132" y="189" type="line"/>
      <point x="59" y="60"/>
      <point x="44" y="51"/>
      <point x="0" y="41" type="curve"/>
      <point x="0" y="0" type="line"/>
      <point x="227" y="0" type="line"/>
      <point x="227" y="43" type="line"/>
      <point x="175" y="49"/>
      <point x="166" y="52"/>
      <point x="166" y="66" type="curve" smooth="yes"/>
      <point x="166" y="81"/>
      <point x="170" y="89"/>
      <point x="185" y="120" type="curve" smooth="yes"/>
      <point x="238" y="225" type="line"/>
      <point x="426" y="225" type="line"/>
      <point x="445" y="107" type="line"/>
      <point x="445" y="108" type="line"/>
      <point x="446" y="99"/>
      <point x="447" y="89"/>
      <point x="447" y="82" type="curve" smooth="yes"/>
      <point x="447" y="56"/>
      <point x="433" y="49"/>
      <point x="368" y="43" type="curve"/>
      <point x="368" y="0" type="line"/>
      <point x="652" y="0" type="line"/>
    </contour>
    <contour>
      <point x="490" y="701" type="line"/>
      <point x="562" y="701" type="line"/>
      <point x="428" y="872" type="line"/>
      <point x="411" y="892"/>
      <point x="395" y="900"/>
      <point x="374" y="900" type="curve" smooth="yes"/>
      <point x="343" y="900"/>
      <point x="321" y="880"/>
      <point x="321" y="852" type="curve" smooth="yes"/>
      <point x="321" y="837"/>
      <point x="328" y="826"/>
      <point x="342" y="813" type="curve"/>
    </contour>
    <contour>
      <point x="384" y="479" type="line"/>
      <point x="416" y="290" type="line"/>
      <point x="274" y="290" type="line"/>
    </contour>
  </outline>
</glyph>
<glyph name="Atilde" format="1">
  <unicode hex="00C3"/>
  <advance width="677"/>
  <outline>
    <contour>
      <point x="652" y="43" type="line"/>
      <point x="594" y="49"/>
      <point x="587" y="55"/>
      <point x="577" y="119" type="curve"/>
      <point x="577" y="118" type="line"/>
      <point x="482" y="693" type="line"/>
      <point x="425" y="693" type="line"/>
      <point x="132" y="189" type="line"/>
      <point x="59" y="60"/>
      <point x="44" y="51"/>
      <point x="0" y="41" type="curve"/>
      <point x="0" y="0" type="line"/>
      <point x="227" y="0" type="line"/>
      <point x="227" y="43" type="line"/>
      <point x="175" y="49"/>
      <point x="166" y="52"/>
      <point x="166" y="66" type="curve" smooth="yes"/>
      <point x="166" y="81"/>
      <point x="170" y="89"/>
      <point x="185" y="120" type="curve" smooth="yes"/>
      <point x="238" y="225" type="line"/>
      <point x="426" y="225" type="line"/>
      <point x="445" y="107" type="line"/>
      <point x="445" y="108" type="line"/>
      <point x="446" y="99"/>
      <point x="447" y="89"/>
      <point x="447" y="82" type="curve" smooth="yes"/>
      <point x="447" y="56"/>
      <point x="433" y="49"/>
      <point x="368" y="43" type="curve"/>
      <point x="368" y="0" type="line"/>
      <point x="652" y="0" type="line"/>
    </contour>
    <contour>
      <point x="591" y="861" type="line"/>
      <point x="580" y="828"/>
      <point x="571" y="817"/>
      <point x="556" y="817" type="curve" smooth="yes"/>
      <point x="550" y="817"/>
      <point x="524" y="826"/>
      <point x="496" y="836" type="curve" smooth="yes"/>
      <point x="462" y="848"/>
      <point x="429" y="860"/>
      <point x="409" y="860" type="curve" smooth="yes" name="hr01"/>
      <point x="344" y="860"/>
      <point x="312" y="824"/>
      <point x="286" y="726" type="curve"/>
      <point x="354" y="726" type="line"/>
      <point x="364" y="758"/>
      <point x="374" y="773"/>
      <point x="389" y="773" type="curve"/>
      <point x="388" y="773"/>
      <point x="397" y="769"/>
      <point x="413" y="764" type="curve" smooth="yes"/>
      <point x="450" y="752"/>
      <point x="508" y="730"/>
      <point x="540" y="730" type="curve" smooth="yes"/>
      <point x="600" y="730"/>
      <point x="640" y="775"/>
      <point x="658" y="861" type="curve" name="hr02"/>
    </contour>
    <contour>
      <point x="384" y="479" type="line"/>
      <point x="416" y="290" type="line"/>
      <point x="274" y="290" type="line"/>
    </contour>
  </outline>
</glyph>
<glyph name="Aring" format="1">
  <unicode hex="00C5"/>
  <advance width="677"/>
  <outline>
    <contour>
      <point x="652" y="43" type="line"/>
      <point x="594" y="49"/>
      <point x="587" y="55"/>
      <point x="577" y="119" type="curve"/>
      <point x="577" y="118" type="line"/>
      <point x="482" y="693" type="line"/>
      <point x="425" y="693" type="line"/>
      <point x="132" y="189" type="line"/>
      <point x="59" y="60"/>
      <point x="44" y="51"/>
      <point x="0" y="41" type="curve"/>
      <point x="0" y="0" type="line"/>
      <point x="227" y="0" type="line"/>
      <point x="227" y="43" type="line"/>
      <point x="175" y="49"/>
      <point x="166" y="52"/>
      <point x="166" y="66" type="curve" smooth="yes"/>
      <point x="166" y="81"/>
      <point x="170" y="89"/>
      <point x="185" y="120" type="curve" smooth="yes"/>
      <point x="238" y="225" type="line"/>
      <point x="426" y="225" type="line"/>
      <point x="445" y="107" type="line"/>
      <point x="445" y="108" type="line"/>
      <point x="446" y="99"/>
      <point x="447" y="89"/>
      <point x="447" y="82" type="curve" smooth="yes"/>
      <point x="447" y="56"/>
      <point x="433" y="49"/>
      <point x="368" y="43" type="curve"/>
      <point x="368" y="0" type="line"/>
      <point x="652" y="0" type="line"/>
    </contour>
    <contour>
      <point x="458" y="924" type="curve" smooth="yes"/>
      <point x="393" y="924"/>
      <point x="339" y="872"/>
      <point x="339" y="811" type="curve" smooth="yes"/>
      <point x="339" y="746"/>
      <point x="391" y="697"/>
      <point x="459" y="697" type="curve" smooth="yes"/>
      <point x="524" y="697"/>
      <point x="577" y="748"/>
      <point x="577" y="810" type="curve" smooth="yes"/>
      <point x="577" y="872"/>
      <point x="523" y="924"/>
    </contour>
    <contour>
      <point x="384" y="479" type="line"/>
      <point x="416" y="290" type="line"/>
      <point x="274" y="290" type="line"/>
    </contour>
    <contour>
      <point x="458" y="861" type="curve" smooth="yes"/>
      <point x="484" y="861"/>
      <point x="505" y="838"/>
      <point x="505" y="810" type="curve" smooth="yes"/>
      <point x="505" y="782"/>
      <point x="484" y="760"/>
      <point x="458" y="760" type="curve" smooth="yes"/>
      <point x="433" y="760"/>
      <point x="412" y="782"/>
      <point x="412" y="811" type="curve" smooth="yes"/>
      <point x="412" y="838"/>
      <point x="434" y="861"/>
    </contour>
  </outline>
</glyph>
<glyph name="AE" format="1">
  <unicode hex="00C6"/>
  <advance width="987"/>
  <outline>
    <contour>
      <point x="859" y="200" type="line"/>
      <point x="781" y="89"/>
      <point x="730" y="61"/>
      <point x="589" y="61" type="curve" smooth="yes"/>
      <point x="559" y="61" type="line" smooth="yes"/>
      <point x="538" y="61"/>
      <point x="529" y="66"/>
      <point x="529" y="76" type="curve" smooth="yes"/>
      <point x="529" y="87"/>
      <point x="541" y="133"/>
      <point x="595" y="326" type="curve"/>
      <point x="620" y="326" type="line" smooth="yes"/>
      <point x="700" y="326"/>
      <point x="718" y="320"/>
      <point x="718" y="292" type="curve" smooth="yes"/>
      <point x="718" y="281"/>
      <point x="715" y="264"/>
      <point x="709" y="229" type="curve"/>
      <point x="762" y="218" type="line"/>
      <point x="840" y="477" type="line"/>
      <point x="786" y="487" type="line"/>
      <point x="746" y="399"/>
      <point x="737" y="391"/>
      <point x="611" y="388" type="curve"/>
      <point x="669" y="591" type="line"/>
      <point x="674" y="614"/>
      <point x="680" y="618"/>
      <point x="713" y="618" type="curve" smooth="yes"/>
      <point x="860" y="618"/>
      <point x="885" y="608"/>
      <point x="885" y="549" type="curve" smooth="yes"/>
      <point x="885" y="544"/>
      <point x="884" y="514"/>
      <point x="883" y="502" type="curve"/>
      <point x="936" y="496" type="line"/>
      <point x="976" y="679" type="line"/>
      <point x="420" y="679" type="line"/>
      <point x="420" y="637" type="line"/>
      <point x="466" y="633"/>
      <point x="482" y="631"/>
      <point x="482" y="622" type="curve" smooth="yes"/>
      <point x="482" y="619" type="line" smooth="yes"/>
      <point x="482" y="615"/>
      <point x="481" y="612"/>
      <point x="469" y="596" type="curve" smooth="yes"/>
      <point x="465" y="592"/>
      <point x="460" y="585"/>
      <point x="455" y="577" type="curve"/>
      <point x="87" y="114" type="line" smooth="yes"/>
      <point x="42" y="58"/>
      <point x="30" y="48"/>
      <point x="0" y="41" type="curve"/>
      <point x="0" y="0" type="line"/>
      <point x="225" y="0" type="line"/>
      <point x="225" y="43" type="line"/>
      <point x="171" y="49"/>
      <point x="161" y="52"/>
      <point x="161" y="61" type="curve" smooth="yes"/>
      <point x="161" y="82"/>
      <point x="181" y="108"/>
      <point x="215" y="151" type="curve" smooth="yes"/>
      <point x="233" y="174"/>
      <point x="254" y="200"/>
      <point x="278" y="234" type="curve"/>
      <point x="432" y="234" type="line"/>
      <point x="389" y="81" type="line"/>
      <point x="389" y="82" type="line"/>
      <point x="379" y="53"/>
      <point x="372" y="49"/>
      <point x="308" y="43" type="curve"/>
      <point x="308" y="0" type="line"/>
      <point x="837" y="0" type="line"/>
      <point x="909" y="187" type="line"/>
    </contour>
    <contour>
      <point x="327" y="299" type="line"/>
      <point x="518" y="543" type="line"/>
      <point x="451" y="299" type="line"/>
    </contour>
  </outline>
</glyph>
<glyph name="Ccedilla" format="1">
  <unicode hex="00C7"/>
  <advance width="656"/>
  <outline>
    <contour>
      <point x="279" y="-18" type="curve" smooth="yes"/>
      <point x="389" y="-18"/>
      <point x="477" y="31"/>
      <point x="576" y="147" type="curve"/>
      <point x="533" y="182" type="line"/>
      <point x="437" y="87"/>
      <point x="381" y="56"/>
      <point x="306" y="56" type="curve" smooth="yes"/>
      <point x="207" y="56"/>
      <point x="151" y="126"/>
      <point x="151" y="245" type="curve" smooth="yes"/>
      <point x="151" y="426"/>
      <point x="262" y="626"/>
      <point x="434" y="626" type="curve" smooth="yes"/>
      <point x="512" y="626"/>
      <point x="557" y="574"/>
      <point x="567" y="469" type="curve"/>
      <point x="620" y="460" type="line"/>
      <point x="663" y="689" type="line" name="hr01"/>
      <point x="605" y="689" type="line"/>
      <point x="599" y="674"/>
      <point x="592" y="667"/>
      <point x="580" y="667" type="curve" smooth="yes"/>
      <point x="569" y="667"/>
      <point x="543" y="672"/>
      <point x="514" y="678" type="curve" smooth="yes"/>
      <point x="482" y="685"/>
      <point x="448" y="691"/>
      <point x="424" y="691" type="curve" smooth="yes" name="hr02"/>
      <point x="203" y="691"/>
      <point x="0" y="485"/>
      <point x="0" y="256" type="curve" smooth="yes"/>
      <point x="0" y="137"/>
      <point x="67" y="41"/>
      <point x="171" y="2" type="curve"/>
      <point x="119" y="-83" type="line"/>
      <point x="145" y="-106" type="line"/>
      <point x="165" y="-100"/>
      <point x="175" y="-97"/>
      <point x="182" y="-97" type="curve" smooth="yes"/>
      <point x="198" y="-97"/>
      <point x="209" y="-108"/>
      <point x="209" y="-127" type="curve" smooth="yes"/>
      <point x="209" y="-143"/>
      <point x="197" y="-152"/>
      <point x="176" y="-152" type="curve" smooth="yes"/>
      <point x="157" y="-152"/>
      <point x="136" y="-148"/>
      <point x="98" y="-133" type="curve"/>
      <point x="66" y="-187" type="line"/>
      <point x="122" y="-209"/>
      <point x="150" y="-216"/>
      <point x="183" y="-216" type="curve" smooth="yes"/>
      <point x="262" y="-216"/>
      <point x="321" y="-175"/>
      <point x="321" y="-116" type="curve" smooth="yes"/>
      <point x="321" y="-68"/>
      <point x="284" y="-36"/>
      <point x="228" y="-34" type="curve" name="hr03"/>
      <point x="241" y="-16" type="line"/>
      <point x="253" y="-17"/>
      <point x="266" y="-18"/>
    </contour>
  </outline>
</glyph>
<glyph name="Igrave" format="1">
  <unicode hex="00CC"/>
  <advance width="423"/>
  <outline>
    <contour>
      <point x="0" y="0" type="line"/>
      <point x="282" y="0" type="line"/>
      <point x="282" y="43" type="line"/>
      <point x="226" y="50"/>
      <point x="215" y="54"/>
      <point x="215" y="71" type="curve" smooth="yes"/>
      <point x="215" y="88"/>
      <point x="217" y="100"/>
      <point x="225" y="129" type="curve" smooth="yes"/>
      <point x="347" y="572" type="line" smooth="yes"/>
      <point x="360" y="621"/>
      <point x="371" y="625"/>
      <point x="430" y="637" type="curve"/>
      <point x="430" y="679" type="line"/>
      <point x="146" y="679" type="line"/>
      <point x="146" y="636" type="line"/>
      <point x="203" y="628"/>
      <point x="215" y="623"/>
      <point x="215" y="606" type="curve" smooth="yes"/>
      <point x="215" y="592"/>
      <point x="210" y="571"/>
      <point x="205" y="548" type="curve"/>
      <point x="82" y="107" type="line" smooth="yes"/>
      <point x="69" y="58"/>
      <point x="58" y="54"/>
      <point x="0" y="42" type="curve"/>
    </contour>
    <contour>
      <point x="340" y="701" type="line"/>
      <point x="413" y="701" type="line"/>
      <point x="278" y="872" type="line" smooth="yes"/>
      <point x="263" y="892"/>
      <point x="247" y="900"/>
      <point x="224" y="900" type="curve" smooth="yes"/>
      <point x="192" y="900"/>
      <point x="170" y="880"/>
      <point x="170" y="852" type="curve" smooth="yes"/>
      <point x="170" y="836"/>
      <point x="179" y="824"/>
      <point x="196" y="809" type="curve"/>
    </contour>
  </outline>
</glyph>
<glyph name="Iacute" format="1">
  <unicode hex="00CD"/>
  <advance width="423"/>
  <outline>
    <contour>
      <point x="0" y="0" type="line"/>
      <point x="282" y="0" type="line"/>
      <point x="282" y="43" type="line"/>
      <point x="226" y="50"/>
      <point x="215" y="54"/>
      <point x="215" y="71" type="curve" smooth="yes"/>
      <point x="215" y="88"/>
      <point x="217" y="100"/>
      <point x="225" y="129" type="curve" smooth="yes"/>
      <point x="347" y="572" type="line" smooth="yes"/>
      <point x="360" y="621"/>
      <point x="371" y="625"/>
      <point x="430" y="637" type="curve"/>
      <point x="430" y="679" type="line"/>
      <point x="146" y="679" type="line"/>
      <point x="146" y="636" type="line"/>
      <point x="203" y="628"/>
      <point x="215" y="623"/>
      <point x="215" y="606" type="curve" smooth="yes"/>
      <point x="215" y="592"/>
      <point x="210" y="571"/>
      <point x="205" y="548" type="curve"/>
      <point x="82" y="107" type="line" smooth="yes"/>
      <point x="69" y="58"/>
      <point x="58" y="54"/>
      <point x="0" y="42" type="curve"/>
    </contour>
    <contour>
      <point x="169" y="701" type="line"/>
      <point x="250" y="701" type="line"/>
      <point x="423" y="808" type="line" smooth="yes"/>
      <point x="441" y="820"/>
      <point x="448" y="832"/>
      <point x="448" y="849" type="curve" smooth="yes"/>
      <point x="448" y="877"/>
      <point x="424" y="898"/>
      <point x="394" y="898" type="curve" smooth="yes"/>
      <point x="378" y="898"/>
      <point x="366" y="893"/>
      <point x="353" y="883" type="curve"/>
    </contour>
  </outline>
</glyph>
<glyph name="Icircumflex" format="1">
  <unicode hex="00CE"/>
  <advance width="423"/>
  <outline>
    <contour>
      <point x="0" y="0" type="line"/>
      <point x="282" y="0" type="line"/>
      <point x="282" y="43" type="line"/>
      <point x="226" y="50"/>
      <point x="215" y="54"/>
      <point x="215" y="71" type="curve" smooth="yes"/>
      <point x="215" y="88"/>
      <point x="217" y="100"/>
      <point x="225" y="129" type="curve" smooth="yes"/>
      <point x="347" y="572" type="line" smooth="yes"/>
      <point x="360" y="621"/>
      <point x="371" y="625"/>
      <point x="430" y="637" type="curve"/>
      <point x="430" y="679" type="line"/>
      <point x="146" y="679" type="line"/>
      <point x="146" y="636" type="line"/>
      <point x="203" y="628"/>
      <point x="215" y="623"/>
      <point x="215" y="606" type="curve" smooth="yes"/>
      <point x="215" y="592"/>
      <point x="210" y="571"/>
      <point x="205" y="548" type="curve"/>
      <point x="82" y="107" type="line" smooth="yes"/>
      <point x="69" y="58"/>
      <point x="58" y="54"/>
      <point x="0" y="42" type="curve"/>
    </contour>
    <contour>
      <point x="377" y="898" type="line"/>
      <point x="304" y="898" type="line"/>
      <point x="122" y="701" type="line"/>
      <point x="206" y="701" type="line"/>
      <point x="330" y="796" type="line"/>
      <point x="405" y="701" type="line"/>
      <point x="479" y="701" type="line"/>
    </contour>
  </outline>
</glyph>
<glyph name="Ntilde" format="1">
  <unicode hex="00D1"/>
  <advance width="678"/>
  <outline>
    <contour>
      <point x="782" y="679" type="line"/>
      <point x="545" y="679" type="line"/>
      <point x="545" y="636" type="line"/>
      <point x="602" y="630"/>
      <point x="615" y="623"/>
      <point x="615" y="597" type="curve"/>
      <point x="615" y="597"/>
      <point x="614" y="590"/>
      <point x="612" y="584" type="curve" smooth="yes"/>
      <point x="609" y="572"/>
      <point x="604" y="560"/>
      <point x="604" y="546" type="curve"/>
      <point x="519" y="224" type="line"/>
      <point x="330" y="679" type="line"/>
      <point x="135" y="679" type="line"/>
      <point x="135" y="635" type="line"/>
      <point x="183" y="631"/>
      <point x="205" y="620"/>
      <point x="219" y="592" type="curve"/>
      <point x="103" y="182" type="line" smooth="yes"/>
      <point x="70" y="63"/>
      <point x="59" y="52"/>
      <point x="0" y="43" type="curve"/>
      <point x="0" y="0" type="line"/>
      <point x="236" y="0" type="line"/>
      <point x="236" y="44" type="line"/>
      <point x="185" y="48"/>
      <point x="166" y="56"/>
      <point x="166" y="73" type="curve" smooth="yes"/>
      <point x="166" y="85"/>
      <point x="169" y="105"/>
      <point x="173" y="123" type="curve"/>
      <point x="273" y="490" type="line"/>
      <point x="484" y="-15" type="line" name="hr01"/>
      <point x="532" y="-15" type="line"/>
      <point x="678" y="497" type="line" smooth="yes"/>
      <point x="712" y="617"/>
      <point x="715" y="622"/>
      <point x="782" y="637" type="curve"/>
    </contour>
    <contour>
      <point x="608" y="861" type="line"/>
      <point x="597" y="828"/>
      <point x="589" y="817"/>
      <point x="572" y="817" type="curve" smooth="yes"/>
      <point x="564" y="817"/>
      <point x="538" y="826"/>
      <point x="510" y="836" type="curve" smooth="yes"/>
      <point x="477" y="848"/>
      <point x="445" y="860"/>
      <point x="426" y="860" type="curve" smooth="yes" name="hr02"/>
      <point x="362" y="860"/>
      <point x="329" y="824"/>
      <point x="302" y="726" type="curve"/>
      <point x="370" y="726" type="line"/>
      <point x="380" y="758"/>
      <point x="391" y="773"/>
      <point x="405" y="773" type="curve"/>
      <point x="405" y="773"/>
      <point x="414" y="769"/>
      <point x="429" y="764" type="curve" smooth="yes"/>
      <point x="467" y="752"/>
      <point x="525" y="730"/>
      <point x="557" y="730" type="curve" smooth="yes"/>
      <point x="616" y="730"/>
      <point x="657" y="775"/>
      <point x="675" y="861" type="curve" name="hr03"/>
    </contour>
  </outline>
</glyph>
<glyph name="Oacute" format="1">
  <unicode hex="00D3"/>
  <advance width="669"/>
  <outline>
    <contour>
      <point x="432" y="691" type="curve"/>
      <point x="218" y="691"/>
      <point x="0" y="446"/>
      <point x="0" y="235" type="curve" smooth="yes"/>
      <point x="0" y="86"/>
      <point x="99" y="-18"/>
      <point x="237" y="-18" type="curve" smooth="yes"/>
      <point x="454" y="-18"/>
      <point x="664" y="197"/>
      <point x="676" y="429" type="curve"/>
      <point x="676" y="434" type="line" smooth="yes"/>
      <point x="676" y="590"/>
      <point x="574" y="690"/>
    </contour>
    <contour>
      <point x="423" y="630" type="curve" smooth="yes"/>
      <point x="489" y="630"/>
      <point x="533" y="579"/>
      <point x="533" y="494" type="curve" smooth="yes"/>
      <point x="533" y="298"/>
      <point x="405" y="44"/>
      <point x="254" y="44" type="curve" smooth="yes"/>
      <point x="183" y="44"/>
      <point x="144" y="99"/>
      <point x="144" y="198" type="curve" smooth="yes"/>
      <point x="144" y="383"/>
      <point x="274" y="630"/>
    </contour>
    <contour>
      <point x="309" y="701" type="line"/>
      <point x="390" y="701" type="line"/>
      <point x="563" y="808" type="line"/>
      <point x="562" y="808" type="line"/>
      <point x="582" y="820"/>
      <point x="589" y="832"/>
      <point x="589" y="849" type="curve" smooth="yes"/>
      <point x="589" y="877"/>
      <point x="564" y="898"/>
      <point x="534" y="898" type="curve" smooth="yes"/>
      <point x="517" y="898"/>
      <point x="504" y="893"/>
      <point x="495" y="885" type="curve" smooth="yes"/>
    </contour>
  </outline>
</glyph>
<glyph name="Otilde" format="1">
  <unicode hex="00D5"/>
  <advance width="669"/>
  <outline>
    <contour>
      <point x="432" y="691" type="line"/>
      <point x="218" y="691"/>
      <point x="0" y="446"/>
      <point x="0" y="235" type="curve" smooth="yes"/>
      <point x="0" y="86"/>
      <point x="99" y="-18"/>
      <point x="237" y="-18" type="curve" smooth="yes"/>
      <point x="454" y="-18"/>
      <point x="664" y="197"/>
      <point x="676" y="429" type="curve"/>
      <point x="676" y="432" type="line" smooth="yes"/>
      <point x="676" y="587"/>
      <point x="575" y="691"/>
      <point x="434" y="691" type="curve"/>
    </contour>
    <contour>
      <point x="423" y="630" type="curve" smooth="yes"/>
      <point x="489" y="630"/>
      <point x="533" y="579"/>
      <point x="533" y="494" type="curve" smooth="yes"/>
      <point x="533" y="298"/>
      <point x="405" y="44"/>
      <point x="254" y="44" type="curve" smooth="yes"/>
      <point x="183" y="44"/>
      <point x="144" y="99"/>
      <point x="144" y="198" type="curve" smooth="yes"/>
      <point x="144" y="383"/>
      <point x="274" y="630"/>
    </contour>
    <contour>
      <point x="548" y="861" type="line"/>
      <point x="536" y="828"/>
      <point x="527" y="817"/>
      <point x="511" y="817" type="curve" smooth="yes"/>
      <point x="502" y="817"/>
      <point x="473" y="827"/>
      <point x="445" y="837" type="curve" smooth="yes"/>
      <point x="414" y="848"/>
      <point x="382" y="860"/>
      <point x="364" y="860" type="curve" smooth="yes" name="hr01"/>
      <point x="302" y="860"/>
      <point x="266" y="824"/>
      <point x="240" y="726" type="curve"/>
      <point x="308" y="726" type="line"/>
      <point x="318" y="758"/>
      <point x="329" y="773"/>
      <point x="344" y="773" type="curve"/>
      <point x="343" y="773"/>
      <point x="355" y="768"/>
      <point x="370" y="763" type="curve" smooth="yes"/>
      <point x="406" y="751"/>
      <point x="461" y="730"/>
      <point x="494" y="730" type="curve" smooth="yes"/>
      <point x="553" y="730"/>
      <point x="596" y="775"/>
      <point x="610" y="861" type="curve" name="hr02"/>
    </contour>
  </outline>
</glyph>
<glyph name="Odieresis" format="1">
  <unicode hex="00D6"/>
  <advance width="669"/>
  <outline>
    <contour>
      <point x="432" y="691" type="line"/>
      <point x="218" y="691"/>
      <point x="0" y="446"/>
      <point x="0" y="235" type="curve" smooth="yes"/>
      <point x="0" y="86"/>
      <point x="99" y="-18"/>
      <point x="237" y="-18" type="curve" smooth="yes"/>
      <point x="454" y="-18"/>
      <point x="664" y="197"/>
      <point x="676" y="429" type="curve"/>
      <point x="676" y="432" type="line" smooth="yes"/>
      <point x="676" y="587"/>
      <point x="575" y="691"/>
      <point x="434" y="691" type="curve"/>
    </contour>
    <contour>
      <point x="423" y="630" type="curve" smooth="yes"/>
      <point x="489" y="630"/>
      <point x="533" y="579"/>
      <point x="533" y="494" type="curve" smooth="yes"/>
      <point x="533" y="298"/>
      <point x="405" y="44"/>
      <point x="254" y="44" type="curve" smooth="yes"/>
      <point x="183" y="44"/>
      <point x="144" y="99"/>
      <point x="144" y="198" type="curve" smooth="yes"/>
      <point x="144" y="383"/>
      <point x="274" y="630"/>
    </contour>
    <contour>
      <point x="532" y="844" type="curve" smooth="yes"/>
      <point x="491" y="844"/>
      <point x="463" y="814"/>
      <point x="463" y="781" type="curve" smooth="yes" name="hr01"/>
      <point x="463" y="744"/>
      <point x="492" y="717"/>
      <point x="531" y="717" type="curve" smooth="yes"/>
      <point x="568" y="717"/>
      <point x="599" y="745"/>
      <point x="599" y="780" type="curve" smooth="yes"/>
      <point x="599" y="811"/>
      <point x="566" y="844"/>
    </contour>
    <contour>
      <point x="332" y="844" type="curve" smooth="yes"/>
      <point x="294" y="844"/>
      <point x="263" y="814"/>
      <point x="263" y="781" type="curve" smooth="yes"/>
      <point x="263" y="744"/>
      <point x="294" y="717"/>
      <point x="331" y="717" type="curve" smooth="yes"/>
      <point x="369" y="717"/>
      <point x="399" y="745"/>
      <point x="399" y="780" type="curve" smooth="yes"/>
      <point x="399" y="811"/>
      <point x="367" y="844"/>
    </contour>
  </outline>
</glyph>
<glyph name="multiply" format="1">
  <unicode hex="00D7"/>
  <advance width="505"/>
  <outline>
    <contour>
      <point x="26" y="426" type="line"/>
      <point x="184" y="268" type="line"/>
      <point x="27" y="113" type="line"/>
      <point x="96" y="42" type="line"/>
      <point x="253" y="199" type="line"/>
      <point x="408" y="42" type="line"/>
      <point x="479" y="112" type="line"/>
      <point x="322" y="268" type="line"/>
      <point x="479" y="426" type="line"/>
      <point x="408" y="495" type="line"/>
      <point x="253" y="338" type="line"/>
      <point x="96" y="495" type="line"/>
    </contour>
  </outline>
</glyph>
<glyph name="Ugrave" format="1">
  <unicode hex="00D9"/>
  <advance width="691"/>
  <outline>
    <contour>
      <point x="698" y="679" type="line"/>
      <point x="462" y="679" type="line"/>
      <point x="462" y="636" type="line"/>
      <point x="516" y="630"/>
      <point x="532" y="621"/>
      <point x="532" y="603" type="curve" smooth="yes"/>
      <point x="532" y="591"/>
      <point x="517" y="537"/>
      <point x="493" y="445" type="curve"/>
      <point x="446" y="272" type="line"/>
      <point x="407" y="114"/>
      <point x="345" y="53"/>
      <point x="247" y="52" type="curve"/>
      <point x="177" y="52"/>
      <point x="126" y="93"/>
      <point x="126" y="155" type="curve" smooth="yes"/>
      <point x="126" y="188"/>
      <point x="159" y="308"/>
      <point x="223" y="535" type="curve" smooth="yes"/>
      <point x="246" y="615"/>
      <point x="257" y="627"/>
      <point x="334" y="636" type="curve"/>
      <point x="334" y="679" type="line"/>
      <point x="25" y="679" type="line"/>
      <point x="25" y="636" type="line"/>
      <point x="91" y="629"/>
      <point x="101" y="626"/>
      <point x="101" y="608" type="curve" smooth="yes"/>
      <point x="101" y="598"/>
      <point x="98" y="583"/>
      <point x="95" y="566" type="curve"/>
      <point x="96" y="567" type="line"/>
      <point x="44" y="376" type="line"/>
      <point x="12" y="266"/>
      <point x="0" y="200"/>
      <point x="0" y="161" type="curve" smooth="yes"/>
      <point x="0" y="58"/>
      <point x="98" y="-18"/>
      <point x="235" y="-18" type="curve" smooth="yes"/>
      <point x="376" y="-18"/>
      <point x="465" y="58"/>
      <point x="511" y="212" type="curve"/>
      <point x="594" y="497" type="line" smooth="yes"/>
      <point x="630" y="619"/>
      <point x="634" y="623"/>
      <point x="698" y="638" type="curve"/>
    </contour>
    <contour>
      <point x="419" y="701" type="line"/>
      <point x="490" y="701" type="line"/>
      <point x="355" y="872" type="line"/>
      <point x="338" y="892"/>
      <point x="324" y="900"/>
      <point x="303" y="900" type="curve" smooth="yes"/>
      <point x="271" y="900"/>
      <point x="249" y="880"/>
      <point x="249" y="852" type="curve" smooth="yes"/>
      <point x="249" y="837"/>
      <point x="257" y="824"/>
      <point x="274" y="809" type="curve"/>
    </contour>
  </outline>
</glyph>
<glyph name="Yacute" format="1">
  <unicode hex="00DD"/>
  <advance width="597"/>
  <outline>
    <contour>
      <point x="13" y="637" type="line"/>
      <point x="74" y="627"/>
      <point x="76" y="624"/>
      <point x="91" y="578" type="curve"/>
      <point x="91" y="579" type="line"/>
      <point x="166" y="315" type="line"/>
      <point x="106" y="107" type="line"/>
      <point x="92" y="62"/>
      <point x="70" y="48"/>
      <point x="0" y="44" type="curve"/>
      <point x="0" y="0" type="line"/>
      <point x="327" y="0" type="line"/>
      <point x="327" y="44" type="line"/>
      <point x="261" y="48"/>
      <point x="238" y="51"/>
      <point x="238" y="70" type="curve"/>
      <point x="240" y="91"/>
      <point x="246" y="112"/>
      <point x="261" y="170" type="curve"/>
      <point x="265" y="182"/>
      <point x="269" y="198"/>
      <point x="274" y="214" type="curve" smooth="yes"/>
      <point x="302" y="314" type="line"/>
      <point x="520" y="581" type="line" smooth="yes"/>
      <point x="522" y="584"/>
      <point x="522" y="584"/>
      <point x="523" y="585" type="curve"/>
      <point x="550" y="618"/>
      <point x="556" y="626"/>
      <point x="591" y="640" type="curve"/>
      <point x="591" y="679" type="line"/>
      <point x="365" y="679" type="line"/>
      <point x="365" y="635" type="line"/>
      <point x="413" y="631"/>
      <point x="433" y="628"/>
      <point x="433" y="618" type="curve" smooth="yes"/>
      <point x="433" y="593"/>
      <point x="390" y="530"/>
      <point x="289" y="415" type="curve" smooth="yes"/>
      <point x="274" y="397" type="line"/>
      <point x="247" y="501" type="line" smooth="yes"/>
      <point x="232" y="561"/>
      <point x="218" y="608"/>
      <point x="218" y="613" type="curve" smooth="yes"/>
      <point x="218" y="626"/>
      <point x="231" y="629"/>
      <point x="289" y="636" type="curve"/>
      <point x="289" y="679" type="line"/>
      <point x="13" y="679" type="line"/>
    </contour>
    <contour>
      <point x="215" y="701" type="line"/>
      <point x="297" y="701" type="line"/>
      <point x="470" y="808" type="line" smooth="yes"/>
      <point x="488" y="820"/>
      <point x="495" y="832"/>
      <point x="495" y="849" type="curve" smooth="yes"/>
      <point x="495" y="877"/>
      <point x="471" y="898"/>
      <point x="440" y="898" type="curve" smooth="yes"/>
      <point x="425" y="898"/>
      <point x="412" y="893"/>
      <point x="400" y="883" type="curve"/>
    </contour>
  </outline>
</glyph>
<glyph name="Thorn" format="1">
  <unicode hex="00DE"/>
  <advance width="614"/>
  <outline>
    <contour>
      <point x="146" y="636" type="line"/>
      <point x="201" y="628"/>
      <point x="216" y="623"/>
      <point x="216" y="607" type="curve" smooth="yes"/>
      <point x="216" y="593"/>
      <point x="212" y="574"/>
      <point x="199" y="530" type="curve"/>
      <point x="82" y="107" type="line"/>
      <point x="67" y="56"/>
      <point x="59" y="51"/>
      <point x="0" y="43" type="curve"/>
      <point x="0" y="0" type="line"/>
      <point x="282" y="0" type="line"/>
      <point x="282" y="43" type="line"/>
      <point x="220" y="52"/>
      <point x="214" y="54"/>
      <point x="214" y="76" type="curve"/>
      <point x="213" y="72" type="line"/>
      <point x="238" y="175" type="line"/>
      <point x="258" y="171"/>
      <point x="280" y="170"/>
      <point x="313" y="170" type="curve" smooth="yes" name="hr01"/>
      <point x="513" y="170"/>
      <point x="605" y="263"/>
      <point x="605" y="382" type="curve" smooth="yes"/>
      <point x="605" y="487"/>
      <point x="524" y="544"/>
      <point x="376" y="544" type="curve" smooth="yes"/>
      <point x="342" y="544" type="line"/>
      <point x="358" y="603" type="line" smooth="yes"/>
      <point x="364" y="624"/>
      <point x="378" y="630"/>
      <point x="421" y="636" type="curve"/>
      <point x="421" y="679" type="line" name="hr02"/>
      <point x="146" y="679" type="line"/>
    </contour>
    <contour>
      <point x="321" y="467" type="line" smooth="yes"/>
      <point x="325" y="481"/>
      <point x="333" y="486"/>
      <point x="349" y="486" type="curve" smooth="yes"/>
      <point x="425" y="486"/>
      <point x="464" y="459"/>
      <point x="464" y="381" type="curve" smooth="yes"/>
      <point x="464" y="279"/>
      <point x="411" y="233"/>
      <point x="286" y="233" type="curve" smooth="yes"/>
      <point x="275" y="233"/>
      <point x="269" y="233"/>
      <point x="255" y="235" type="curve"/>
    </contour>
  </outline>
</glyph>
<glyph name="uni00DF" format="1">
  <unicode hex="00DF"/>
  <advance width="721"/>
  <outline>
    <contour>
      <point x="697" y="560" type="curve" smooth="yes"/>
      <point x="697" y="645"/>
      <point x="634" y="705"/>
      <point x="540" y="705" type="curve" smooth="yes"/>
      <point x="407" y="705"/>
      <point x="320" y="595"/>
      <point x="263" y="331" type="curve"/>
      <point x="191" y="13" type="line" smooth="yes"/>
      <point x="163" y="-108"/>
      <point x="143" y="-151"/>
      <point x="109" y="-153" type="curve"/>
      <point x="113" y="-143"/>
      <point x="118" y="-132"/>
      <point x="118" y="-125" type="curve" smooth="yes"/>
      <point x="118" y="-94"/>
      <point x="92" y="-74"/>
      <point x="59" y="-74" type="curve" smooth="yes"/>
      <point x="23" y="-74"/>
      <point x="0" y="-94"/>
      <point x="0" y="-130" type="curve" smooth="yes"/>
      <point x="0" y="-175"/>
      <point x="39" y="-206"/>
      <point x="98" y="-206" type="curve" smooth="yes"/>
      <point x="186" y="-206"/>
      <point x="262" y="-121"/>
      <point x="300" y="23" type="curve" smooth="yes"/>
      <point x="410" y="447" type="line" smooth="yes"/>
      <point x="446" y="583"/>
      <point x="489" y="653"/>
      <point x="537" y="653" type="curve" smooth="yes"/>
      <point x="565" y="653"/>
      <point x="578" y="629"/>
      <point x="578" y="589" type="curve" smooth="yes"/>
      <point x="578" y="491"/>
      <point x="532" y="425"/>
      <point x="464" y="425" type="curve" smooth="yes"/>
      <point x="436" y="425"/>
      <point x="427" y="419"/>
      <point x="427" y="397" type="curve" smooth="yes" name="hr01"/>
      <point x="427" y="377"/>
      <point x="438" y="368"/>
      <point x="470" y="367" type="curve" smooth="yes"/>
      <point x="513" y="366"/>
      <point x="533" y="336"/>
      <point x="533" y="275" type="curve" smooth="yes" name="hr02"/>
      <point x="533" y="167"/>
      <point x="491" y="39"/>
      <point x="436" y="38" type="curve"/>
      <point x="436" y="40"/>
      <point x="437" y="44"/>
      <point x="439" y="47" type="curve" smooth="yes"/>
      <point x="443" y="57"/>
      <point x="448" y="66"/>
      <point x="448" y="74" type="curve" smooth="yes"/>
      <point x="448" y="106"/>
      <point x="426" y="128"/>
      <point x="390" y="128" type="curve" smooth="yes" name="hr03"/>
      <point x="354" y="128"/>
      <point x="328" y="104"/>
      <point x="328" y="68" type="curve" smooth="yes"/>
      <point x="328" y="20"/>
      <point x="367" y="-13"/>
      <point x="427" y="-13" type="curve" smooth="yes" name="hr04"/>
      <point x="559" y="-13"/>
      <point x="658" y="132"/>
      <point x="658" y="257" type="curve" smooth="yes"/>
      <point x="658" y="321"/>
      <point x="623" y="375"/>
      <point x="559" y="398" type="curve"/>
      <point x="658" y="441"/>
      <point x="697" y="489"/>
    </contour>
  </outline>
</glyph>
<glyph name="aring" format="1">
  <unicode hex="00E5"/>
  <advance width="527"/>
  <outline>
    <contour>
      <point x="461" y="146" type="line"/>
      <point x="418" y="99"/>
      <point x="398" y="79"/>
      <point x="390" y="72" type="curve"/>
      <point x="391" y="86"/>
      <point x="401" y="121"/>
      <point x="415" y="170" type="curve" smooth="yes"/>
      <point x="435" y="242"/>
      <point x="466" y="362"/>
      <point x="488" y="466" type="curve"/>
      <point x="383" y="460" type="line"/>
      <point x="377" y="442" type="line"/>
      <point x="360" y="459"/>
      <point x="335" y="468"/>
      <point x="303" y="468" type="curve" smooth="yes"/>
      <point x="163" y="468"/>
      <point x="0" y="278"/>
      <point x="0" y="114" type="curve" smooth="yes"/>
      <point x="0" y="35"/>
      <point x="46" y="-12"/>
      <point x="120" y="-12" type="curve" smooth="yes"/>
      <point x="181" y="-12"/>
      <point x="223" y="10"/>
      <point x="281" y="81" type="curve"/>
      <point x="278" y="65"/>
      <point x="278" y="57"/>
      <point x="278" y="45" type="curve" smooth="yes"/>
      <point x="278" y="7"/>
      <point x="297" y="-11"/>
      <point x="338" y="-11" type="curve" smooth="yes" name="hr01"/>
      <point x="386" y="-11"/>
      <point x="415" y="12"/>
      <point x="501" y="116" type="curve"/>
    </contour>
    <contour>
      <point x="346" y="371" type="curve" smooth="yes"/>
      <point x="346" y="271"/>
      <point x="260" y="67"/>
      <point x="160" y="67" type="curve" smooth="yes" name="hr02"/>
      <point x="137" y="67"/>
      <point x="122" y="89"/>
      <point x="122" y="127" type="curve" smooth="yes"/>
      <point x="122" y="234"/>
      <point x="221" y="416"/>
      <point x="305" y="416" type="curve"/>
      <point x="331" y="414"/>
      <point x="346" y="397"/>
    </contour>
    <contour>
      <point x="338" y="733" type="curve" smooth="yes"/>
      <point x="274" y="733"/>
      <point x="220" y="681"/>
      <point x="220" y="620" type="curve" smooth="yes"/>
      <point x="220" y="555"/>
      <point x="273" y="506"/>
      <point x="339" y="506" type="curve" smooth="yes"/>
      <point x="405" y="506"/>
      <point x="458" y="557"/>
      <point x="458" y="619" type="curve" smooth="yes"/>
      <point x="458" y="681"/>
      <point x="404" y="733"/>
    </contour>
    <contour>
      <point x="338" y="669" type="curve" smooth="yes"/>
      <point x="364" y="669"/>
      <point x="385" y="646"/>
      <point x="385" y="619" type="curve" smooth="yes"/>
      <point x="385" y="590"/>
      <point x="365" y="568"/>
      <point x="338" y="568" type="curve" smooth="yes"/>
      <point x="312" y="568"/>
      <point x="293" y="591"/>
      <point x="293" y="620" type="curve" smooth="yes"/>
      <point x="293" y="646"/>
      <point x="313" y="669"/>
    </contour>
  </outline>
</glyph>
<glyph name="ccedilla" format="1">
  <unicode hex="00E7"/>
  <advance width="455"/>
  <outline>
    <contour>
      <point x="345" y="141" type="line"/>
      <point x="285" y="78"/>
      <point x="248" y="54"/>
      <point x="205" y="54" type="curve" smooth="yes"/>
      <point x="160" y="54"/>
      <point x="133" y="90"/>
      <point x="133" y="153" type="curve" smooth="yes"/>
      <point x="133" y="274"/>
      <point x="205" y="418"/>
      <point x="314" y="418" type="curve" smooth="yes"/>
      <point x="324" y="418"/>
      <point x="332" y="415"/>
      <point x="332" y="412" type="curve"/>
      <point x="332" y="411"/>
      <point x="328" y="403"/>
      <point x="325" y="394" type="curve"/>
      <point x="326" y="394" type="line"/>
      <point x="321" y="383"/>
      <point x="317" y="371"/>
      <point x="317" y="365" type="curve" smooth="yes"/>
      <point x="317" y="331"/>
      <point x="340" y="313"/>
      <point x="375" y="313" type="curve" smooth="yes" name="hr01"/>
      <point x="412" y="313"/>
      <point x="441" y="339"/>
      <point x="441" y="373" type="curve" smooth="yes"/>
      <point x="441" y="426"/>
      <point x="389" y="468"/>
      <point x="317" y="468" type="curve" smooth="yes"/>
      <point x="159" y="468"/>
      <point x="10" y="315"/>
      <point x="10" y="153" type="curve" smooth="yes"/>
      <point x="10" y="75"/>
      <point x="42" y="24"/>
      <point x="106" y="1" type="curve"/>
      <point x="52" y="-84" type="line"/>
      <point x="80" y="-106" type="line"/>
      <point x="100" y="-100"/>
      <point x="109" y="-97"/>
      <point x="116" y="-97" type="curve" smooth="yes"/>
      <point x="132" y="-97"/>
      <point x="144" y="-108"/>
      <point x="144" y="-127" type="curve" smooth="yes"/>
      <point x="144" y="-143"/>
      <point x="132" y="-152"/>
      <point x="109" y="-152" type="curve" smooth="yes"/>
      <point x="91" y="-152"/>
      <point x="70" y="-148"/>
      <point x="34" y="-133" type="curve"/>
      <point x="0" y="-186" type="line"/>
      <point x="58" y="-209"/>
      <point x="86" y="-216"/>
      <point x="117" y="-216" type="curve" smooth="yes"/>
      <point x="198" y="-216"/>
      <point x="255" y="-175"/>
      <point x="255" y="-116" type="curve" smooth="yes"/>
      <point x="255" y="-68"/>
      <point x="218" y="-36"/>
      <point x="162" y="-34" type="curve" name="hr02"/>
      <point x="178" y="-12" type="line"/>
      <point x="263" y="-9"/>
      <point x="321" y="29"/>
      <point x="388" y="114" type="curve"/>
    </contour>
  </outline>
</glyph>
<glyph name="eacute" format="1">
  <unicode hex="00E9"/>
  <advance width="442"/>
  <outline>
    <contour>
      <point x="347" y="145" type="line"/>
      <point x="266" y="82"/>
      <point x="236" y="62"/>
      <point x="199" y="62" type="curve" smooth="yes"/>
      <point x="154" y="62"/>
      <point x="124" y="92"/>
      <point x="124" y="138" type="curve" smooth="yes"/>
      <point x="124" y="151"/>
      <point x="126" y="163"/>
      <point x="132" y="187" type="curve"/>
      <point x="146" y="189" type="line" smooth="yes"/>
      <point x="306" y="212"/>
      <point x="417" y="292"/>
      <point x="417" y="385" type="curve" smooth="yes"/>
      <point x="417" y="435"/>
      <point x="381" y="468"/>
      <point x="318" y="468" type="curve" smooth="yes"/>
      <point x="166" y="468"/>
      <point x="0" y="296"/>
      <point x="0" y="140" type="curve" smooth="yes"/>
      <point x="0" y="51"/>
      <point x="61" y="-12"/>
      <point x="150" y="-12" type="curve" smooth="yes"/>
      <point x="228" y="-12"/>
      <point x="312" y="35"/>
      <point x="379" y="112" type="curve"/>
    </contour>
    <contour>
      <point x="185" y="492" type="line"/>
      <point x="266" y="492" type="line"/>
      <point x="439" y="599" type="line" smooth="yes"/>
      <point x="457" y="611"/>
      <point x="464" y="623"/>
      <point x="464" y="639" type="curve" smooth="yes"/>
      <point x="464" y="668"/>
      <point x="440" y="689"/>
      <point x="409" y="689" type="curve" smooth="yes"/>
      <point x="392" y="689"/>
      <point x="381" y="686"/>
      <point x="371" y="676" type="curve" smooth="yes"/>
    </contour>
    <contour>
      <point x="158" y="261" type="line" smooth="yes"/>
      <point x="190" y="344"/>
      <point x="255" y="415"/>
      <point x="298" y="415" type="curve" smooth="yes"/>
      <point x="307" y="415"/>
      <point x="313" y="406"/>
      <point x="313" y="392" type="curve" smooth="yes"/>
      <point x="313" y="337"/>
      <point x="265" y="281"/>
      <point x="152" y="245" type="curve"/>
    </contour>
  </outline>
</glyph>
<glyph name="iacute" format="1">
  <unicode hex="00ED"/>
  <advance width="293"/>
  <outline>
    <contour>
      <point x="188" y="152" type="line"/>
      <point x="145" y="95"/>
      <point x="126" y="74"/>
      <point x="115" y="67" type="curve"/>
      <point x="116" y="68"/>
      <point x="116" y="69"/>
      <point x="116" y="70" type="curve"/>
      <point x="116" y="83"/>
      <point x="120" y="104"/>
      <point x="126" y="122" type="curve"/>
      <point x="126" y="124"/>
      <point x="126" y="127"/>
      <point x="127" y="128" type="curve"/>
      <point x="219" y="474" type="line"/>
      <point x="94" y="450"/>
      <point x="69" y="445"/>
      <point x="15" y="441" type="curve"/>
      <point x="15" y="398" type="line"/>
      <point x="68" y="397"/>
      <point x="79" y="396"/>
      <point x="79" y="388" type="curve" smooth="yes"/>
      <point x="79" y="381"/>
      <point x="76" y="365"/>
      <point x="22" y="173" type="curve"/>
      <point x="8" y="115"/>
      <point x="0" y="83"/>
      <point x="0" y="60" type="curve" smooth="yes"/>
      <point x="0" y="14"/>
      <point x="22" y="-12"/>
      <point x="65" y="-12" type="curve" smooth="yes"/>
      <point x="121" y="-12"/>
      <point x="163" y="24"/>
      <point x="227" y="119" type="curve"/>
    </contour>
    <contour>
      <point x="64" y="492" type="line"/>
      <point x="146" y="492" type="line"/>
      <point x="318" y="599" type="line"/>
      <point x="317" y="599" type="line"/>
      <point x="336" y="611"/>
      <point x="344" y="623"/>
      <point x="344" y="639" type="curve" smooth="yes"/>
      <point x="344" y="668"/>
      <point x="319" y="689"/>
      <point x="288" y="689" type="curve" smooth="yes"/>
      <point x="273" y="689"/>
      <point x="260" y="686"/>
      <point x="250" y="676" type="curve" smooth="yes"/>
    </contour>
  </outline>
</glyph>
<glyph name="idieresis" format="1">
  <unicode hex="00EF"/>
  <advance width="293"/>
  <outline>
    <contour>
      <point x="188" y="152" type="line"/>
      <point x="145" y="95"/>
      <point x="126" y="74"/>
      <point x="115" y="67" type="curve"/>
      <point x="116" y="68"/>
      <point x="116" y="69"/>
      <point x="116" y="70" type="curve"/>
      <point x="116" y="83"/>
      <point x="120" y="104"/>
      <point x="126" y="122" type="curve"/>
      <point x="126" y="124"/>
      <point x="126" y="127"/>
      <point x="127" y="128" type="curve"/>
      <point x="219" y="474" type="line"/>
      <point x="94" y="450"/>
      <point x="69" y="445"/>
      <point x="15" y="441" type="curve"/>
      <point x="15" y="398" type="line"/>
      <point x="68" y="397"/>
      <point x="79" y="396"/>
      <point x="79" y="388" type="curve" smooth="yes"/>
      <point x="79" y="381"/>
      <point x="76" y="365"/>
      <point x="22" y="173" type="curve"/>
      <point x="8" y="115"/>
      <point x="0" y="83"/>
      <point x="0" y="60" type="curve" smooth="yes"/>
      <point x="0" y="14"/>
      <point x="22" y="-12"/>
      <point x="65" y="-12" type="curve" smooth="yes"/>
      <point x="121" y="-12"/>
      <point x="163" y="24"/>
      <point x="227" y="119" type="curve"/>
    </contour>
    <contour>
      <point x="75" y="633" type="curve" smooth="yes"/>
      <point x="34" y="633"/>
      <point x="7" y="603"/>
      <point x="7" y="570" type="curve" smooth="yes"/>
      <point x="7" y="533"/>
      <point x="34" y="506"/>
      <point x="74" y="506" type="curve" smooth="yes"/>
      <point x="111" y="506"/>
      <point x="142" y="534"/>
      <point x="142" y="569" type="curve" smooth="yes"/>
      <point x="142" y="600"/>
      <point x="109" y="633"/>
    </contour>
    <contour>
      <point x="273" y="633" type="curve" smooth="yes"/>
      <point x="237" y="633"/>
      <point x="205" y="603"/>
      <point x="205" y="570" type="curve" smooth="yes"/>
      <point x="205" y="533"/>
      <point x="238" y="506"/>
      <point x="272" y="506" type="curve" smooth="yes"/>
      <point x="310" y="506"/>
      <point x="341" y="534"/>
      <point x="341" y="569" type="curve" smooth="yes"/>
      <point x="341" y="600"/>
      <point x="308" y="633"/>
    </contour>
  </outline>
</glyph>
<glyph name="eth" format="1">
  <unicode hex="00F0"/>
  <advance width="527"/>
  <outline>
    <contour>
      <point x="357" y="455" type="curve"/>
      <point x="340" y="463"/>
      <point x="322" y="468"/>
      <point x="301" y="468" type="curve" smooth="yes"/>
      <point x="154" y="468"/>
      <point x="0" y="300"/>
      <point x="0" y="143" type="curve" smooth="yes"/>
      <point x="0" y="49"/>
      <point x="63" y="-12"/>
      <point x="165" y="-12" type="curve" smooth="yes"/>
      <point x="332" y="-12"/>
      <point x="476" y="167"/>
      <point x="476" y="372" type="curve" smooth="yes"/>
      <point x="476" y="460"/>
      <point x="453" y="527"/>
      <point x="398" y="598" type="curve"/>
      <point x="502" y="644" type="line"/>
      <point x="444" y="694" type="line"/>
      <point x="346" y="652" type="line"/>
      <point x="308" y="681"/>
      <point x="268" y="699"/>
      <point x="218" y="711" type="curve"/>
      <point x="148" y="675" type="line"/>
      <point x="199" y="655"/>
      <point x="229" y="638"/>
      <point x="258" y="614" type="curve"/>
      <point x="136" y="560" type="line"/>
      <point x="195" y="509" type="line"/>
      <point x="308" y="559" type="line"/>
      <point x="331" y="526"/>
      <point x="346" y="494"/>
    </contour>
    <contour>
      <point x="304" y="418" type="curve" smooth="yes"/>
      <point x="335" y="418"/>
      <point x="356" y="387"/>
      <point x="356" y="338" type="curve" smooth="yes"/>
      <point x="356" y="210"/>
      <point x="270" y="39"/>
      <point x="180" y="39" type="curve" smooth="yes"/>
      <point x="146" y="39"/>
      <point x="122" y="70"/>
      <point x="122" y="115" type="curve" smooth="yes"/>
      <point x="122" y="233"/>
      <point x="209" y="418"/>
    </contour>
  </outline>
</glyph>
